%TF.GenerationSoftware,KiCad,Pcbnew,(6.0.0)*%
%TF.CreationDate,2022-01-07T00:25:38+08:00*%
%TF.ProjectId,pj4_MCU,706a345f-4d43-4552-9e6b-696361645f70,1*%
%TF.SameCoordinates,Original*%
%TF.FileFunction,Plated,1,2,PTH,Drill*%
%TF.FilePolarity,Positive*%
%FSLAX46Y46*%
G04 Gerber Fmt 4.6, Leading zero omitted, Abs format (unit mm)*
G04 Created by KiCad (PCBNEW (6.0.0)) date 2022-01-07 00:25:38*
%MOMM*%
%LPD*%
G01*
G04 APERTURE LIST*
%TA.AperFunction,ViaDrill*%
%ADD10C,0.400000*%
%TD*%
%TA.AperFunction,ComponentDrill*%
%ADD11C,1.000000*%
%TD*%
G04 APERTURE END LIST*
D10*
X152400000Y-122109500D03*
X152400000Y-132080000D03*
X152400000Y-135139011D03*
X154940000Y-114300000D03*
X154940000Y-116840000D03*
X154940000Y-120154500D03*
X160020000Y-137160000D03*
X160603010Y-131496990D03*
X162560000Y-124460000D03*
X164225451Y-116689951D03*
X164980868Y-122696693D03*
X165100000Y-121025444D03*
X165374980Y-119380000D03*
X165824500Y-117264386D03*
X167640000Y-113575500D03*
X167640000Y-124460000D03*
X167640000Y-127000000D03*
X170180000Y-108495500D03*
X170180000Y-111035500D03*
X170180000Y-116655500D03*
X170180000Y-127000000D03*
X170496128Y-113100726D03*
X171179503Y-111035500D03*
X171271000Y-119380000D03*
X171962299Y-112517701D03*
X171995500Y-127000000D03*
X172720000Y-113275386D03*
X172720000Y-119380000D03*
X173232300Y-111247701D03*
X173732051Y-119367452D03*
X173845123Y-117301792D03*
X175260000Y-116445674D03*
X175260000Y-119780000D03*
X177800000Y-111760000D03*
X178117859Y-115024500D03*
X178524500Y-112772051D03*
X179940000Y-118980000D03*
X180290011Y-116840000D03*
X180340000Y-121920000D03*
X180340000Y-125184500D03*
X180340000Y-135394500D03*
X182880000Y-111760000D03*
X182880000Y-121920000D03*
X182880000Y-126275500D03*
X182880000Y-127774500D03*
X183970989Y-111760000D03*
X185420000Y-113475500D03*
X185420000Y-115124500D03*
X185420000Y-117664500D03*
X185420000Y-119380000D03*
X185420000Y-121920000D03*
X185420000Y-126275500D03*
X187960000Y-121920000D03*
X187960000Y-125775980D03*
X190500000Y-121920000D03*
X193040000Y-111760000D03*
X193040000Y-129540000D03*
X196163010Y-137743010D03*
D11*
%TO.C,BT1*%
X149860000Y-119380000D03*
X149860000Y-121920000D03*
%TO.C,J1*%
X152410000Y-139700000D03*
X154950000Y-139700000D03*
X157490000Y-139700000D03*
X160030000Y-139700000D03*
X162570000Y-139700000D03*
X165110000Y-139700000D03*
X167650000Y-139700000D03*
X170190000Y-139700000D03*
X172730000Y-139700000D03*
%TO.C,J4*%
X177800000Y-139700000D03*
X180340000Y-139700000D03*
X182880000Y-139700000D03*
X185420000Y-139700000D03*
%TO.C,J2*%
X193040000Y-114300000D03*
X193040000Y-116840000D03*
X193040000Y-119380000D03*
X195580000Y-114300000D03*
X195580000Y-116840000D03*
X195580000Y-119380000D03*
%TO.C,J3*%
X195580000Y-125740000D03*
X195580000Y-128280000D03*
X195580000Y-130820000D03*
X195580000Y-133360000D03*
M02*
