%TF.GenerationSoftware,KiCad,Pcbnew,(6.0.0)*%
%TF.CreationDate,2022-01-07T00:24:45+08:00*%
%TF.ProjectId,pj4_MCU,706a345f-4d43-4552-9e6b-696361645f70,1*%
%TF.SameCoordinates,Original*%
%TF.FileFunction,Copper,L1,Top*%
%TF.FilePolarity,Positive*%
%FSLAX46Y46*%
G04 Gerber Fmt 4.6, Leading zero omitted, Abs format (unit mm)*
G04 Created by KiCad (PCBNEW (6.0.0)) date 2022-01-07 00:24:45*
%MOMM*%
%LPD*%
G01*
G04 APERTURE LIST*
G04 Aperture macros list*
%AMRoundRect*
0 Rectangle with rounded corners*
0 $1 Rounding radius*
0 $2 $3 $4 $5 $6 $7 $8 $9 X,Y pos of 4 corners*
0 Add a 4 corners polygon primitive as box body*
4,1,4,$2,$3,$4,$5,$6,$7,$8,$9,$2,$3,0*
0 Add four circle primitives for the rounded corners*
1,1,$1+$1,$2,$3*
1,1,$1+$1,$4,$5*
1,1,$1+$1,$6,$7*
1,1,$1+$1,$8,$9*
0 Add four rect primitives between the rounded corners*
20,1,$1+$1,$2,$3,$4,$5,0*
20,1,$1+$1,$4,$5,$6,$7,0*
20,1,$1+$1,$6,$7,$8,$9,0*
20,1,$1+$1,$8,$9,$2,$3,0*%
G04 Aperture macros list end*
%TA.AperFunction,SMDPad,CuDef*%
%ADD10R,3.500000X2.400000*%
%TD*%
%TA.AperFunction,SMDPad,CuDef*%
%ADD11R,2.400000X3.500000*%
%TD*%
%TA.AperFunction,SMDPad,CuDef*%
%ADD12R,0.550000X1.500000*%
%TD*%
%TA.AperFunction,SMDPad,CuDef*%
%ADD13R,1.500000X0.550000*%
%TD*%
%TA.AperFunction,SMDPad,CuDef*%
%ADD14RoundRect,0.150000X-0.825000X-0.150000X0.825000X-0.150000X0.825000X0.150000X-0.825000X0.150000X0*%
%TD*%
%TA.AperFunction,SMDPad,CuDef*%
%ADD15RoundRect,0.041300X-0.943700X-0.253700X0.943700X-0.253700X0.943700X0.253700X-0.943700X0.253700X0*%
%TD*%
%TA.AperFunction,SMDPad,CuDef*%
%ADD16RoundRect,0.250000X-0.262500X-0.450000X0.262500X-0.450000X0.262500X0.450000X-0.262500X0.450000X0*%
%TD*%
%TA.AperFunction,SMDPad,CuDef*%
%ADD17RoundRect,0.250000X0.262500X0.450000X-0.262500X0.450000X-0.262500X-0.450000X0.262500X-0.450000X0*%
%TD*%
%TA.AperFunction,ComponentPad*%
%ADD18R,1.700000X1.700000*%
%TD*%
%TA.AperFunction,ComponentPad*%
%ADD19O,1.700000X1.700000*%
%TD*%
%TA.AperFunction,SMDPad,CuDef*%
%ADD20RoundRect,0.243750X-0.243750X-0.456250X0.243750X-0.456250X0.243750X0.456250X-0.243750X0.456250X0*%
%TD*%
%TA.AperFunction,SMDPad,CuDef*%
%ADD21RoundRect,0.250000X-0.250000X-0.475000X0.250000X-0.475000X0.250000X0.475000X-0.250000X0.475000X0*%
%TD*%
%TA.AperFunction,ViaPad*%
%ADD22C,0.800000*%
%TD*%
%TA.AperFunction,Conductor*%
%ADD23C,0.250000*%
%TD*%
%TA.AperFunction,Conductor*%
%ADD24C,0.350000*%
%TD*%
G04 APERTURE END LIST*
D10*
%TO.P,Y2,1,1*%
%TO.N,Net-(Y2-Pad1)*%
X175320000Y-132080000D03*
%TO.P,Y2,2,2*%
%TO.N,Net-(U4-Pad7)*%
X170120000Y-132080000D03*
%TD*%
D11*
%TO.P,Y1,1,1*%
%TO.N,Net-(U2-Pad2)*%
X149860000Y-132140000D03*
%TO.P,Y1,2,2*%
%TO.N,Net-(U2-Pad1)*%
X149860000Y-126940000D03*
%TD*%
D12*
%TO.P,U4,32,PD2*%
%TO.N,/D2*%
X169920000Y-115080000D03*
%TO.P,U4,31,PD1*%
%TO.N,/TX*%
X170720000Y-115080000D03*
%TO.P,U4,30,PD0*%
%TO.N,/RX*%
X171520000Y-115080000D03*
%TO.P,U4,29,PC6/~{RESET}*%
%TO.N,/RESET*%
X172320000Y-115080000D03*
%TO.P,U4,28,PC5*%
%TO.N,/SCK*%
X173120000Y-115080000D03*
%TO.P,U4,27,PC4*%
%TO.N,/SDA*%
X173920000Y-115080000D03*
%TO.P,U4,26,PC3*%
%TO.N,unconnected-(U4-Pad26)*%
X174720000Y-115080000D03*
%TO.P,U4,25,PC2*%
%TO.N,unconnected-(U4-Pad25)*%
X175520000Y-115080000D03*
D13*
%TO.P,U4,24,PC1*%
%TO.N,unconnected-(U4-Pad24)*%
X177020000Y-116580000D03*
%TO.P,U4,23,PC0*%
%TO.N,unconnected-(U4-Pad23)*%
X177020000Y-117380000D03*
%TO.P,U4,22,ADC7*%
%TO.N,unconnected-(U4-Pad22)*%
X177020000Y-118180000D03*
%TO.P,U4,21,GND*%
%TO.N,GND*%
X177020000Y-118980000D03*
%TO.P,U4,20,AREF*%
%TO.N,Net-(U4-Pad20)*%
X177020000Y-119780000D03*
%TO.P,U4,19,ADC6*%
%TO.N,unconnected-(U4-Pad19)*%
X177020000Y-120580000D03*
%TO.P,U4,18,AVCC*%
%TO.N,Net-(U4-Pad18)*%
X177020000Y-121380000D03*
%TO.P,U4,17,PB5*%
%TO.N,/SCK*%
X177020000Y-122180000D03*
D12*
%TO.P,U4,16,PB4*%
%TO.N,/MISO*%
X175520000Y-123680000D03*
%TO.P,U4,15,PB3*%
%TO.N,/MOSI*%
X174720000Y-123680000D03*
%TO.P,U4,14,PB2*%
%TO.N,unconnected-(U4-Pad14)*%
X173920000Y-123680000D03*
%TO.P,U4,13,PB1*%
%TO.N,unconnected-(U4-Pad13)*%
X173120000Y-123680000D03*
%TO.P,U4,12,PB0*%
%TO.N,/D8*%
X172320000Y-123680000D03*
%TO.P,U4,11,PD7*%
%TO.N,/D7*%
X171520000Y-123680000D03*
%TO.P,U4,10,PD6*%
%TO.N,/D6*%
X170720000Y-123680000D03*
%TO.P,U4,9,PD5*%
%TO.N,/D5*%
X169920000Y-123680000D03*
D13*
%TO.P,U4,8,PB7*%
%TO.N,Net-(Y2-Pad1)*%
X168420000Y-122180000D03*
%TO.P,U4,7,PB6*%
%TO.N,Net-(U4-Pad7)*%
X168420000Y-121380000D03*
%TO.P,U4,6,VCC*%
%TO.N,unconnected-(U4-Pad6)*%
X168420000Y-120580000D03*
%TO.P,U4,5,GND*%
%TO.N,GND*%
X168420000Y-119780000D03*
%TO.P,U4,4,VCC*%
%TO.N,Net-(U4-Pad18)*%
X168420000Y-118980000D03*
%TO.P,U4,3,GND*%
%TO.N,GND*%
X168420000Y-118180000D03*
%TO.P,U4,2,PD4*%
%TO.N,/D4*%
X168420000Y-117380000D03*
%TO.P,U4,1,PD3*%
%TO.N,/D3*%
X168420000Y-116580000D03*
%TD*%
D14*
%TO.P,U3,8,VCC*%
%TO.N,/VCC*%
X162495000Y-120015000D03*
%TO.P,U3,7,WP*%
%TO.N,GND*%
X162495000Y-121285000D03*
%TO.P,U3,6,SCL*%
%TO.N,/SCK*%
X162495000Y-122555000D03*
%TO.P,U3,5,SDA*%
%TO.N,/SDA*%
X162495000Y-123825000D03*
%TO.P,U3,4,GND*%
%TO.N,GND*%
X157545000Y-123825000D03*
%TO.P,U3,3,A2*%
%TO.N,/VCC*%
X157545000Y-122555000D03*
%TO.P,U3,2,A1*%
%TO.N,GND*%
X157545000Y-121285000D03*
%TO.P,U3,1,A0*%
%TO.N,/VCC*%
X157545000Y-120015000D03*
%TD*%
D15*
%TO.P,U2,1,X1*%
%TO.N,Net-(U2-Pad1)*%
X157545000Y-127635000D03*
%TO.P,U2,2,X2*%
%TO.N,Net-(U2-Pad2)*%
X157545000Y-128905000D03*
%TO.P,U2,3,~{INTA}*%
%TO.N,Net-(U2-Pad3)*%
X157545000Y-130175000D03*
%TO.P,U2,4,GND*%
%TO.N,GND*%
X157545000Y-131445000D03*
%TO.P,U2,5,SDA*%
%TO.N,/SDA*%
X162495000Y-131445000D03*
%TO.P,U2,6,SCL*%
%TO.N,/SCK*%
X162495000Y-130175000D03*
%TO.P,U2,7,SQW/~{INT}*%
%TO.N,Net-(U2-Pad7)*%
X162495000Y-128905000D03*
%TO.P,U2,8,VCC*%
%TO.N,/VCC*%
X162495000Y-127635000D03*
%TD*%
D14*
%TO.P,U1,8,VCC*%
%TO.N,/VCC*%
X162495000Y-113030000D03*
%TO.P,U1,7,WP*%
%TO.N,GND*%
X162495000Y-114300000D03*
%TO.P,U1,6,SCL*%
%TO.N,/SCK*%
X162495000Y-115570000D03*
%TO.P,U1,5,SDA*%
%TO.N,/SDA*%
X162495000Y-116840000D03*
%TO.P,U1,4,GND*%
%TO.N,GND*%
X157545000Y-116840000D03*
%TO.P,U1,3,A2*%
%TO.N,/VCC*%
X157545000Y-115570000D03*
%TO.P,U1,2,A1*%
X157545000Y-114300000D03*
%TO.P,U1,1,A0*%
X157545000Y-113030000D03*
%TD*%
D16*
%TO.P,R7,1*%
%TO.N,Net-(D2-Pad1)*%
X181967500Y-114300000D03*
%TO.P,R7,2*%
%TO.N,GND*%
X183792500Y-114300000D03*
%TD*%
%TO.P,R6,1*%
%TO.N,/VCC*%
X187047500Y-119380000D03*
%TO.P,R6,2*%
%TO.N,/RESET*%
X188872500Y-119380000D03*
%TD*%
%TO.P,R5,1*%
%TO.N,GND*%
X187047500Y-114300000D03*
%TO.P,R5,2*%
%TO.N,/SCK*%
X188872500Y-114300000D03*
%TD*%
%TO.P,R4,1*%
%TO.N,/VCC*%
X181967500Y-119380000D03*
%TO.P,R4,2*%
%TO.N,/SDA*%
X183792500Y-119380000D03*
%TD*%
D17*
%TO.P,R3,1*%
%TO.N,/VCC*%
X183792500Y-124460000D03*
%TO.P,R3,2*%
%TO.N,/SCK*%
X181967500Y-124460000D03*
%TD*%
D16*
%TO.P,R2,2*%
%TO.N,Net-(U2-Pad7)*%
X163472500Y-134620000D03*
%TO.P,R2,1*%
%TO.N,/VCC*%
X161647500Y-134620000D03*
%TD*%
%TO.P,R1,1*%
%TO.N,/VCC*%
X156567500Y-134620000D03*
%TO.P,R1,2*%
%TO.N,Net-(U2-Pad3)*%
X158392500Y-134620000D03*
%TD*%
D18*
%TO.P,J4,1,Pin_1*%
%TO.N,GND*%
X177800000Y-139700000D03*
D19*
%TO.P,J4,2,Pin_2*%
%TO.N,/VCC*%
X180340000Y-139700000D03*
%TO.P,J4,3,Pin_3*%
%TO.N,/RX*%
X182880000Y-139700000D03*
%TO.P,J4,4,Pin_4*%
%TO.N,/TX*%
X185420000Y-139700000D03*
%TD*%
D18*
%TO.P,J3,1,Pin_1*%
%TO.N,GND*%
X195580000Y-125740000D03*
D19*
%TO.P,J3,2,Pin_2*%
%TO.N,/VCC*%
X195580000Y-128280000D03*
%TO.P,J3,3,Pin_3*%
%TO.N,/SDA*%
X195580000Y-130820000D03*
%TO.P,J3,4,Pin_4*%
%TO.N,/SCK*%
X195580000Y-133360000D03*
%TD*%
D18*
%TO.P,J2,1,Pin_1*%
%TO.N,/MISO*%
X193040000Y-114300000D03*
D19*
%TO.P,J2,2,Pin_2*%
%TO.N,/VCC*%
X195580000Y-114300000D03*
%TO.P,J2,3,Pin_3*%
%TO.N,/SCK*%
X193040000Y-116840000D03*
%TO.P,J2,4,Pin_4*%
%TO.N,/MOSI*%
X195580000Y-116840000D03*
%TO.P,J2,5,Pin_5*%
%TO.N,/RESET*%
X193040000Y-119380000D03*
%TO.P,J2,6,Pin_6*%
%TO.N,GND*%
X195580000Y-119380000D03*
%TD*%
D18*
%TO.P,J1,1,Pin_1*%
%TO.N,/D2*%
X152410000Y-139700000D03*
D19*
%TO.P,J1,2,Pin_2*%
%TO.N,/D3*%
X154950000Y-139700000D03*
%TO.P,J1,3,Pin_3*%
%TO.N,/D4*%
X157490000Y-139700000D03*
%TO.P,J1,4,Pin_4*%
%TO.N,/D5*%
X160030000Y-139700000D03*
%TO.P,J1,5,Pin_5*%
%TO.N,/D6*%
X162570000Y-139700000D03*
%TO.P,J1,6,Pin_6*%
%TO.N,/D7*%
X165110000Y-139700000D03*
%TO.P,J1,7,Pin_7*%
%TO.N,/D8*%
X167650000Y-139700000D03*
%TO.P,J1,8,Pin_8*%
%TO.N,GND*%
X170190000Y-139700000D03*
%TO.P,J1,9,Pin_9*%
%TO.N,/VCC*%
X172730000Y-139700000D03*
%TD*%
D20*
%TO.P,D2,2,A*%
%TO.N,Net-(U4-Pad18)*%
X183817500Y-109220000D03*
%TO.P,D2,1,K*%
%TO.N,Net-(D2-Pad1)*%
X181942500Y-109220000D03*
%TD*%
D21*
%TO.P,C8,2*%
%TO.N,GND*%
X178750000Y-109220000D03*
%TO.P,C8,1*%
%TO.N,Net-(U4-Pad18)*%
X176850000Y-109220000D03*
%TD*%
%TO.P,C7,2*%
%TO.N,Net-(U4-Pad20)*%
X188910000Y-124460000D03*
%TO.P,C7,1*%
%TO.N,GND*%
X187010000Y-124460000D03*
%TD*%
%TO.P,C6,1*%
%TO.N,Net-(Y2-Pad1)*%
X171770000Y-109220000D03*
%TO.P,C6,2*%
%TO.N,GND*%
X173670000Y-109220000D03*
%TD*%
%TO.P,C5,1*%
%TO.N,GND*%
X181930000Y-129540000D03*
%TO.P,C5,2*%
%TO.N,Net-(U4-Pad7)*%
X183830000Y-129540000D03*
%TD*%
%TO.P,C1,2*%
%TO.N,GND*%
X168590000Y-109220000D03*
%TO.P,C1,1*%
%TO.N,/VCC*%
X166690000Y-109220000D03*
%TD*%
D18*
%TO.P,BT1,1,+*%
%TO.N,Net-(U4-Pad18)*%
X149860000Y-119380000D03*
D19*
%TO.P,BT1,2,-*%
%TO.N,GND*%
X149860000Y-121920000D03*
%TD*%
D22*
%TO.N,/SDA*%
X196163010Y-137743010D03*
X185420000Y-119380000D03*
X185420000Y-113475500D03*
X183970989Y-111760000D03*
%TO.N,/MISO*%
X185420000Y-117664500D03*
X182880000Y-121920000D03*
%TO.N,/SDA*%
X178524500Y-112772051D03*
%TO.N,/RESET*%
X178117859Y-115024500D03*
X173845123Y-117301792D03*
%TO.N,Net-(Y2-Pad1)*%
X171962299Y-112517701D03*
X171179503Y-111035500D03*
X170496128Y-113100726D03*
X175260000Y-116445674D03*
%TO.N,/SCK*%
X165374980Y-119380000D03*
X164980868Y-122696693D03*
%TO.N,/SDA*%
X165100000Y-121025444D03*
%TO.N,Net-(U4-Pad18)*%
X165824500Y-117264386D03*
%TO.N,/VCC*%
X154940000Y-120154500D03*
X152400000Y-122109500D03*
%TO.N,Net-(U2-Pad7)*%
X160020000Y-137160000D03*
X160603010Y-131496990D03*
%TO.N,Net-(U2-Pad3)*%
X152400000Y-132080000D03*
X152400000Y-135139011D03*
%TO.N,/D8*%
X171995500Y-127000000D03*
%TO.N,/D7*%
X170180000Y-127000000D03*
%TO.N,/D6*%
X167640000Y-127000000D03*
%TO.N,/D5*%
X167640000Y-124460000D03*
%TO.N,/TX*%
X173732051Y-119367452D03*
%TO.N,/D3*%
X170180000Y-116655500D03*
%TO.N,/D4*%
X171271000Y-119380000D03*
%TO.N,/D2*%
X167640000Y-113575500D03*
X170180000Y-108495500D03*
X170180000Y-111035500D03*
%TO.N,/VCC*%
X154940000Y-116840000D03*
X154940000Y-114300000D03*
%TO.N,/SCK*%
X172720000Y-113275386D03*
%TO.N,GND*%
X187960000Y-125775980D03*
X190500000Y-121920000D03*
X180340000Y-135394500D03*
X182880000Y-127774500D03*
%TO.N,/SDA*%
X162560000Y-124460000D03*
X164225451Y-116689951D03*
X173232300Y-111247701D03*
%TO.N,GND*%
X180290011Y-116840000D03*
X179940000Y-118980000D03*
%TO.N,/MISO*%
X193040000Y-111760000D03*
X180340000Y-125184500D03*
%TO.N,/SCK*%
X182880000Y-126275500D03*
X185420000Y-115124500D03*
%TO.N,Net-(U4-Pad20)*%
X185420000Y-126275500D03*
X175260000Y-119780000D03*
%TO.N,Net-(U4-Pad18)*%
X180340000Y-121920000D03*
%TO.N,/RX*%
X172720000Y-119380000D03*
%TO.N,/SDA*%
X185420000Y-121920000D03*
X193040000Y-129540000D03*
%TO.N,/VCC*%
X187960000Y-121920000D03*
%TO.N,Net-(U4-Pad18)*%
X182880000Y-111760000D03*
X177800000Y-111760000D03*
%TD*%
D23*
%TO.N,/SDA*%
X193040000Y-134620000D02*
X193040000Y-129540000D01*
X196163010Y-137743010D02*
X193040000Y-134620000D01*
D24*
%TO.N,/VCC*%
X187047500Y-121007500D02*
X187960000Y-121920000D01*
X187047500Y-119380000D02*
X187047500Y-121007500D01*
D23*
%TO.N,/SDA*%
X183792500Y-119380000D02*
X185420000Y-119380000D01*
%TO.N,/MISO*%
X182880000Y-118767507D02*
X182880000Y-121920000D01*
X183292027Y-118355480D02*
X182880000Y-118767507D01*
X184292973Y-118355480D02*
X183292027Y-118355480D01*
X185420000Y-117664500D02*
X184983953Y-117664500D01*
X184983953Y-117664500D02*
X184292973Y-118355480D01*
%TO.N,/SDA*%
X185420000Y-111760000D02*
X185420000Y-113475500D01*
X183970989Y-111760000D02*
X185420000Y-111760000D01*
X183792500Y-121920000D02*
X183792500Y-119380000D01*
X185420000Y-121920000D02*
X183792500Y-121920000D01*
D24*
%TO.N,GND*%
X183792500Y-114300000D02*
X187047500Y-114300000D01*
X190500000Y-110847500D02*
X187047500Y-114300000D01*
X190500000Y-106855020D02*
X190500000Y-110847500D01*
X180164980Y-106855020D02*
X190500000Y-106855020D01*
X178750000Y-108270000D02*
X180164980Y-106855020D01*
X178750000Y-109220000D02*
X178750000Y-108270000D01*
D23*
%TO.N,/RESET*%
X179615500Y-115024500D02*
X178117859Y-115024500D01*
X180340000Y-114300000D02*
X179615500Y-115024500D01*
X180346763Y-114306763D02*
X180340000Y-114300000D01*
X188872500Y-117752500D02*
X188872500Y-119380000D01*
X187410481Y-116290481D02*
X188872500Y-117752500D01*
X182652381Y-116290481D02*
X187410481Y-116290481D01*
X181328351Y-117614511D02*
X182652381Y-116290481D01*
X179969197Y-117614511D02*
X181328351Y-117614511D01*
X179515500Y-117160814D02*
X179969197Y-117614511D01*
X179515500Y-115138026D02*
X179515500Y-117160814D01*
X180346763Y-114306763D02*
X179515500Y-115138026D01*
X180353525Y-114300000D02*
X180346763Y-114306763D01*
%TO.N,/SDA*%
X177787437Y-112772051D02*
X178524500Y-112772051D01*
X177075489Y-112060103D02*
X177787437Y-112772051D01*
X177075489Y-112060103D02*
X177075489Y-111671207D01*
X177075489Y-111671207D02*
X176651983Y-111247701D01*
X176651983Y-111247701D02*
X173232300Y-111247701D01*
%TO.N,/RESET*%
X173541792Y-117301792D02*
X173845123Y-117301792D01*
X172320000Y-116080000D02*
X173541792Y-117301792D01*
X172320000Y-115080000D02*
X172320000Y-116080000D01*
%TO.N,Net-(Y2-Pad1)*%
X171944117Y-122180000D02*
X168420000Y-122180000D01*
X175945489Y-117578422D02*
X174456562Y-119067349D01*
X174456562Y-119667555D02*
X171944117Y-122180000D01*
X175260000Y-116445674D02*
X175945489Y-116445674D01*
X175945489Y-116445674D02*
X175945489Y-117578422D01*
X174456562Y-119067349D02*
X174456562Y-119667555D01*
X171962299Y-112517701D02*
X171379274Y-113100726D01*
X171379274Y-113100726D02*
X170496128Y-113100726D01*
X171179503Y-109810497D02*
X171179503Y-111035500D01*
X171770000Y-109220000D02*
X171179503Y-109810497D01*
%TO.N,/D2*%
X170180000Y-108495500D02*
X170180000Y-111035500D01*
%TO.N,Net-(U4-Pad18)*%
X177800000Y-111760000D02*
X176850000Y-110810000D01*
X176850000Y-110810000D02*
X176850000Y-109220000D01*
D24*
%TO.N,/VCC*%
X154940000Y-120154500D02*
X154940000Y-116840000D01*
X154940000Y-116840000D02*
X154940000Y-117410000D01*
X154940000Y-117410000D02*
X157545000Y-120015000D01*
%TO.N,GND*%
X156313964Y-116840000D02*
X157545000Y-116840000D01*
X152400000Y-112926036D02*
X156313964Y-116840000D01*
X152400000Y-120650000D02*
X152400000Y-112926036D01*
X153035000Y-121285000D02*
X152400000Y-120650000D01*
%TO.N,/VCC*%
X158944520Y-123437027D02*
X158062493Y-122555000D01*
X158944520Y-124212973D02*
X158944520Y-123437027D01*
X158607973Y-124549520D02*
X158944520Y-124212973D01*
X152400000Y-122109500D02*
X154840020Y-124549520D01*
X154840020Y-124549520D02*
X158607973Y-124549520D01*
D23*
%TO.N,Net-(U4-Pad7)*%
X167345489Y-121580489D02*
X167545978Y-121380000D01*
X167545978Y-121380000D02*
X168420000Y-121380000D01*
X165100000Y-129540000D02*
X165100000Y-124864283D01*
X167345489Y-122618794D02*
X167345489Y-121580489D01*
X170120000Y-132080000D02*
X167640000Y-132080000D01*
X167640000Y-132080000D02*
X165100000Y-129540000D01*
X165100000Y-124864283D02*
X167345489Y-122618794D01*
%TO.N,Net-(Y2-Pad1)*%
X166915489Y-123684511D02*
X168420000Y-122180000D01*
X166915489Y-124924511D02*
X166915489Y-123684511D01*
X165549520Y-126290480D02*
X166915489Y-124924511D01*
X172780000Y-129540000D02*
X167640000Y-129540000D01*
X167640000Y-129540000D02*
X165549520Y-127449520D01*
X175320000Y-132080000D02*
X172780000Y-129540000D01*
X165549520Y-127449520D02*
X165549520Y-126290480D01*
%TO.N,/SCK*%
X165286198Y-119380000D02*
X165374980Y-119380000D01*
X165193099Y-119286901D02*
X165286198Y-119380000D01*
%TO.N,/SDA*%
X164650480Y-117114980D02*
X164225451Y-116689951D01*
X164650480Y-120964822D02*
X164650480Y-117114980D01*
X164711102Y-121025444D02*
X164650480Y-120964822D01*
X165100000Y-121025444D02*
X164711102Y-121025444D01*
%TO.N,/SCK*%
X162636693Y-122696693D02*
X164980868Y-122696693D01*
X162495000Y-122555000D02*
X162636693Y-122696693D01*
D24*
%TO.N,GND*%
X169920000Y-118580000D02*
X169920000Y-119380000D01*
X169520000Y-118180000D02*
X169920000Y-118580000D01*
X168420000Y-118180000D02*
X169520000Y-118180000D01*
X169920000Y-119380000D02*
X170180000Y-119380000D01*
X169520000Y-119780000D02*
X169920000Y-119380000D01*
X168420000Y-119780000D02*
X169520000Y-119780000D01*
X165441525Y-121849955D02*
X167511480Y-119780000D01*
X164758475Y-121849955D02*
X165441525Y-121849955D01*
X164193520Y-121285000D02*
X164758475Y-121849955D01*
X167511480Y-119780000D02*
X168420000Y-119780000D01*
X162495000Y-121285000D02*
X164193520Y-121285000D01*
D23*
%TO.N,/SCK*%
X165099989Y-119193791D02*
X165193099Y-119286901D01*
X165099989Y-116539875D02*
X165099989Y-119193791D01*
X164130114Y-115570000D02*
X165099989Y-116539875D01*
X162495000Y-115570000D02*
X164130114Y-115570000D01*
X162495000Y-122555000D02*
X163195000Y-122555000D01*
%TO.N,Net-(U4-Pad18)*%
X165824500Y-117264386D02*
X167690603Y-119130489D01*
D24*
%TO.N,/VCC*%
X159385000Y-123877507D02*
X159385000Y-127635000D01*
X158062493Y-122555000D02*
X159385000Y-123877507D01*
X157545000Y-122555000D02*
X158062493Y-122555000D01*
D23*
%TO.N,Net-(U2-Pad7)*%
X163472500Y-134620000D02*
X160932500Y-137160000D01*
X160932500Y-137160000D02*
X160020000Y-137160000D01*
D24*
%TO.N,/VCC*%
X165100000Y-132080000D02*
X165452989Y-132432989D01*
X165452989Y-132432989D02*
X165452989Y-138425489D01*
X164187500Y-132080000D02*
X165100000Y-132080000D01*
X161647500Y-134620000D02*
X164187500Y-132080000D01*
X165452989Y-138425489D02*
X171455489Y-138425489D01*
X171455489Y-138425489D02*
X172730000Y-139700000D01*
D23*
%TO.N,Net-(U2-Pad7)*%
X160020000Y-131302862D02*
X160408569Y-131691431D01*
X160020000Y-130935253D02*
X160020000Y-131302862D01*
X162050253Y-128905000D02*
X160020000Y-130935253D01*
X162495000Y-128905000D02*
X162050253Y-128905000D01*
X160408569Y-131691431D02*
X160603010Y-131496990D01*
D24*
%TO.N,/VCC*%
X160020000Y-132080000D02*
X158954520Y-131014520D01*
X159935480Y-132164520D02*
X160020000Y-132080000D01*
X157673330Y-132164520D02*
X159935480Y-132164520D01*
D23*
%TO.N,Net-(U2-Pad3)*%
X154305000Y-130175000D02*
X152400000Y-132080000D01*
X157545000Y-130175000D02*
X154305000Y-130175000D01*
X152400000Y-134864031D02*
X152400000Y-135139011D01*
X153230489Y-135694520D02*
X152400000Y-134864031D01*
X157317980Y-135694520D02*
X153230489Y-135694520D01*
X158392500Y-134620000D02*
X157317980Y-135694520D01*
D24*
%TO.N,/VCC*%
X158954520Y-127635000D02*
X162495000Y-127635000D01*
X158954520Y-131014520D02*
X158954520Y-127635000D01*
X161085480Y-133145480D02*
X158954520Y-131014520D01*
X161085480Y-134057980D02*
X161085480Y-133145480D01*
X161647500Y-134620000D02*
X161085480Y-134057980D01*
X155892675Y-133945175D02*
X157673330Y-132164520D01*
X156567500Y-134620000D02*
X155892675Y-133945175D01*
%TO.N,GND*%
X147320000Y-137160000D02*
X147320000Y-132080000D01*
X168915489Y-140974511D02*
X151134511Y-140974511D01*
X151134511Y-140974511D02*
X147320000Y-137160000D01*
X170190000Y-139700000D02*
X168915489Y-140974511D01*
X148235489Y-134314511D02*
X147320000Y-133399022D01*
X154675489Y-134314511D02*
X148235489Y-134314511D01*
X157545000Y-131445000D02*
X154675489Y-134314511D01*
X147320000Y-133399022D02*
X147320000Y-124460000D01*
X147320000Y-124460000D02*
X149860000Y-121920000D01*
D23*
%TO.N,/D8*%
X171995500Y-127000000D02*
X172320000Y-126675500D01*
X172320000Y-126675500D02*
X172320000Y-123680000D01*
%TO.N,/D7*%
X170180000Y-127000000D02*
X170180000Y-125855718D01*
X171520000Y-123680000D02*
X171520000Y-124515718D01*
X171520000Y-124515718D02*
X170180000Y-125855718D01*
%TO.N,/D6*%
X168400000Y-127000000D02*
X167640000Y-127000000D01*
X170720000Y-124680000D02*
X168400000Y-127000000D01*
X170720000Y-123680000D02*
X170720000Y-124680000D01*
%TO.N,/D5*%
X168420000Y-123680000D02*
X167640000Y-124460000D01*
X169920000Y-123680000D02*
X168420000Y-123680000D01*
%TO.N,/TX*%
X171995500Y-119680114D02*
X171995500Y-118655500D01*
X173732051Y-119392563D02*
X173020103Y-120104511D01*
X173732051Y-119367452D02*
X173732051Y-119392563D01*
X173020103Y-120104511D02*
X172419897Y-120104511D01*
X172419897Y-120104511D02*
X171995500Y-119680114D01*
%TO.N,/RX*%
X171520000Y-115954022D02*
X171520000Y-115080000D01*
X172720000Y-117154022D02*
X171520000Y-115954022D01*
X172720000Y-119380000D02*
X172720000Y-117154022D01*
%TO.N,/D3*%
X169920000Y-116580000D02*
X168420000Y-116580000D01*
%TO.N,/D4*%
X171417418Y-117380000D02*
X168420000Y-117380000D01*
X171271000Y-117526418D02*
X171417418Y-117380000D01*
X171271000Y-119380000D02*
X171271000Y-117526418D01*
%TO.N,Net-(U4-Pad20)*%
X175260000Y-119780000D02*
X177020000Y-119780000D01*
%TO.N,/TX*%
X170720000Y-115789740D02*
X170720000Y-115080000D01*
X171995500Y-117065240D02*
X170720000Y-115789740D01*
X171995500Y-118804906D02*
X171995500Y-117065240D01*
%TO.N,/D2*%
X169920000Y-115080000D02*
X169144500Y-115080000D01*
X169144500Y-115080000D02*
X167640000Y-113575500D01*
D24*
%TO.N,/VCC*%
X156210000Y-115570000D02*
X154940000Y-114300000D01*
X157545000Y-115570000D02*
X156210000Y-115570000D01*
%TO.N,GND*%
X163012493Y-114300000D02*
X162495000Y-114300000D01*
X164500480Y-112812013D02*
X163012493Y-114300000D01*
X167219395Y-110369520D02*
X166160605Y-110369520D01*
X167614520Y-109974395D02*
X167219395Y-110369520D01*
X167614520Y-109220000D02*
X167614520Y-109974395D01*
X165610605Y-109819520D02*
X164500480Y-109819520D01*
X164500480Y-109819520D02*
X164500480Y-112812013D01*
X168590000Y-109220000D02*
X167614520Y-109220000D01*
X166160605Y-110369520D02*
X165610605Y-109819520D01*
%TO.N,/VCC*%
X162495000Y-109285000D02*
X162495000Y-113030000D01*
X162560000Y-109220000D02*
X162495000Y-109285000D01*
X166690000Y-109220000D02*
X162560000Y-109220000D01*
D23*
%TO.N,Net-(U4-Pad18)*%
X168269511Y-119130489D02*
X168420000Y-118980000D01*
X167690603Y-119130489D02*
X168269511Y-119130489D01*
%TO.N,/SCK*%
X167640000Y-111760000D02*
X163830000Y-115570000D01*
X172919511Y-111959511D02*
X172720000Y-111760000D01*
X163830000Y-115570000D02*
X162495000Y-115570000D01*
X172720000Y-112159022D02*
X172720000Y-113275386D01*
X172919511Y-111959511D02*
X172720000Y-112159022D01*
X172720000Y-111760000D02*
X167640000Y-111760000D01*
X173120000Y-113675386D02*
X172720000Y-113275386D01*
X173120000Y-115080000D02*
X173120000Y-113675386D01*
D24*
%TO.N,/VCC*%
X181967500Y-117752500D02*
X181967500Y-119380000D01*
X182880000Y-116840000D02*
X181967500Y-117752500D01*
X186652514Y-116840000D02*
X182880000Y-116840000D01*
X187047500Y-117234986D02*
X186652514Y-116840000D01*
X187047500Y-119380000D02*
X187047500Y-117234986D01*
%TO.N,GND*%
X187960000Y-125410000D02*
X187960000Y-125775980D01*
X187010000Y-124460000D02*
X187960000Y-125410000D01*
D23*
%TO.N,/MOSI*%
X174720000Y-124554022D02*
X174720000Y-123680000D01*
X177165978Y-127000000D02*
X174720000Y-124554022D01*
X190500000Y-127000000D02*
X177165978Y-127000000D01*
X194355489Y-118064511D02*
X194355489Y-123144511D01*
X195580000Y-116840000D02*
X194355489Y-118064511D01*
X194355489Y-123144511D02*
X190500000Y-127000000D01*
%TO.N,Net-(U4-Pad20)*%
X188910000Y-126050000D02*
X188910000Y-124460000D01*
X185420000Y-126275500D02*
X185694980Y-126550480D01*
X185694980Y-126550480D02*
X188409520Y-126550480D01*
X188409520Y-126550480D02*
X188910000Y-126050000D01*
D24*
%TO.N,GND*%
X189550000Y-121920000D02*
X190500000Y-121920000D01*
X187010000Y-124460000D02*
X189550000Y-121920000D01*
X180340000Y-135169520D02*
X180340000Y-135394500D01*
X177800000Y-137709520D02*
X180340000Y-135169520D01*
X177800000Y-139700000D02*
X177800000Y-137709520D01*
X182880000Y-127549520D02*
X182880000Y-127774500D01*
X181930000Y-127950000D02*
X182330480Y-127549520D01*
X181930000Y-129540000D02*
X181930000Y-127950000D01*
X182330480Y-127549520D02*
X182880000Y-127549520D01*
D23*
%TO.N,/SCK*%
X160020000Y-124460000D02*
X161925000Y-122555000D01*
X161925000Y-122555000D02*
X162495000Y-122555000D01*
X160744511Y-125184511D02*
X160020000Y-124460000D01*
X163854520Y-126479031D02*
X162560000Y-125184511D01*
X163854520Y-129260227D02*
X163854520Y-126479031D01*
X162560000Y-125184511D02*
X160744511Y-125184511D01*
X162939747Y-130175000D02*
X163854520Y-129260227D01*
X162495000Y-130175000D02*
X162939747Y-130175000D01*
%TO.N,/SDA*%
X164650480Y-129734267D02*
X164650480Y-126550480D01*
X164650480Y-126550480D02*
X162560000Y-124460000D01*
X162939747Y-131445000D02*
X164650480Y-129734267D01*
X162495000Y-131445000D02*
X162939747Y-131445000D01*
X162495000Y-124395000D02*
X162560000Y-124460000D01*
X162495000Y-123825000D02*
X162495000Y-124395000D01*
X164075402Y-116840000D02*
X164225451Y-116689951D01*
X162495000Y-116840000D02*
X164075402Y-116840000D01*
X173037859Y-111442142D02*
X173232300Y-111247701D01*
X173920000Y-112324283D02*
X173037859Y-111442142D01*
X173920000Y-115080000D02*
X173920000Y-112324283D01*
%TO.N,/SCK*%
X173120000Y-115080000D02*
X172919511Y-114879511D01*
D24*
%TO.N,GND*%
X181252500Y-116840000D02*
X183792500Y-114300000D01*
X180290011Y-116840000D02*
X181252500Y-116840000D01*
X177020000Y-118980000D02*
X179940000Y-118980000D01*
D23*
%TO.N,/MISO*%
X193040000Y-114300000D02*
X193040000Y-111760000D01*
X180340000Y-124909520D02*
X180340000Y-125184500D01*
X177482141Y-124777859D02*
X177613803Y-124909520D01*
X177613803Y-124909520D02*
X180340000Y-124909520D01*
X176384282Y-123680000D02*
X177482141Y-124777859D01*
X175520000Y-123680000D02*
X176384282Y-123680000D01*
%TO.N,/SCK*%
X182880000Y-126275500D02*
X182880000Y-125372500D01*
X182880000Y-125372500D02*
X181967500Y-124460000D01*
X185420000Y-115374520D02*
X185420000Y-115124500D01*
X187797980Y-115374520D02*
X185420000Y-115374520D01*
X188872500Y-114300000D02*
X187797980Y-115374520D01*
%TO.N,/SDA*%
X194320000Y-130820000D02*
X195580000Y-130820000D01*
X193040000Y-129540000D02*
X194320000Y-130820000D01*
%TO.N,Net-(U4-Pad18)*%
X178094511Y-121920000D02*
X180340000Y-121920000D01*
X177020000Y-121380000D02*
X177894022Y-121380000D01*
X177894022Y-121380000D02*
X178094511Y-121580489D01*
X178094511Y-121580489D02*
X178094511Y-121920000D01*
%TO.N,/SCK*%
X194214511Y-115665489D02*
X193040000Y-116840000D01*
X196804511Y-116403501D02*
X196066499Y-115665489D01*
X196066499Y-115665489D02*
X194214511Y-115665489D01*
X196804511Y-132135489D02*
X196804511Y-116403501D01*
X195580000Y-133360000D02*
X196804511Y-132135489D01*
%TO.N,Net-(U4-Pad18)*%
X182880000Y-110157500D02*
X182880000Y-111760000D01*
X183817500Y-109220000D02*
X182880000Y-110157500D01*
D24*
%TO.N,GND*%
X177975020Y-106855020D02*
X177800000Y-106855020D01*
X178750000Y-107630000D02*
X177975020Y-106855020D01*
X178750000Y-109220000D02*
X178750000Y-107630000D01*
X176034980Y-106855020D02*
X177800000Y-106855020D01*
X173670000Y-109220000D02*
X176034980Y-106855020D01*
X172720000Y-106855020D02*
X173670000Y-107805020D01*
X169364980Y-106855020D02*
X172720000Y-106855020D01*
X168590000Y-107630000D02*
X169364980Y-106855020D01*
X168590000Y-109220000D02*
X168590000Y-107630000D01*
X173670000Y-107805020D02*
X173670000Y-109220000D01*
D23*
%TO.N,/SCK*%
X190500000Y-114300000D02*
X193040000Y-116840000D01*
X188872500Y-114300000D02*
X190500000Y-114300000D01*
D24*
%TO.N,/VCC*%
X181967500Y-122635000D02*
X181967500Y-119380000D01*
X183792500Y-124460000D02*
X181967500Y-122635000D01*
D23*
%TO.N,/SCK*%
X177020000Y-123680000D02*
X177020000Y-122180000D01*
X177800000Y-124460000D02*
X177020000Y-123680000D01*
X181967500Y-124460000D02*
X177800000Y-124460000D01*
%TO.N,/RESET*%
X188872500Y-119380000D02*
X193040000Y-119380000D01*
%TO.N,*%
X182880000Y-124460000D02*
X182854520Y-124460000D01*
%TO.N,Net-(D2-Pad1)*%
X181942500Y-114275000D02*
X181942500Y-109220000D01*
X181967500Y-114300000D02*
X181942500Y-114275000D01*
%TO.N,Net-(U4-Pad7)*%
X182880000Y-134620000D02*
X170180000Y-134620000D01*
X183830000Y-133670000D02*
X182880000Y-134620000D01*
X183830000Y-129540000D02*
X183830000Y-133670000D01*
X170180000Y-134620000D02*
X170120000Y-134560000D01*
X170120000Y-134560000D02*
X170120000Y-132080000D01*
%TO.N,Net-(U2-Pad2)*%
X153095000Y-128905000D02*
X157545000Y-128905000D01*
X149860000Y-132140000D02*
X153095000Y-128905000D01*
%TO.N,Net-(U2-Pad1)*%
X156850000Y-126940000D02*
X157545000Y-127635000D01*
X149860000Y-126940000D02*
X156850000Y-126940000D01*
%TO.N,Net-(U4-Pad18)*%
X176145978Y-121380000D02*
X177020000Y-121380000D01*
X149860000Y-119380000D02*
X150260000Y-118980000D01*
D24*
%TO.N,/VCC*%
X157545000Y-113030000D02*
X162495000Y-113030000D01*
X162495000Y-120015000D02*
X157545000Y-120015000D01*
%TO.N,GND*%
X155575000Y-123825000D02*
X153035000Y-121285000D01*
X157545000Y-123825000D02*
X155575000Y-123825000D01*
X150495000Y-121285000D02*
X153035000Y-121285000D01*
X153035000Y-121285000D02*
X157545000Y-121285000D01*
X162495000Y-121285000D02*
X157545000Y-121285000D01*
X158932507Y-116840000D02*
X157545000Y-116840000D01*
X161472507Y-114300000D02*
X158932507Y-116840000D01*
X162495000Y-114300000D02*
X161472507Y-114300000D01*
%TO.N,/VCC*%
X157545000Y-115570000D02*
X157545000Y-114300000D01*
X157545000Y-113030000D02*
X157545000Y-114300000D01*
%TO.N,GND*%
X149860000Y-121920000D02*
X150495000Y-121285000D01*
%TD*%
%TA.AperFunction,Conductor*%
%TO.N,/VCC*%
G36*
X167912439Y-107208002D02*
G01*
X167958932Y-107261658D01*
X167969036Y-107331932D01*
X167961705Y-107359785D01*
X167960852Y-107361972D01*
X167958306Y-107368029D01*
X167932986Y-107424105D01*
X167931600Y-107431582D01*
X167930090Y-107436402D01*
X167927118Y-107446835D01*
X167925870Y-107451696D01*
X167923111Y-107458772D01*
X167921487Y-107471110D01*
X167915082Y-107519762D01*
X167914050Y-107526278D01*
X167902839Y-107586767D01*
X167903276Y-107594347D01*
X167903276Y-107594348D01*
X167906291Y-107646642D01*
X167906500Y-107653894D01*
X167906500Y-108054317D01*
X167886498Y-108122438D01*
X167865145Y-108146016D01*
X167865652Y-108146522D01*
X167740695Y-108271697D01*
X167737898Y-108276235D01*
X167680647Y-108316824D01*
X167609724Y-108320054D01*
X167548313Y-108284428D01*
X167540938Y-108275932D01*
X167532902Y-108265793D01*
X167418171Y-108151261D01*
X167406760Y-108142249D01*
X167268757Y-108057184D01*
X167255576Y-108051037D01*
X167101290Y-107999862D01*
X167087914Y-107996995D01*
X166993562Y-107987328D01*
X166987145Y-107987000D01*
X166962115Y-107987000D01*
X166946876Y-107991475D01*
X166945671Y-107992865D01*
X166944000Y-108000548D01*
X166944000Y-109068076D01*
X166940204Y-109098771D01*
X166931429Y-109133706D01*
X166931389Y-109141304D01*
X166931389Y-109141306D01*
X166931226Y-109172428D01*
X166931180Y-109173731D01*
X166931020Y-109174947D01*
X166931020Y-109211559D01*
X166931018Y-109212219D01*
X166930713Y-109270577D01*
X166930563Y-109299137D01*
X166930916Y-109300608D01*
X166931020Y-109302410D01*
X166931020Y-109348000D01*
X166911018Y-109416121D01*
X166857362Y-109462614D01*
X166805020Y-109474000D01*
X166562000Y-109474000D01*
X166493879Y-109453998D01*
X166447386Y-109400342D01*
X166436000Y-109348000D01*
X166436000Y-108005116D01*
X166431525Y-107989877D01*
X166430135Y-107988672D01*
X166422452Y-107987001D01*
X166392905Y-107987001D01*
X166386386Y-107987338D01*
X166290794Y-107997257D01*
X166277400Y-108000149D01*
X166123216Y-108051588D01*
X166110038Y-108057761D01*
X165972193Y-108143063D01*
X165960792Y-108152099D01*
X165846261Y-108266829D01*
X165837249Y-108278240D01*
X165752184Y-108416243D01*
X165746037Y-108429424D01*
X165694862Y-108583710D01*
X165691995Y-108597086D01*
X165682328Y-108691438D01*
X165682000Y-108697855D01*
X165682000Y-109010020D01*
X165661998Y-109078141D01*
X165608342Y-109124634D01*
X165556000Y-109136020D01*
X164508921Y-109136020D01*
X164508261Y-109136018D01*
X164508151Y-109136017D01*
X164421343Y-109135563D01*
X164386292Y-109143978D01*
X164372036Y-109146544D01*
X164336245Y-109150875D01*
X164306499Y-109162115D01*
X164291404Y-109166759D01*
X164260481Y-109174183D01*
X164253737Y-109177664D01*
X164253734Y-109177665D01*
X164228453Y-109190714D01*
X164215211Y-109196610D01*
X164181491Y-109209351D01*
X164175233Y-109213652D01*
X164175231Y-109213653D01*
X164155301Y-109227351D01*
X164141722Y-109235478D01*
X164120225Y-109246573D01*
X164120222Y-109246575D01*
X164113474Y-109250058D01*
X164107752Y-109255050D01*
X164107750Y-109255051D01*
X164086308Y-109273756D01*
X164074849Y-109282644D01*
X164051417Y-109298749D01*
X164051415Y-109298751D01*
X164045154Y-109303054D01*
X164040105Y-109308721D01*
X164040098Y-109308727D01*
X164024013Y-109326781D01*
X164012766Y-109337911D01*
X163994536Y-109353814D01*
X163994532Y-109353818D01*
X163988810Y-109358810D01*
X163968082Y-109388303D01*
X163959080Y-109399660D01*
X163935102Y-109426572D01*
X163920581Y-109453998D01*
X163920230Y-109454661D01*
X163911963Y-109468152D01*
X163893685Y-109494159D01*
X163890927Y-109501234D01*
X163890925Y-109501237D01*
X163880595Y-109527734D01*
X163874554Y-109540928D01*
X163857691Y-109572776D01*
X163855842Y-109580138D01*
X163849946Y-109603610D01*
X163845136Y-109618680D01*
X163833591Y-109648292D01*
X163832600Y-109655822D01*
X163828888Y-109684017D01*
X163826172Y-109698260D01*
X163817389Y-109733226D01*
X163817349Y-109740824D01*
X163817349Y-109740826D01*
X163817186Y-109771948D01*
X163817140Y-109773251D01*
X163816980Y-109774467D01*
X163816980Y-109811079D01*
X163816978Y-109811739D01*
X163816772Y-109851166D01*
X163816523Y-109898657D01*
X163816876Y-109900128D01*
X163816980Y-109901930D01*
X163816980Y-112188555D01*
X163796978Y-112256676D01*
X163743322Y-112303169D01*
X163673048Y-112313273D01*
X163626841Y-112297008D01*
X163590227Y-112275355D01*
X163575790Y-112269107D01*
X163429935Y-112226731D01*
X163417333Y-112224430D01*
X163388916Y-112222193D01*
X163383986Y-112222000D01*
X162767115Y-112222000D01*
X162751876Y-112226475D01*
X162750671Y-112227865D01*
X162749000Y-112235548D01*
X162749000Y-113158000D01*
X162728998Y-113226121D01*
X162675342Y-113272614D01*
X162623000Y-113284000D01*
X161033122Y-113284000D01*
X161019591Y-113287973D01*
X161018456Y-113295871D01*
X161059107Y-113435790D01*
X161065352Y-113450221D01*
X161130799Y-113560887D01*
X161148258Y-113629704D01*
X161125741Y-113697035D01*
X161099048Y-113724989D01*
X161073198Y-113744824D01*
X161067873Y-113748693D01*
X161017181Y-113783534D01*
X161012130Y-113789203D01*
X161012129Y-113789204D01*
X160977275Y-113828323D01*
X160972294Y-113833598D01*
X159018797Y-115787095D01*
X158956485Y-115821121D01*
X158929702Y-115824000D01*
X157417000Y-115824000D01*
X157348879Y-115803998D01*
X157302386Y-115750342D01*
X157291000Y-115698000D01*
X157291000Y-115297885D01*
X157799000Y-115297885D01*
X157803475Y-115313124D01*
X157804865Y-115314329D01*
X157812548Y-115316000D01*
X159006878Y-115316000D01*
X159020409Y-115312027D01*
X159021544Y-115304129D01*
X158980893Y-115164210D01*
X158974648Y-115149779D01*
X158898088Y-115020322D01*
X158891811Y-115012230D01*
X158865861Y-114946146D01*
X158879759Y-114876523D01*
X158891811Y-114857770D01*
X158898088Y-114849678D01*
X158974648Y-114720221D01*
X158980893Y-114705790D01*
X159019939Y-114571395D01*
X159019899Y-114557294D01*
X159012630Y-114554000D01*
X157817115Y-114554000D01*
X157801876Y-114558475D01*
X157800671Y-114559865D01*
X157799000Y-114567548D01*
X157799000Y-115297885D01*
X157291000Y-115297885D01*
X157291000Y-114572115D01*
X157286525Y-114556876D01*
X157285135Y-114555671D01*
X157277452Y-114554000D01*
X156083122Y-114554000D01*
X156069591Y-114557973D01*
X156068456Y-114565871D01*
X156109107Y-114705790D01*
X156115352Y-114720221D01*
X156191912Y-114849678D01*
X156198189Y-114857770D01*
X156224139Y-114923854D01*
X156210241Y-114993477D01*
X156198189Y-115012230D01*
X156191912Y-115020322D01*
X156115352Y-115149779D01*
X156109107Y-115164210D01*
X156066731Y-115310065D01*
X156064430Y-115322667D01*
X156063900Y-115329401D01*
X156038617Y-115395743D01*
X155981480Y-115437885D01*
X155910630Y-115442446D01*
X155849193Y-115408614D01*
X153736450Y-113295871D01*
X156068456Y-113295871D01*
X156109107Y-113435790D01*
X156115352Y-113450221D01*
X156191912Y-113579678D01*
X156198189Y-113587770D01*
X156224139Y-113653854D01*
X156210241Y-113723477D01*
X156198189Y-113742230D01*
X156191912Y-113750322D01*
X156115352Y-113879779D01*
X156109107Y-113894210D01*
X156070061Y-114028605D01*
X156070101Y-114042706D01*
X156077370Y-114046000D01*
X157272885Y-114046000D01*
X157288124Y-114041525D01*
X157289329Y-114040135D01*
X157291000Y-114032452D01*
X157291000Y-114027885D01*
X157799000Y-114027885D01*
X157803475Y-114043124D01*
X157804865Y-114044329D01*
X157812548Y-114046000D01*
X159006878Y-114046000D01*
X159020409Y-114042027D01*
X159021544Y-114034129D01*
X158980893Y-113894210D01*
X158974648Y-113879779D01*
X158898088Y-113750322D01*
X158891811Y-113742230D01*
X158865861Y-113676146D01*
X158879759Y-113606523D01*
X158891811Y-113587770D01*
X158898088Y-113579678D01*
X158974648Y-113450221D01*
X158980893Y-113435790D01*
X159019939Y-113301395D01*
X159019899Y-113287294D01*
X159012630Y-113284000D01*
X157817115Y-113284000D01*
X157801876Y-113288475D01*
X157800671Y-113289865D01*
X157799000Y-113297548D01*
X157799000Y-114027885D01*
X157291000Y-114027885D01*
X157291000Y-113302115D01*
X157286525Y-113286876D01*
X157285135Y-113285671D01*
X157277452Y-113284000D01*
X156083122Y-113284000D01*
X156069591Y-113287973D01*
X156068456Y-113295871D01*
X153736450Y-113295871D01*
X153199184Y-112758605D01*
X156070061Y-112758605D01*
X156070101Y-112772706D01*
X156077370Y-112776000D01*
X157272885Y-112776000D01*
X157288124Y-112771525D01*
X157289329Y-112770135D01*
X157291000Y-112762452D01*
X157291000Y-112757885D01*
X157799000Y-112757885D01*
X157803475Y-112773124D01*
X157804865Y-112774329D01*
X157812548Y-112776000D01*
X159006878Y-112776000D01*
X159020409Y-112772027D01*
X159021544Y-112764129D01*
X159019939Y-112758605D01*
X161020061Y-112758605D01*
X161020101Y-112772706D01*
X161027370Y-112776000D01*
X162222885Y-112776000D01*
X162238124Y-112771525D01*
X162239329Y-112770135D01*
X162241000Y-112762452D01*
X162241000Y-112240116D01*
X162236525Y-112224877D01*
X162235135Y-112223672D01*
X162227452Y-112222001D01*
X161606017Y-112222001D01*
X161601080Y-112222195D01*
X161572664Y-112224430D01*
X161560069Y-112226730D01*
X161414210Y-112269107D01*
X161399779Y-112275352D01*
X161270322Y-112351911D01*
X161257896Y-112361551D01*
X161151551Y-112467896D01*
X161141911Y-112480322D01*
X161065352Y-112609779D01*
X161059107Y-112624210D01*
X161020061Y-112758605D01*
X159019939Y-112758605D01*
X158980893Y-112624210D01*
X158974648Y-112609779D01*
X158898089Y-112480322D01*
X158888449Y-112467896D01*
X158782104Y-112361551D01*
X158769678Y-112351911D01*
X158640221Y-112275352D01*
X158625790Y-112269107D01*
X158479935Y-112226731D01*
X158467333Y-112224430D01*
X158438916Y-112222193D01*
X158433986Y-112222000D01*
X157817115Y-112222000D01*
X157801876Y-112226475D01*
X157800671Y-112227865D01*
X157799000Y-112235548D01*
X157799000Y-112757885D01*
X157291000Y-112757885D01*
X157291000Y-112240116D01*
X157286525Y-112224877D01*
X157285135Y-112223672D01*
X157277452Y-112222001D01*
X156656017Y-112222001D01*
X156651080Y-112222195D01*
X156622664Y-112224430D01*
X156610069Y-112226730D01*
X156464210Y-112269107D01*
X156449779Y-112275352D01*
X156320322Y-112351911D01*
X156307896Y-112361551D01*
X156201551Y-112467896D01*
X156191911Y-112480322D01*
X156115352Y-112609779D01*
X156109107Y-112624210D01*
X156070061Y-112758605D01*
X153199184Y-112758605D01*
X152936033Y-112495454D01*
X152921292Y-112477732D01*
X152916466Y-112470710D01*
X152871676Y-112430803D01*
X152866402Y-112425823D01*
X152853975Y-112413396D01*
X152850997Y-112411061D01*
X152850989Y-112411054D01*
X152841780Y-112403834D01*
X152835705Y-112398754D01*
X152798622Y-112365713D01*
X152798619Y-112365711D01*
X152792948Y-112360658D01*
X152783689Y-112355755D01*
X152764908Y-112343559D01*
X152756672Y-112337101D01*
X152743451Y-112331131D01*
X152704487Y-112313538D01*
X152697380Y-112310057D01*
X152653453Y-112286799D01*
X152653452Y-112286798D01*
X152646744Y-112283247D01*
X152639382Y-112281398D01*
X152639380Y-112281397D01*
X152636589Y-112280696D01*
X152615437Y-112273331D01*
X152605895Y-112269022D01*
X152549578Y-112258584D01*
X152541862Y-112256902D01*
X152486294Y-112242945D01*
X152478694Y-112242905D01*
X152478693Y-112242905D01*
X152475826Y-112242890D01*
X152453529Y-112240783D01*
X152450702Y-112240259D01*
X152450701Y-112240259D01*
X152443233Y-112238875D01*
X152435650Y-112239312D01*
X152435647Y-112239312D01*
X152386050Y-112242172D01*
X152378137Y-112242379D01*
X152351314Y-112242239D01*
X152320863Y-112242079D01*
X152313481Y-112243851D01*
X152313474Y-112243852D01*
X152310679Y-112244523D01*
X152288530Y-112247794D01*
X152287906Y-112247830D01*
X152278074Y-112248397D01*
X152223305Y-112265246D01*
X152215707Y-112267325D01*
X152160001Y-112280699D01*
X152150702Y-112285499D01*
X152129963Y-112293961D01*
X152127222Y-112294804D01*
X152127213Y-112294808D01*
X152119954Y-112297041D01*
X152113437Y-112300941D01*
X152113429Y-112300945D01*
X152070803Y-112326457D01*
X152063884Y-112330308D01*
X152019745Y-112353089D01*
X152019741Y-112353092D01*
X152012994Y-112356574D01*
X152005098Y-112363462D01*
X151986980Y-112376625D01*
X151978001Y-112381999D01*
X151937271Y-112422305D01*
X151931512Y-112427656D01*
X151888330Y-112465326D01*
X151882308Y-112473895D01*
X151867856Y-112490997D01*
X151860411Y-112498364D01*
X151856442Y-112504840D01*
X151856441Y-112504842D01*
X151830492Y-112547188D01*
X151826147Y-112553803D01*
X151793205Y-112600675D01*
X151789398Y-112610440D01*
X151779445Y-112630490D01*
X151773973Y-112639419D01*
X151771664Y-112646654D01*
X151756560Y-112693980D01*
X151753918Y-112701439D01*
X151740656Y-112735455D01*
X151733111Y-112754808D01*
X151731744Y-112765189D01*
X151726860Y-112787039D01*
X151723675Y-112797020D01*
X151720671Y-112841097D01*
X151719780Y-112854164D01*
X151718997Y-112862018D01*
X151716500Y-112880983D01*
X151716500Y-112897991D01*
X151716208Y-112906560D01*
X151713177Y-112951029D01*
X151712424Y-112962070D01*
X151713729Y-112969546D01*
X151713729Y-112969551D01*
X151714624Y-112974677D01*
X151716500Y-112996339D01*
X151716500Y-120475500D01*
X151696498Y-120543621D01*
X151642842Y-120590114D01*
X151590500Y-120601500D01*
X151295630Y-120601500D01*
X151227509Y-120581498D01*
X151181016Y-120527842D01*
X151170912Y-120457568D01*
X151177648Y-120431271D01*
X151208971Y-120347718D01*
X151208973Y-120347712D01*
X151211745Y-120340316D01*
X151218500Y-120278134D01*
X151218500Y-118481866D01*
X151211745Y-118419684D01*
X151160615Y-118283295D01*
X151073261Y-118166739D01*
X150956705Y-118079385D01*
X150820316Y-118028255D01*
X150758134Y-118021500D01*
X148961866Y-118021500D01*
X148899684Y-118028255D01*
X148763295Y-118079385D01*
X148646739Y-118166739D01*
X148559385Y-118283295D01*
X148508255Y-118419684D01*
X148501500Y-118481866D01*
X148501500Y-120278134D01*
X148508255Y-120340316D01*
X148559385Y-120476705D01*
X148646739Y-120593261D01*
X148763295Y-120680615D01*
X148771704Y-120683767D01*
X148771705Y-120683768D01*
X148880451Y-120724535D01*
X148937216Y-120767176D01*
X148961916Y-120833738D01*
X148946709Y-120903087D01*
X148927316Y-120929568D01*
X148829667Y-121031752D01*
X148800629Y-121062138D01*
X148674743Y-121246680D01*
X148642340Y-121316487D01*
X148613716Y-121378153D01*
X148580688Y-121449305D01*
X148520989Y-121664570D01*
X148497251Y-121886695D01*
X148497548Y-121891848D01*
X148497548Y-121891851D01*
X148508284Y-122078054D01*
X148510110Y-122109715D01*
X148530449Y-122199963D01*
X148525913Y-122270813D01*
X148496627Y-122316758D01*
X146856541Y-123956844D01*
X146850276Y-123962698D01*
X146808330Y-123999290D01*
X146772934Y-124049655D01*
X146769022Y-124054920D01*
X146731065Y-124103328D01*
X146727939Y-124110252D01*
X146725329Y-124114561D01*
X146719958Y-124123976D01*
X146717573Y-124128424D01*
X146713205Y-124134639D01*
X146690858Y-124191957D01*
X146688306Y-124198029D01*
X146662986Y-124254105D01*
X146661600Y-124261582D01*
X146660090Y-124266402D01*
X146657118Y-124276835D01*
X146655870Y-124281696D01*
X146653111Y-124288772D01*
X146646719Y-124337326D01*
X146645082Y-124349762D01*
X146644050Y-124356278D01*
X146632839Y-124416767D01*
X146633276Y-124424347D01*
X146633276Y-124424348D01*
X146636291Y-124476642D01*
X146636500Y-124483894D01*
X146636500Y-133370977D01*
X146636208Y-133379546D01*
X146633119Y-133424862D01*
X146632424Y-133435056D01*
X146633729Y-133442532D01*
X146633729Y-133442537D01*
X146634624Y-133447663D01*
X146636500Y-133469325D01*
X146636500Y-137131955D01*
X146636208Y-137140523D01*
X146632424Y-137196034D01*
X146633729Y-137203511D01*
X146633729Y-137203514D01*
X146643002Y-137256647D01*
X146643965Y-137263171D01*
X146651355Y-137324235D01*
X146654042Y-137331345D01*
X146655246Y-137336248D01*
X146658114Y-137346734D01*
X146659561Y-137351526D01*
X146660866Y-137359004D01*
X146663918Y-137365956D01*
X146663918Y-137365957D01*
X146685595Y-137415341D01*
X146688086Y-137421446D01*
X146707145Y-137471882D01*
X146709831Y-137478989D01*
X146714131Y-137485246D01*
X146716467Y-137489714D01*
X146721725Y-137499160D01*
X146724307Y-137503526D01*
X146727362Y-137510485D01*
X146764823Y-137559304D01*
X146768686Y-137564623D01*
X146792507Y-137599282D01*
X146803534Y-137615326D01*
X146809203Y-137620377D01*
X146848323Y-137655232D01*
X146853598Y-137660213D01*
X150631355Y-141437970D01*
X150637209Y-141444235D01*
X150673801Y-141486181D01*
X150724166Y-141521577D01*
X150729431Y-141525489D01*
X150777839Y-141563446D01*
X150784763Y-141566572D01*
X150789072Y-141569182D01*
X150798487Y-141574553D01*
X150802935Y-141576938D01*
X150809150Y-141581306D01*
X150866468Y-141603653D01*
X150872540Y-141606205D01*
X150928616Y-141631525D01*
X150936093Y-141632911D01*
X150940913Y-141634421D01*
X150951346Y-141637393D01*
X150956207Y-141638641D01*
X150963283Y-141641400D01*
X151023531Y-141649331D01*
X151024273Y-141649429D01*
X151030789Y-141650461D01*
X151031248Y-141650546D01*
X151091278Y-141661672D01*
X151098858Y-141661235D01*
X151098859Y-141661235D01*
X151151153Y-141658220D01*
X151158405Y-141658011D01*
X168887444Y-141658011D01*
X168896013Y-141658303D01*
X168943947Y-141661571D01*
X168943951Y-141661571D01*
X168951523Y-141662087D01*
X168959000Y-141660782D01*
X168959003Y-141660782D01*
X169012136Y-141651509D01*
X169018660Y-141650546D01*
X169072180Y-141644069D01*
X169079724Y-141643156D01*
X169086834Y-141640469D01*
X169091737Y-141639265D01*
X169102223Y-141636397D01*
X169107015Y-141634950D01*
X169114493Y-141633645D01*
X169121446Y-141630593D01*
X169170830Y-141608916D01*
X169176935Y-141606425D01*
X169227371Y-141587366D01*
X169227374Y-141587364D01*
X169234478Y-141584680D01*
X169240735Y-141580380D01*
X169245203Y-141578044D01*
X169254649Y-141572786D01*
X169259015Y-141570204D01*
X169265974Y-141567149D01*
X169314793Y-141529688D01*
X169320112Y-141525825D01*
X169364554Y-141495280D01*
X169370815Y-141490977D01*
X169410722Y-141446187D01*
X169415702Y-141440913D01*
X169793306Y-141063309D01*
X169855618Y-141029283D01*
X169907518Y-141028933D01*
X170028597Y-141053567D01*
X170033772Y-141053757D01*
X170033774Y-141053757D01*
X170246673Y-141061564D01*
X170246677Y-141061564D01*
X170251837Y-141061753D01*
X170256957Y-141061097D01*
X170256959Y-141061097D01*
X170468288Y-141034025D01*
X170468289Y-141034025D01*
X170473416Y-141033368D01*
X170478366Y-141031883D01*
X170682429Y-140970661D01*
X170682434Y-140970659D01*
X170687384Y-140969174D01*
X170887994Y-140870896D01*
X171069860Y-140741173D01*
X171228096Y-140583489D01*
X171358453Y-140402077D01*
X171359640Y-140402930D01*
X171406960Y-140359362D01*
X171476897Y-140347145D01*
X171542338Y-140374678D01*
X171570166Y-140406511D01*
X171627694Y-140500388D01*
X171633777Y-140508699D01*
X171773213Y-140669667D01*
X171780580Y-140676883D01*
X171944434Y-140812916D01*
X171952881Y-140818831D01*
X172136756Y-140926279D01*
X172146042Y-140930729D01*
X172345001Y-141006703D01*
X172354899Y-141009579D01*
X172458250Y-141030606D01*
X172472299Y-141029410D01*
X172476000Y-141019065D01*
X172476000Y-141018517D01*
X172984000Y-141018517D01*
X172988064Y-141032359D01*
X173001478Y-141034393D01*
X173008184Y-141033534D01*
X173018262Y-141031392D01*
X173222255Y-140970191D01*
X173231842Y-140966433D01*
X173423095Y-140872739D01*
X173431945Y-140867464D01*
X173605328Y-140743792D01*
X173613200Y-140737139D01*
X173764052Y-140586812D01*
X173770730Y-140578965D01*
X173895003Y-140406020D01*
X173900313Y-140397183D01*
X173994670Y-140206267D01*
X173998469Y-140196672D01*
X174060377Y-139992910D01*
X174062555Y-139982837D01*
X174063986Y-139971962D01*
X174061775Y-139957778D01*
X174048617Y-139954000D01*
X173002115Y-139954000D01*
X172986876Y-139958475D01*
X172985671Y-139959865D01*
X172984000Y-139967548D01*
X172984000Y-141018517D01*
X172476000Y-141018517D01*
X172476000Y-139427885D01*
X172984000Y-139427885D01*
X172988475Y-139443124D01*
X172989865Y-139444329D01*
X172997548Y-139446000D01*
X174048344Y-139446000D01*
X174061875Y-139442027D01*
X174063180Y-139432947D01*
X174021214Y-139265875D01*
X174017894Y-139256124D01*
X173932972Y-139060814D01*
X173928105Y-139051739D01*
X173812426Y-138872926D01*
X173806136Y-138864757D01*
X173662806Y-138707240D01*
X173655273Y-138700215D01*
X173488139Y-138568222D01*
X173479552Y-138562517D01*
X173293117Y-138459599D01*
X173283705Y-138455369D01*
X173082959Y-138384280D01*
X173072988Y-138381646D01*
X173001837Y-138368972D01*
X172988540Y-138370432D01*
X172984000Y-138384989D01*
X172984000Y-139427885D01*
X172476000Y-139427885D01*
X172476000Y-138383102D01*
X172472082Y-138369758D01*
X172457806Y-138367771D01*
X172419324Y-138373660D01*
X172409288Y-138376051D01*
X172206868Y-138442212D01*
X172197359Y-138446209D01*
X172008463Y-138544542D01*
X171999738Y-138550036D01*
X171829433Y-138677905D01*
X171821726Y-138684748D01*
X171674590Y-138838717D01*
X171668109Y-138846722D01*
X171563498Y-139000074D01*
X171508587Y-139045076D01*
X171438062Y-139053247D01*
X171374315Y-139021993D01*
X171353618Y-138997509D01*
X171272822Y-138872617D01*
X171272820Y-138872614D01*
X171270014Y-138868277D01*
X171119670Y-138703051D01*
X171115619Y-138699852D01*
X171115615Y-138699848D01*
X170948414Y-138567800D01*
X170948410Y-138567798D01*
X170944359Y-138564598D01*
X170908028Y-138544542D01*
X170861830Y-138519040D01*
X170748789Y-138456638D01*
X170743920Y-138454914D01*
X170743916Y-138454912D01*
X170543087Y-138383795D01*
X170543083Y-138383794D01*
X170538212Y-138382069D01*
X170533119Y-138381162D01*
X170533116Y-138381161D01*
X170323373Y-138343800D01*
X170323367Y-138343799D01*
X170318284Y-138342894D01*
X170244452Y-138341992D01*
X170100081Y-138340228D01*
X170100079Y-138340228D01*
X170094911Y-138340165D01*
X169874091Y-138373955D01*
X169661756Y-138443357D01*
X169588757Y-138481358D01*
X169471762Y-138542262D01*
X169463607Y-138546507D01*
X169459474Y-138549610D01*
X169459471Y-138549612D01*
X169289100Y-138677530D01*
X169284965Y-138680635D01*
X169281393Y-138684373D01*
X169173729Y-138797037D01*
X169130629Y-138842138D01*
X169023201Y-138999621D01*
X168968293Y-139044621D01*
X168897768Y-139052792D01*
X168834021Y-139021538D01*
X168813324Y-138997054D01*
X168732822Y-138872617D01*
X168732820Y-138872614D01*
X168730014Y-138868277D01*
X168579670Y-138703051D01*
X168575619Y-138699852D01*
X168575615Y-138699848D01*
X168408414Y-138567800D01*
X168408410Y-138567798D01*
X168404359Y-138564598D01*
X168368028Y-138544542D01*
X168321830Y-138519040D01*
X168208789Y-138456638D01*
X168203920Y-138454914D01*
X168203916Y-138454912D01*
X168003087Y-138383795D01*
X168003083Y-138383794D01*
X167998212Y-138382069D01*
X167993119Y-138381162D01*
X167993116Y-138381161D01*
X167783373Y-138343800D01*
X167783367Y-138343799D01*
X167778284Y-138342894D01*
X167704452Y-138341992D01*
X167560081Y-138340228D01*
X167560079Y-138340228D01*
X167554911Y-138340165D01*
X167334091Y-138373955D01*
X167121756Y-138443357D01*
X167048757Y-138481358D01*
X166931762Y-138542262D01*
X166923607Y-138546507D01*
X166919474Y-138549610D01*
X166919471Y-138549612D01*
X166749100Y-138677530D01*
X166744965Y-138680635D01*
X166741393Y-138684373D01*
X166633729Y-138797037D01*
X166590629Y-138842138D01*
X166483201Y-138999621D01*
X166428293Y-139044621D01*
X166357768Y-139052792D01*
X166294021Y-139021538D01*
X166273324Y-138997054D01*
X166192822Y-138872617D01*
X166192820Y-138872614D01*
X166190014Y-138868277D01*
X166039670Y-138703051D01*
X166035619Y-138699852D01*
X166035615Y-138699848D01*
X165868414Y-138567800D01*
X165868410Y-138567798D01*
X165864359Y-138564598D01*
X165828028Y-138544542D01*
X165781830Y-138519040D01*
X165668789Y-138456638D01*
X165663920Y-138454914D01*
X165663916Y-138454912D01*
X165463087Y-138383795D01*
X165463083Y-138383794D01*
X165458212Y-138382069D01*
X165453119Y-138381162D01*
X165453116Y-138381161D01*
X165243373Y-138343800D01*
X165243367Y-138343799D01*
X165238284Y-138342894D01*
X165164452Y-138341992D01*
X165020081Y-138340228D01*
X165020079Y-138340228D01*
X165014911Y-138340165D01*
X164794091Y-138373955D01*
X164581756Y-138443357D01*
X164508757Y-138481358D01*
X164391762Y-138542262D01*
X164383607Y-138546507D01*
X164379474Y-138549610D01*
X164379471Y-138549612D01*
X164209100Y-138677530D01*
X164204965Y-138680635D01*
X164201393Y-138684373D01*
X164093729Y-138797037D01*
X164050629Y-138842138D01*
X163943201Y-138999621D01*
X163888293Y-139044621D01*
X163817768Y-139052792D01*
X163754021Y-139021538D01*
X163733324Y-138997054D01*
X163652822Y-138872617D01*
X163652820Y-138872614D01*
X163650014Y-138868277D01*
X163499670Y-138703051D01*
X163495619Y-138699852D01*
X163495615Y-138699848D01*
X163328414Y-138567800D01*
X163328410Y-138567798D01*
X163324359Y-138564598D01*
X163288028Y-138544542D01*
X163241830Y-138519040D01*
X163128789Y-138456638D01*
X163123920Y-138454914D01*
X163123916Y-138454912D01*
X162923087Y-138383795D01*
X162923083Y-138383794D01*
X162918212Y-138382069D01*
X162913119Y-138381162D01*
X162913116Y-138381161D01*
X162703373Y-138343800D01*
X162703367Y-138343799D01*
X162698284Y-138342894D01*
X162624452Y-138341992D01*
X162480081Y-138340228D01*
X162480079Y-138340228D01*
X162474911Y-138340165D01*
X162254091Y-138373955D01*
X162041756Y-138443357D01*
X161968757Y-138481358D01*
X161851762Y-138542262D01*
X161843607Y-138546507D01*
X161839474Y-138549610D01*
X161839471Y-138549612D01*
X161669100Y-138677530D01*
X161664965Y-138680635D01*
X161661393Y-138684373D01*
X161553729Y-138797037D01*
X161510629Y-138842138D01*
X161403201Y-138999621D01*
X161348293Y-139044621D01*
X161277768Y-139052792D01*
X161214021Y-139021538D01*
X161193324Y-138997054D01*
X161112822Y-138872617D01*
X161112820Y-138872614D01*
X161110014Y-138868277D01*
X160959670Y-138703051D01*
X160955619Y-138699852D01*
X160955615Y-138699848D01*
X160788414Y-138567800D01*
X160788410Y-138567798D01*
X160784359Y-138564598D01*
X160748028Y-138544542D01*
X160701830Y-138519040D01*
X160588789Y-138456638D01*
X160583920Y-138454914D01*
X160583916Y-138454912D01*
X160383087Y-138383795D01*
X160383083Y-138383794D01*
X160378212Y-138382069D01*
X160373119Y-138381162D01*
X160373116Y-138381161D01*
X160163373Y-138343800D01*
X160163367Y-138343799D01*
X160158284Y-138342894D01*
X160084452Y-138341992D01*
X159940081Y-138340228D01*
X159940079Y-138340228D01*
X159934911Y-138340165D01*
X159714091Y-138373955D01*
X159501756Y-138443357D01*
X159428757Y-138481358D01*
X159311762Y-138542262D01*
X159303607Y-138546507D01*
X159299474Y-138549610D01*
X159299471Y-138549612D01*
X159129100Y-138677530D01*
X159124965Y-138680635D01*
X159121393Y-138684373D01*
X159013729Y-138797037D01*
X158970629Y-138842138D01*
X158863201Y-138999621D01*
X158808293Y-139044621D01*
X158737768Y-139052792D01*
X158674021Y-139021538D01*
X158653324Y-138997054D01*
X158572822Y-138872617D01*
X158572820Y-138872614D01*
X158570014Y-138868277D01*
X158419670Y-138703051D01*
X158415619Y-138699852D01*
X158415615Y-138699848D01*
X158248414Y-138567800D01*
X158248410Y-138567798D01*
X158244359Y-138564598D01*
X158208028Y-138544542D01*
X158161830Y-138519040D01*
X158048789Y-138456638D01*
X158043920Y-138454914D01*
X158043916Y-138454912D01*
X157843087Y-138383795D01*
X157843083Y-138383794D01*
X157838212Y-138382069D01*
X157833119Y-138381162D01*
X157833116Y-138381161D01*
X157623373Y-138343800D01*
X157623367Y-138343799D01*
X157618284Y-138342894D01*
X157544452Y-138341992D01*
X157400081Y-138340228D01*
X157400079Y-138340228D01*
X157394911Y-138340165D01*
X157174091Y-138373955D01*
X156961756Y-138443357D01*
X156888757Y-138481358D01*
X156771762Y-138542262D01*
X156763607Y-138546507D01*
X156759474Y-138549610D01*
X156759471Y-138549612D01*
X156589100Y-138677530D01*
X156584965Y-138680635D01*
X156581393Y-138684373D01*
X156473729Y-138797037D01*
X156430629Y-138842138D01*
X156323201Y-138999621D01*
X156268293Y-139044621D01*
X156197768Y-139052792D01*
X156134021Y-139021538D01*
X156113324Y-138997054D01*
X156032822Y-138872617D01*
X156032820Y-138872614D01*
X156030014Y-138868277D01*
X155879670Y-138703051D01*
X155875619Y-138699852D01*
X155875615Y-138699848D01*
X155708414Y-138567800D01*
X155708410Y-138567798D01*
X155704359Y-138564598D01*
X155668028Y-138544542D01*
X155621830Y-138519040D01*
X155508789Y-138456638D01*
X155503920Y-138454914D01*
X155503916Y-138454912D01*
X155303087Y-138383795D01*
X155303083Y-138383794D01*
X155298212Y-138382069D01*
X155293119Y-138381162D01*
X155293116Y-138381161D01*
X155083373Y-138343800D01*
X155083367Y-138343799D01*
X155078284Y-138342894D01*
X155004452Y-138341992D01*
X154860081Y-138340228D01*
X154860079Y-138340228D01*
X154854911Y-138340165D01*
X154634091Y-138373955D01*
X154421756Y-138443357D01*
X154348757Y-138481358D01*
X154231762Y-138542262D01*
X154223607Y-138546507D01*
X154219474Y-138549610D01*
X154219471Y-138549612D01*
X154049100Y-138677530D01*
X154044965Y-138680635D01*
X153972648Y-138756311D01*
X153964283Y-138765064D01*
X153902759Y-138800494D01*
X153831846Y-138797037D01*
X153774060Y-138755791D01*
X153755207Y-138722243D01*
X153713767Y-138611703D01*
X153710615Y-138603295D01*
X153623261Y-138486739D01*
X153506705Y-138399385D01*
X153370316Y-138348255D01*
X153308134Y-138341500D01*
X151511866Y-138341500D01*
X151449684Y-138348255D01*
X151313295Y-138399385D01*
X151196739Y-138486739D01*
X151109385Y-138603295D01*
X151058255Y-138739684D01*
X151051500Y-138801866D01*
X151051500Y-139620695D01*
X151031498Y-139688816D01*
X150977842Y-139735309D01*
X150907568Y-139745413D01*
X150842988Y-139715919D01*
X150836405Y-139709790D01*
X148286615Y-137160000D01*
X159106496Y-137160000D01*
X159107186Y-137166565D01*
X159123758Y-137324235D01*
X159126458Y-137349928D01*
X159185473Y-137531556D01*
X159188776Y-137537278D01*
X159188777Y-137537279D01*
X159202998Y-137561910D01*
X159280960Y-137696944D01*
X159285378Y-137701851D01*
X159285379Y-137701852D01*
X159367452Y-137793003D01*
X159408747Y-137838866D01*
X159563248Y-137951118D01*
X159569276Y-137953802D01*
X159569278Y-137953803D01*
X159620715Y-137976704D01*
X159737712Y-138028794D01*
X159813132Y-138044825D01*
X159918056Y-138067128D01*
X159918061Y-138067128D01*
X159924513Y-138068500D01*
X160115487Y-138068500D01*
X160121939Y-138067128D01*
X160121944Y-138067128D01*
X160226868Y-138044825D01*
X160302288Y-138028794D01*
X160419285Y-137976704D01*
X160470722Y-137953803D01*
X160470724Y-137953802D01*
X160476752Y-137951118D01*
X160631253Y-137838866D01*
X160635668Y-137833963D01*
X160640580Y-137829540D01*
X160641705Y-137830789D01*
X160695014Y-137797949D01*
X160728200Y-137793500D01*
X160853733Y-137793500D01*
X160864916Y-137794027D01*
X160872409Y-137795702D01*
X160880335Y-137795453D01*
X160880336Y-137795453D01*
X160940486Y-137793562D01*
X160944445Y-137793500D01*
X160972356Y-137793500D01*
X160976291Y-137793003D01*
X160976356Y-137792995D01*
X160988193Y-137792062D01*
X161020451Y-137791048D01*
X161024470Y-137790922D01*
X161032389Y-137790673D01*
X161051843Y-137785021D01*
X161071200Y-137781013D01*
X161083430Y-137779468D01*
X161083431Y-137779468D01*
X161091297Y-137778474D01*
X161098668Y-137775555D01*
X161098670Y-137775555D01*
X161132412Y-137762196D01*
X161143642Y-137758351D01*
X161178483Y-137748229D01*
X161178484Y-137748229D01*
X161186093Y-137746018D01*
X161192912Y-137741985D01*
X161192917Y-137741983D01*
X161203528Y-137735707D01*
X161221276Y-137727012D01*
X161240117Y-137719552D01*
X161275887Y-137693564D01*
X161285807Y-137687048D01*
X161317035Y-137668580D01*
X161317038Y-137668578D01*
X161323862Y-137664542D01*
X161338183Y-137650221D01*
X161353217Y-137637380D01*
X161363194Y-137630131D01*
X161369607Y-137625472D01*
X161397798Y-137591395D01*
X161405788Y-137582616D01*
X163122999Y-135865405D01*
X163185311Y-135831379D01*
X163212094Y-135828500D01*
X163785400Y-135828500D01*
X163788646Y-135828163D01*
X163788650Y-135828163D01*
X163884308Y-135818238D01*
X163884312Y-135818237D01*
X163891166Y-135817526D01*
X163897702Y-135815345D01*
X163897704Y-135815345D01*
X164051998Y-135763868D01*
X164058946Y-135761550D01*
X164209348Y-135668478D01*
X164334305Y-135543303D01*
X164427115Y-135392738D01*
X164467501Y-135270977D01*
X164480632Y-135231389D01*
X164480632Y-135231387D01*
X164482797Y-135224861D01*
X164487141Y-135182469D01*
X164488955Y-135164758D01*
X164493500Y-135120400D01*
X164493500Y-134119600D01*
X164492748Y-134112349D01*
X164483238Y-134020692D01*
X164483237Y-134020688D01*
X164482526Y-134013834D01*
X164466734Y-133966498D01*
X164428868Y-133853002D01*
X164426550Y-133846054D01*
X164333478Y-133695652D01*
X164208303Y-133570695D01*
X164202072Y-133566854D01*
X164063968Y-133481725D01*
X164063966Y-133481724D01*
X164057738Y-133477885D01*
X163957088Y-133444501D01*
X163896389Y-133424368D01*
X163896387Y-133424368D01*
X163889861Y-133422203D01*
X163883025Y-133421503D01*
X163883022Y-133421502D01*
X163839969Y-133417091D01*
X163785400Y-133411500D01*
X163159600Y-133411500D01*
X163156354Y-133411837D01*
X163156350Y-133411837D01*
X163060692Y-133421762D01*
X163060688Y-133421763D01*
X163053834Y-133422474D01*
X163047298Y-133424655D01*
X163047296Y-133424655D01*
X162946118Y-133458411D01*
X162886054Y-133478450D01*
X162735652Y-133571522D01*
X162730479Y-133576704D01*
X162648862Y-133658463D01*
X162586579Y-133692542D01*
X162515759Y-133687539D01*
X162470671Y-133658618D01*
X162388171Y-133576261D01*
X162376760Y-133567249D01*
X162238757Y-133482184D01*
X162225576Y-133476037D01*
X162071290Y-133424862D01*
X162057914Y-133421995D01*
X161963562Y-133412328D01*
X161957145Y-133412000D01*
X161919615Y-133412000D01*
X161904376Y-133416475D01*
X161903171Y-133417865D01*
X161901500Y-133425548D01*
X161901500Y-134748000D01*
X161881498Y-134816121D01*
X161827842Y-134862614D01*
X161775500Y-134874000D01*
X160645116Y-134874000D01*
X160629877Y-134878475D01*
X160628672Y-134879865D01*
X160627001Y-134887548D01*
X160627001Y-135117095D01*
X160627338Y-135123614D01*
X160637257Y-135219206D01*
X160640149Y-135232600D01*
X160691588Y-135386784D01*
X160697761Y-135399962D01*
X160783063Y-135537807D01*
X160792099Y-135549208D01*
X160906829Y-135663739D01*
X160918240Y-135672751D01*
X161056243Y-135757816D01*
X161069424Y-135763963D01*
X161148341Y-135790139D01*
X161206701Y-135830570D01*
X161233937Y-135896135D01*
X161221403Y-135966016D01*
X161197768Y-135998827D01*
X160756120Y-136440475D01*
X160693808Y-136474501D01*
X160622993Y-136469436D01*
X160592971Y-136453320D01*
X160476752Y-136368882D01*
X160470724Y-136366198D01*
X160470722Y-136366197D01*
X160308319Y-136293891D01*
X160308318Y-136293891D01*
X160302288Y-136291206D01*
X160203590Y-136270227D01*
X160121944Y-136252872D01*
X160121939Y-136252872D01*
X160115487Y-136251500D01*
X159924513Y-136251500D01*
X159918061Y-136252872D01*
X159918056Y-136252872D01*
X159836410Y-136270227D01*
X159737712Y-136291206D01*
X159731682Y-136293891D01*
X159731681Y-136293891D01*
X159569278Y-136366197D01*
X159569276Y-136366198D01*
X159563248Y-136368882D01*
X159408747Y-136481134D01*
X159280960Y-136623056D01*
X159185473Y-136788444D01*
X159126458Y-136970072D01*
X159125768Y-136976633D01*
X159125768Y-136976635D01*
X159109444Y-137131955D01*
X159106496Y-137160000D01*
X148286615Y-137160000D01*
X148040405Y-136913790D01*
X148006379Y-136851478D01*
X148003500Y-136824695D01*
X148003500Y-135118186D01*
X148023502Y-135050065D01*
X148077158Y-135003572D01*
X148152459Y-134994296D01*
X148192257Y-135001672D01*
X148199838Y-135001235D01*
X148199839Y-135001235D01*
X148252132Y-134998220D01*
X148259384Y-134998011D01*
X151361378Y-134998011D01*
X151429499Y-135018013D01*
X151475992Y-135071669D01*
X151484839Y-135125840D01*
X151487186Y-135125840D01*
X151487186Y-135132446D01*
X151486496Y-135139011D01*
X151487186Y-135145576D01*
X151498761Y-135255702D01*
X151506458Y-135328939D01*
X151565473Y-135510567D01*
X151660960Y-135675955D01*
X151665378Y-135680862D01*
X151665379Y-135680863D01*
X151784325Y-135812966D01*
X151788747Y-135817877D01*
X151943248Y-135930129D01*
X151949276Y-135932813D01*
X151949278Y-135932814D01*
X152097547Y-135998827D01*
X152117712Y-136007805D01*
X152211113Y-136027658D01*
X152298056Y-136046139D01*
X152298061Y-136046139D01*
X152304513Y-136047511D01*
X152495487Y-136047511D01*
X152501940Y-136046139D01*
X152501944Y-136046139D01*
X152543035Y-136037404D01*
X152586988Y-136028062D01*
X152657777Y-136033464D01*
X152702278Y-136062214D01*
X152726837Y-136086773D01*
X152734377Y-136095059D01*
X152738489Y-136101538D01*
X152744266Y-136106963D01*
X152788140Y-136148163D01*
X152790982Y-136150918D01*
X152810719Y-136170655D01*
X152813916Y-136173135D01*
X152822936Y-136180838D01*
X152855168Y-136211106D01*
X152862114Y-136214925D01*
X152862117Y-136214927D01*
X152872923Y-136220868D01*
X152889442Y-136231719D01*
X152905448Y-136244134D01*
X152912717Y-136247279D01*
X152912721Y-136247282D01*
X152946026Y-136261694D01*
X152956676Y-136266911D01*
X152995429Y-136288215D01*
X153003104Y-136290186D01*
X153003105Y-136290186D01*
X153015051Y-136293253D01*
X153033755Y-136299657D01*
X153041481Y-136303000D01*
X153052344Y-136307701D01*
X153060167Y-136308940D01*
X153060177Y-136308943D01*
X153096013Y-136314619D01*
X153107633Y-136317025D01*
X153139448Y-136325193D01*
X153150459Y-136328020D01*
X153170713Y-136328020D01*
X153190423Y-136329571D01*
X153210432Y-136332740D01*
X153218324Y-136331994D01*
X153237069Y-136330222D01*
X153254451Y-136328579D01*
X153266308Y-136328020D01*
X157239213Y-136328020D01*
X157250396Y-136328547D01*
X157257889Y-136330222D01*
X157265815Y-136329973D01*
X157265816Y-136329973D01*
X157325966Y-136328082D01*
X157329925Y-136328020D01*
X157357836Y-136328020D01*
X157361771Y-136327523D01*
X157361836Y-136327515D01*
X157373673Y-136326582D01*
X157405931Y-136325568D01*
X157409950Y-136325442D01*
X157417869Y-136325193D01*
X157437323Y-136319541D01*
X157456680Y-136315533D01*
X157468910Y-136313988D01*
X157468911Y-136313988D01*
X157476777Y-136312994D01*
X157484148Y-136310075D01*
X157484150Y-136310075D01*
X157517892Y-136296716D01*
X157529122Y-136292871D01*
X157563963Y-136282749D01*
X157563964Y-136282749D01*
X157571573Y-136280538D01*
X157578392Y-136276505D01*
X157578397Y-136276503D01*
X157589008Y-136270227D01*
X157606756Y-136261532D01*
X157625597Y-136254072D01*
X157661367Y-136228084D01*
X157671287Y-136221568D01*
X157702515Y-136203100D01*
X157702518Y-136203098D01*
X157709342Y-136199062D01*
X157723663Y-136184741D01*
X157738697Y-136171900D01*
X157748674Y-136164651D01*
X157755087Y-136159992D01*
X157783278Y-136125915D01*
X157791268Y-136117136D01*
X158042999Y-135865405D01*
X158105311Y-135831379D01*
X158132094Y-135828500D01*
X158705400Y-135828500D01*
X158708646Y-135828163D01*
X158708650Y-135828163D01*
X158804308Y-135818238D01*
X158804312Y-135818237D01*
X158811166Y-135817526D01*
X158817702Y-135815345D01*
X158817704Y-135815345D01*
X158971998Y-135763868D01*
X158978946Y-135761550D01*
X159129348Y-135668478D01*
X159254305Y-135543303D01*
X159347115Y-135392738D01*
X159387501Y-135270977D01*
X159400632Y-135231389D01*
X159400632Y-135231387D01*
X159402797Y-135224861D01*
X159407141Y-135182469D01*
X159408955Y-135164758D01*
X159413500Y-135120400D01*
X159413500Y-134347885D01*
X160627000Y-134347885D01*
X160631475Y-134363124D01*
X160632865Y-134364329D01*
X160640548Y-134366000D01*
X161375385Y-134366000D01*
X161390624Y-134361525D01*
X161391829Y-134360135D01*
X161393500Y-134352452D01*
X161393500Y-133430116D01*
X161389025Y-133414877D01*
X161387635Y-133413672D01*
X161379952Y-133412001D01*
X161337905Y-133412001D01*
X161331386Y-133412338D01*
X161235794Y-133422257D01*
X161222400Y-133425149D01*
X161068216Y-133476588D01*
X161055038Y-133482761D01*
X160917193Y-133568063D01*
X160905792Y-133577099D01*
X160791261Y-133691829D01*
X160782249Y-133703240D01*
X160697184Y-133841243D01*
X160691037Y-133854424D01*
X160639862Y-134008710D01*
X160636995Y-134022086D01*
X160627328Y-134116438D01*
X160627000Y-134122855D01*
X160627000Y-134347885D01*
X159413500Y-134347885D01*
X159413500Y-134119600D01*
X159412748Y-134112349D01*
X159403238Y-134020692D01*
X159403237Y-134020688D01*
X159402526Y-134013834D01*
X159386734Y-133966498D01*
X159348868Y-133853002D01*
X159346550Y-133846054D01*
X159253478Y-133695652D01*
X159128303Y-133570695D01*
X159122072Y-133566854D01*
X158983968Y-133481725D01*
X158983966Y-133481724D01*
X158977738Y-133477885D01*
X158877088Y-133444501D01*
X158816389Y-133424368D01*
X158816387Y-133424368D01*
X158809861Y-133422203D01*
X158803025Y-133421503D01*
X158803022Y-133421502D01*
X158759969Y-133417091D01*
X158705400Y-133411500D01*
X158079600Y-133411500D01*
X158076354Y-133411837D01*
X158076350Y-133411837D01*
X157980692Y-133421762D01*
X157980688Y-133421763D01*
X157973834Y-133422474D01*
X157967298Y-133424655D01*
X157967296Y-133424655D01*
X157866118Y-133458411D01*
X157806054Y-133478450D01*
X157655652Y-133571522D01*
X157650479Y-133576704D01*
X157568862Y-133658463D01*
X157506579Y-133692542D01*
X157435759Y-133687539D01*
X157390671Y-133658618D01*
X157308171Y-133576261D01*
X157296760Y-133567249D01*
X157158757Y-133482184D01*
X157145576Y-133476037D01*
X156991290Y-133424862D01*
X156977914Y-133421995D01*
X156883562Y-133412328D01*
X156877145Y-133412000D01*
X156848805Y-133412000D01*
X156780684Y-133391998D01*
X156734191Y-133338342D01*
X156724087Y-133268068D01*
X156753581Y-133203488D01*
X156759710Y-133196905D01*
X157671211Y-132285404D01*
X157733523Y-132251378D01*
X157760306Y-132248499D01*
X158531412Y-132248499D01*
X158535169Y-132248044D01*
X158535175Y-132248044D01*
X158613046Y-132238621D01*
X158621079Y-132237649D01*
X158628602Y-132234671D01*
X158628604Y-132234670D01*
X158716102Y-132200027D01*
X158761136Y-132182197D01*
X158881122Y-132091122D01*
X158972197Y-131971136D01*
X159027649Y-131831079D01*
X159038500Y-131741413D01*
X159038499Y-131148588D01*
X159038044Y-131144822D01*
X159028621Y-131066954D01*
X159027649Y-131058921D01*
X158972197Y-130918864D01*
X158947388Y-130886179D01*
X158922134Y-130819827D01*
X158936762Y-130750354D01*
X158947388Y-130733820D01*
X158967000Y-130707983D01*
X158967001Y-130707982D01*
X158972197Y-130701136D01*
X159027649Y-130561079D01*
X159038500Y-130471413D01*
X159038499Y-129878588D01*
X159027649Y-129788921D01*
X158972197Y-129648864D01*
X158947388Y-129616179D01*
X158922134Y-129549827D01*
X158936762Y-129480354D01*
X158947388Y-129463820D01*
X158950163Y-129460165D01*
X158972197Y-129431136D01*
X159027649Y-129291079D01*
X159038500Y-129201413D01*
X159038499Y-128608588D01*
X159038044Y-128604822D01*
X159028621Y-128526954D01*
X159027649Y-128518921D01*
X159010704Y-128476121D01*
X158982968Y-128406069D01*
X158972197Y-128378864D01*
X158947388Y-128346179D01*
X158922134Y-128279827D01*
X158936762Y-128210354D01*
X158947388Y-128193820D01*
X158967000Y-128167983D01*
X158967001Y-128167982D01*
X158972197Y-128161136D01*
X159027649Y-128021079D01*
X159038500Y-127931413D01*
X159038499Y-127362885D01*
X161002000Y-127362885D01*
X161006475Y-127378124D01*
X161007865Y-127379329D01*
X161015548Y-127381000D01*
X162222885Y-127381000D01*
X162238124Y-127376525D01*
X162239329Y-127375135D01*
X162241000Y-127367452D01*
X162241000Y-126850116D01*
X162236525Y-126834877D01*
X162235135Y-126833672D01*
X162227452Y-126832001D01*
X161512422Y-126832001D01*
X161504865Y-126832456D01*
X161427072Y-126841869D01*
X161411520Y-126845819D01*
X161287094Y-126895083D01*
X161272275Y-126903433D01*
X161166070Y-126984047D01*
X161154047Y-126996070D01*
X161073433Y-127102275D01*
X161065083Y-127117094D01*
X161015821Y-127241516D01*
X161011868Y-127257081D01*
X161002456Y-127334862D01*
X161002000Y-127342416D01*
X161002000Y-127362885D01*
X159038499Y-127362885D01*
X159038499Y-127338588D01*
X159027649Y-127248921D01*
X159013302Y-127212683D01*
X158975359Y-127116851D01*
X158972197Y-127108864D01*
X158881122Y-126988878D01*
X158761136Y-126897803D01*
X158621079Y-126842351D01*
X158531413Y-126831500D01*
X157689595Y-126831500D01*
X157621474Y-126811498D01*
X157600500Y-126794595D01*
X157353652Y-126547747D01*
X157346112Y-126539461D01*
X157342000Y-126532982D01*
X157292348Y-126486356D01*
X157289507Y-126483602D01*
X157269770Y-126463865D01*
X157266573Y-126461385D01*
X157257551Y-126453680D01*
X157231100Y-126428841D01*
X157225321Y-126423414D01*
X157218375Y-126419595D01*
X157218372Y-126419593D01*
X157207566Y-126413652D01*
X157191047Y-126402801D01*
X157190583Y-126402441D01*
X157175041Y-126390386D01*
X157167772Y-126387241D01*
X157167768Y-126387238D01*
X157134463Y-126372826D01*
X157123813Y-126367609D01*
X157085060Y-126346305D01*
X157065437Y-126341267D01*
X157046734Y-126334863D01*
X157035420Y-126329967D01*
X157035419Y-126329967D01*
X157028145Y-126326819D01*
X157020322Y-126325580D01*
X157020312Y-126325577D01*
X156984476Y-126319901D01*
X156972856Y-126317495D01*
X156937711Y-126308472D01*
X156937710Y-126308472D01*
X156930030Y-126306500D01*
X156909776Y-126306500D01*
X156890065Y-126304949D01*
X156877886Y-126303020D01*
X156870057Y-126301780D01*
X156862165Y-126302526D01*
X156826039Y-126305941D01*
X156814181Y-126306500D01*
X151694500Y-126306500D01*
X151626379Y-126286498D01*
X151579886Y-126232842D01*
X151568500Y-126180500D01*
X151568500Y-125141866D01*
X151561745Y-125079684D01*
X151510615Y-124943295D01*
X151423261Y-124826739D01*
X151306705Y-124739385D01*
X151170316Y-124688255D01*
X151108134Y-124681500D01*
X148611866Y-124681500D01*
X148549684Y-124688255D01*
X148413295Y-124739385D01*
X148296739Y-124826739D01*
X148236089Y-124907665D01*
X148230326Y-124915354D01*
X148173467Y-124957869D01*
X148102649Y-124962895D01*
X148040355Y-124928835D01*
X148006365Y-124866504D01*
X148003500Y-124839789D01*
X148003500Y-124795305D01*
X148023502Y-124727184D01*
X148040405Y-124706210D01*
X149463306Y-123283309D01*
X149525618Y-123249283D01*
X149577518Y-123248933D01*
X149698597Y-123273567D01*
X149703772Y-123273757D01*
X149703774Y-123273757D01*
X149916673Y-123281564D01*
X149916677Y-123281564D01*
X149921837Y-123281753D01*
X149926957Y-123281097D01*
X149926959Y-123281097D01*
X150138288Y-123254025D01*
X150138289Y-123254025D01*
X150143416Y-123253368D01*
X150148549Y-123251828D01*
X150352429Y-123190661D01*
X150352434Y-123190659D01*
X150357384Y-123189174D01*
X150557994Y-123090896D01*
X150739860Y-122961173D01*
X150792450Y-122908767D01*
X150890477Y-122811081D01*
X150898096Y-122803489D01*
X150907670Y-122790166D01*
X151025435Y-122626277D01*
X151028453Y-122622077D01*
X151034669Y-122609501D01*
X151125136Y-122426453D01*
X151125137Y-122426451D01*
X151127430Y-122421811D01*
X151192370Y-122208069D01*
X151193438Y-122199961D01*
X151209487Y-122078054D01*
X151238209Y-122013126D01*
X151297475Y-121974035D01*
X151334409Y-121968500D01*
X152699695Y-121968500D01*
X152767816Y-121988502D01*
X152788790Y-122005405D01*
X155071844Y-124288459D01*
X155077698Y-124294724D01*
X155114290Y-124336670D01*
X155164626Y-124372046D01*
X155169912Y-124375972D01*
X155211756Y-124408782D01*
X155218328Y-124413935D01*
X155225249Y-124417060D01*
X155229564Y-124419673D01*
X155238976Y-124425042D01*
X155243424Y-124427427D01*
X155249639Y-124431795D01*
X155306952Y-124454140D01*
X155313034Y-124456697D01*
X155337368Y-124467684D01*
X155369104Y-124482014D01*
X155376576Y-124483399D01*
X155381427Y-124484919D01*
X155391757Y-124487862D01*
X155396696Y-124489130D01*
X155403772Y-124491889D01*
X155411303Y-124492881D01*
X155411305Y-124492881D01*
X155464785Y-124499922D01*
X155471279Y-124500950D01*
X155531767Y-124512160D01*
X155539348Y-124511723D01*
X155539349Y-124511723D01*
X155591625Y-124508709D01*
X155598877Y-124508500D01*
X156294022Y-124508500D01*
X156358161Y-124526047D01*
X156408550Y-124555847D01*
X156456399Y-124584145D01*
X156464010Y-124586356D01*
X156464012Y-124586357D01*
X156508536Y-124599292D01*
X156616169Y-124630562D01*
X156622574Y-124631066D01*
X156622579Y-124631067D01*
X156651042Y-124633307D01*
X156651050Y-124633307D01*
X156653498Y-124633500D01*
X158436502Y-124633500D01*
X158438950Y-124633307D01*
X158438958Y-124633307D01*
X158467421Y-124631067D01*
X158467426Y-124631066D01*
X158473831Y-124630562D01*
X158581464Y-124599292D01*
X158625988Y-124586357D01*
X158625990Y-124586356D01*
X158633601Y-124584145D01*
X158688018Y-124551963D01*
X158769980Y-124503491D01*
X158769983Y-124503489D01*
X158776807Y-124499453D01*
X158894453Y-124381807D01*
X158898489Y-124374983D01*
X158898491Y-124374980D01*
X158975108Y-124245427D01*
X158979145Y-124238601D01*
X158989917Y-124201525D01*
X159013880Y-124119040D01*
X159025562Y-124078831D01*
X159027360Y-124055997D01*
X159028307Y-124043958D01*
X159028307Y-124043950D01*
X159028500Y-124041502D01*
X159028500Y-123608498D01*
X159028132Y-123603821D01*
X159026067Y-123577579D01*
X159026066Y-123577574D01*
X159025562Y-123571169D01*
X158979145Y-123411399D01*
X158922030Y-123314823D01*
X158898493Y-123275024D01*
X158898492Y-123275023D01*
X158894453Y-123268193D01*
X158891513Y-123265253D01*
X158866180Y-123200734D01*
X158880079Y-123131111D01*
X158892126Y-123112364D01*
X158898090Y-123104676D01*
X158974648Y-122975221D01*
X158980893Y-122960790D01*
X159019939Y-122826395D01*
X159019899Y-122812294D01*
X159012630Y-122809000D01*
X156083122Y-122809000D01*
X156069591Y-122812973D01*
X156068456Y-122820871D01*
X156109107Y-122960790D01*
X156111126Y-122965455D01*
X156119826Y-123035917D01*
X156089050Y-123099896D01*
X156028570Y-123137080D01*
X155995491Y-123141500D01*
X155910305Y-123141500D01*
X155842184Y-123121498D01*
X155821210Y-123104595D01*
X154900210Y-122183595D01*
X154866184Y-122121283D01*
X154871249Y-122050468D01*
X154913796Y-121993632D01*
X154980316Y-121968821D01*
X154989305Y-121968500D01*
X155995491Y-121968500D01*
X156063612Y-121988502D01*
X156110105Y-122042158D01*
X156120209Y-122112432D01*
X156111126Y-122144545D01*
X156109107Y-122149210D01*
X156070061Y-122283605D01*
X156070101Y-122297706D01*
X156077370Y-122301000D01*
X159006878Y-122301000D01*
X159020409Y-122297027D01*
X159021544Y-122289129D01*
X158980893Y-122149210D01*
X158978874Y-122144545D01*
X158970174Y-122074083D01*
X159000950Y-122010104D01*
X159061430Y-121972920D01*
X159094509Y-121968500D01*
X160944941Y-121968500D01*
X161013062Y-121988502D01*
X161059555Y-122042158D01*
X161069659Y-122112432D01*
X161062027Y-122139417D01*
X161060855Y-122141399D01*
X161058644Y-122149010D01*
X161058643Y-122149012D01*
X161048596Y-122183595D01*
X161014438Y-122301169D01*
X161013934Y-122307574D01*
X161013933Y-122307579D01*
X161012827Y-122321632D01*
X161011500Y-122338498D01*
X161011500Y-122520406D01*
X160991498Y-122588527D01*
X160974595Y-122609501D01*
X160293514Y-123290581D01*
X159622815Y-123961280D01*
X159604547Y-123976395D01*
X159597729Y-123981028D01*
X159592485Y-123986976D01*
X159592484Y-123986977D01*
X159560589Y-124023155D01*
X159555170Y-124028925D01*
X159543865Y-124040230D01*
X159541435Y-124043363D01*
X159534057Y-124052874D01*
X159529012Y-124058972D01*
X159491880Y-124101090D01*
X159488281Y-124108154D01*
X159488280Y-124108155D01*
X159488140Y-124108429D01*
X159475434Y-124128450D01*
X159475248Y-124128690D01*
X159475246Y-124128694D01*
X159470386Y-124134959D01*
X159467236Y-124142238D01*
X159448079Y-124186507D01*
X159444722Y-124193642D01*
X159419215Y-124243704D01*
X159417417Y-124251749D01*
X159410091Y-124274294D01*
X159406819Y-124281855D01*
X159405579Y-124289685D01*
X159398033Y-124337326D01*
X159396549Y-124345101D01*
X159394051Y-124356278D01*
X159384298Y-124399909D01*
X159384547Y-124407832D01*
X159384547Y-124407833D01*
X159384557Y-124408141D01*
X159383067Y-124431815D01*
X159381780Y-124439943D01*
X159382526Y-124447835D01*
X159382526Y-124447836D01*
X159387065Y-124495858D01*
X159387562Y-124503755D01*
X159387928Y-124515400D01*
X159389327Y-124559889D01*
X159391539Y-124567501D01*
X159391624Y-124567794D01*
X159396068Y-124591094D01*
X159396843Y-124599292D01*
X159411463Y-124639901D01*
X159415871Y-124652144D01*
X159418317Y-124659673D01*
X159431770Y-124705981D01*
X159431772Y-124705985D01*
X159433982Y-124713593D01*
X159438017Y-124720416D01*
X159438019Y-124720420D01*
X159438177Y-124720688D01*
X159448267Y-124742132D01*
X159448372Y-124742423D01*
X159448376Y-124742431D01*
X159451061Y-124749889D01*
X159482646Y-124796365D01*
X159486855Y-124802996D01*
X159515458Y-124851362D01*
X159521278Y-124857182D01*
X159536394Y-124875453D01*
X159541028Y-124882271D01*
X159546976Y-124887515D01*
X159546977Y-124887516D01*
X159583163Y-124919418D01*
X159588933Y-124924837D01*
X160240854Y-125576758D01*
X160248398Y-125585048D01*
X160252511Y-125591529D01*
X160258288Y-125596954D01*
X160302178Y-125638169D01*
X160305020Y-125640924D01*
X160324741Y-125660645D01*
X160327936Y-125663123D01*
X160336958Y-125670829D01*
X160369190Y-125701097D01*
X160376139Y-125704917D01*
X160386943Y-125710857D01*
X160403467Y-125721710D01*
X160419470Y-125734124D01*
X160460054Y-125751687D01*
X160470684Y-125756894D01*
X160509451Y-125778206D01*
X160517128Y-125780177D01*
X160517133Y-125780179D01*
X160529069Y-125783243D01*
X160547777Y-125789648D01*
X160566366Y-125797692D01*
X160574194Y-125798932D01*
X160574201Y-125798934D01*
X160610035Y-125804610D01*
X160621655Y-125807016D01*
X160642751Y-125812432D01*
X160664481Y-125818011D01*
X160684735Y-125818011D01*
X160704445Y-125819562D01*
X160724454Y-125822731D01*
X160732346Y-125821985D01*
X160768472Y-125818570D01*
X160780330Y-125818011D01*
X162245405Y-125818011D01*
X162313526Y-125838013D01*
X162334501Y-125854916D01*
X163096489Y-126616905D01*
X163130514Y-126679217D01*
X163125449Y-126750033D01*
X163082902Y-126806868D01*
X163016382Y-126831679D01*
X163007393Y-126832000D01*
X162767115Y-126832000D01*
X162751876Y-126836475D01*
X162750671Y-126837865D01*
X162749000Y-126845548D01*
X162749000Y-127763000D01*
X162728998Y-127831121D01*
X162675342Y-127877614D01*
X162623000Y-127889000D01*
X161020116Y-127889000D01*
X161004877Y-127893475D01*
X161003672Y-127894865D01*
X161002001Y-127902548D01*
X161002001Y-127927578D01*
X161002456Y-127935135D01*
X161011869Y-128012928D01*
X161015819Y-128028480D01*
X161065081Y-128152901D01*
X161073438Y-128167733D01*
X161092925Y-128193405D01*
X161118179Y-128259758D01*
X161103551Y-128329232D01*
X161092927Y-128345764D01*
X161077157Y-128366541D01*
X161067803Y-128378864D01*
X161012351Y-128518921D01*
X161001500Y-128608587D01*
X161001500Y-128612376D01*
X161001501Y-129005657D01*
X160981499Y-129073777D01*
X160964596Y-129094752D01*
X159627747Y-130431601D01*
X159619461Y-130439141D01*
X159612982Y-130443253D01*
X159607557Y-130449030D01*
X159566357Y-130492904D01*
X159563602Y-130495746D01*
X159543865Y-130515483D01*
X159541385Y-130518680D01*
X159533682Y-130527700D01*
X159503414Y-130559932D01*
X159499595Y-130566878D01*
X159499593Y-130566881D01*
X159493652Y-130577687D01*
X159482801Y-130594206D01*
X159470386Y-130610212D01*
X159467241Y-130617481D01*
X159467238Y-130617485D01*
X159452826Y-130650790D01*
X159447609Y-130661440D01*
X159426305Y-130700193D01*
X159424334Y-130707868D01*
X159424334Y-130707869D01*
X159421267Y-130719815D01*
X159414863Y-130738519D01*
X159406819Y-130757108D01*
X159405580Y-130764931D01*
X159405577Y-130764941D01*
X159399901Y-130800777D01*
X159397495Y-130812397D01*
X159389021Y-130845405D01*
X159386500Y-130855223D01*
X159386500Y-130875477D01*
X159384949Y-130895187D01*
X159381780Y-130915196D01*
X159382526Y-130923088D01*
X159385941Y-130959214D01*
X159386500Y-130971072D01*
X159386500Y-131224095D01*
X159385973Y-131235278D01*
X159384298Y-131242771D01*
X159384547Y-131250697D01*
X159384547Y-131250698D01*
X159386438Y-131310848D01*
X159386500Y-131314807D01*
X159386500Y-131342718D01*
X159386997Y-131346652D01*
X159386997Y-131346653D01*
X159387005Y-131346718D01*
X159387938Y-131358555D01*
X159389327Y-131402751D01*
X159393080Y-131415668D01*
X159394978Y-131422201D01*
X159398987Y-131441562D01*
X159401526Y-131461659D01*
X159404445Y-131469030D01*
X159404445Y-131469032D01*
X159417804Y-131502774D01*
X159421649Y-131514004D01*
X159433982Y-131556455D01*
X159438015Y-131563274D01*
X159438017Y-131563279D01*
X159444293Y-131573890D01*
X159452988Y-131591638D01*
X159460448Y-131610479D01*
X159465110Y-131616895D01*
X159465110Y-131616896D01*
X159486436Y-131646249D01*
X159492952Y-131656169D01*
X159515458Y-131694224D01*
X159529779Y-131708545D01*
X159542619Y-131723578D01*
X159554528Y-131739969D01*
X159560634Y-131745020D01*
X159588605Y-131768160D01*
X159597384Y-131776150D01*
X159909847Y-132088613D01*
X159924963Y-132106884D01*
X159929597Y-132113702D01*
X159935544Y-132118945D01*
X159954201Y-132135393D01*
X159964512Y-132145597D01*
X159991757Y-132175856D01*
X159997093Y-132179733D01*
X159997102Y-132179741D01*
X160034369Y-132206817D01*
X160043629Y-132214235D01*
X160049659Y-132219551D01*
X160056723Y-132223150D01*
X160057080Y-132223393D01*
X160060310Y-132225663D01*
X160146258Y-132288108D01*
X160152286Y-132290792D01*
X160152288Y-132290793D01*
X160278694Y-132347072D01*
X160320722Y-132365784D01*
X160414122Y-132385637D01*
X160501066Y-132404118D01*
X160501071Y-132404118D01*
X160507523Y-132405490D01*
X160698497Y-132405490D01*
X160704949Y-132404118D01*
X160704954Y-132404118D01*
X160791898Y-132385637D01*
X160885298Y-132365784D01*
X160927326Y-132347072D01*
X161053732Y-132290793D01*
X161053734Y-132290792D01*
X161059762Y-132288108D01*
X161175361Y-132204120D01*
X161242229Y-132180262D01*
X161295803Y-132188903D01*
X161418921Y-132237649D01*
X161508587Y-132248500D01*
X162494349Y-132248500D01*
X163481412Y-132248499D01*
X163485169Y-132248044D01*
X163485175Y-132248044D01*
X163563046Y-132238621D01*
X163571079Y-132237649D01*
X163578602Y-132234671D01*
X163578604Y-132234670D01*
X163666102Y-132200027D01*
X163711136Y-132182197D01*
X163831122Y-132091122D01*
X163922197Y-131971136D01*
X163977649Y-131831079D01*
X163988500Y-131741413D01*
X163988499Y-131344342D01*
X164008501Y-131276222D01*
X164025400Y-131255251D01*
X164883281Y-130397371D01*
X164945591Y-130363347D01*
X165016407Y-130368412D01*
X165061469Y-130397373D01*
X167136343Y-132472247D01*
X167143887Y-132480537D01*
X167148000Y-132487018D01*
X167153777Y-132492443D01*
X167197667Y-132533658D01*
X167200509Y-132536413D01*
X167220230Y-132556134D01*
X167223425Y-132558612D01*
X167232447Y-132566318D01*
X167264679Y-132596586D01*
X167271628Y-132600406D01*
X167282432Y-132606346D01*
X167298956Y-132617199D01*
X167314959Y-132629613D01*
X167355543Y-132647176D01*
X167366173Y-132652383D01*
X167404940Y-132673695D01*
X167412617Y-132675666D01*
X167412622Y-132675668D01*
X167424558Y-132678732D01*
X167443266Y-132685137D01*
X167461855Y-132693181D01*
X167469680Y-132694420D01*
X167469682Y-132694421D01*
X167505519Y-132700097D01*
X167517140Y-132702504D01*
X167552289Y-132711528D01*
X167559970Y-132713500D01*
X167580231Y-132713500D01*
X167599940Y-132715051D01*
X167619943Y-132718219D01*
X167627835Y-132717473D01*
X167633062Y-132716979D01*
X167663954Y-132714059D01*
X167675811Y-132713500D01*
X167735500Y-132713500D01*
X167803621Y-132733502D01*
X167850114Y-132787158D01*
X167861500Y-132839500D01*
X167861500Y-133328134D01*
X167868255Y-133390316D01*
X167919385Y-133526705D01*
X168006739Y-133643261D01*
X168123295Y-133730615D01*
X168259684Y-133781745D01*
X168321866Y-133788500D01*
X169360500Y-133788500D01*
X169428621Y-133808502D01*
X169475114Y-133862158D01*
X169486500Y-133914500D01*
X169486500Y-134481233D01*
X169485973Y-134492416D01*
X169484298Y-134499909D01*
X169484547Y-134507835D01*
X169484547Y-134507836D01*
X169486438Y-134567986D01*
X169486500Y-134571945D01*
X169486500Y-134599856D01*
X169486997Y-134603790D01*
X169486997Y-134603791D01*
X169487005Y-134603856D01*
X169487938Y-134615693D01*
X169489327Y-134659889D01*
X169494978Y-134679339D01*
X169498987Y-134698700D01*
X169501526Y-134718797D01*
X169504445Y-134726168D01*
X169504445Y-134726170D01*
X169517804Y-134759912D01*
X169521649Y-134771142D01*
X169533982Y-134813593D01*
X169538015Y-134820412D01*
X169538017Y-134820417D01*
X169544293Y-134831028D01*
X169552988Y-134848776D01*
X169560448Y-134867617D01*
X169565110Y-134874033D01*
X169565110Y-134874034D01*
X169586436Y-134903387D01*
X169592952Y-134913307D01*
X169615458Y-134951362D01*
X169629782Y-134965686D01*
X169642617Y-134980713D01*
X169654528Y-134997107D01*
X169660637Y-135002161D01*
X169660640Y-135002164D01*
X169677090Y-135015773D01*
X169687417Y-135026099D01*
X169688000Y-135027018D01*
X169725421Y-135062158D01*
X169737653Y-135073645D01*
X169740495Y-135076400D01*
X169760230Y-135096135D01*
X169763427Y-135098615D01*
X169772447Y-135106318D01*
X169804679Y-135136586D01*
X169811625Y-135140405D01*
X169811628Y-135140407D01*
X169822434Y-135146348D01*
X169838953Y-135157199D01*
X169854959Y-135169614D01*
X169862228Y-135172759D01*
X169862232Y-135172762D01*
X169895537Y-135187174D01*
X169906187Y-135192391D01*
X169944940Y-135213695D01*
X169961793Y-135218022D01*
X169964562Y-135218733D01*
X169983267Y-135225137D01*
X170001855Y-135233181D01*
X170009678Y-135234420D01*
X170009688Y-135234423D01*
X170045524Y-135240099D01*
X170057144Y-135242505D01*
X170088959Y-135250673D01*
X170099970Y-135253500D01*
X170120224Y-135253500D01*
X170139934Y-135255051D01*
X170159943Y-135258220D01*
X170167835Y-135257474D01*
X170186580Y-135255702D01*
X170203962Y-135254059D01*
X170215819Y-135253500D01*
X178985215Y-135253500D01*
X179053336Y-135273502D01*
X179099829Y-135327158D01*
X179109933Y-135397432D01*
X179080439Y-135462012D01*
X179074310Y-135468595D01*
X177336541Y-137206364D01*
X177330276Y-137212218D01*
X177288330Y-137248810D01*
X177252934Y-137299175D01*
X177249022Y-137304440D01*
X177211065Y-137352848D01*
X177207939Y-137359772D01*
X177205329Y-137364081D01*
X177199958Y-137373496D01*
X177197573Y-137377944D01*
X177193205Y-137384159D01*
X177190446Y-137391236D01*
X177170858Y-137441477D01*
X177168306Y-137447549D01*
X177142986Y-137503625D01*
X177141600Y-137511102D01*
X177140090Y-137515922D01*
X177137118Y-137526355D01*
X177135870Y-137531216D01*
X177133111Y-137538292D01*
X177132120Y-137545822D01*
X177125082Y-137599282D01*
X177124050Y-137605798D01*
X177112839Y-137666287D01*
X177113276Y-137673867D01*
X177113276Y-137673868D01*
X177116291Y-137726162D01*
X177116500Y-137733414D01*
X177116500Y-138215500D01*
X177096498Y-138283621D01*
X177042842Y-138330114D01*
X176990500Y-138341500D01*
X176901866Y-138341500D01*
X176839684Y-138348255D01*
X176703295Y-138399385D01*
X176586739Y-138486739D01*
X176499385Y-138603295D01*
X176448255Y-138739684D01*
X176441500Y-138801866D01*
X176441500Y-140598134D01*
X176448255Y-140660316D01*
X176499385Y-140796705D01*
X176586739Y-140913261D01*
X176703295Y-141000615D01*
X176839684Y-141051745D01*
X176901866Y-141058500D01*
X178698134Y-141058500D01*
X178760316Y-141051745D01*
X178896705Y-141000615D01*
X179013261Y-140913261D01*
X179100615Y-140796705D01*
X179144798Y-140678848D01*
X179187440Y-140622084D01*
X179254001Y-140597384D01*
X179323350Y-140612592D01*
X179358017Y-140640580D01*
X179383218Y-140669673D01*
X179390580Y-140676883D01*
X179554434Y-140812916D01*
X179562881Y-140818831D01*
X179746756Y-140926279D01*
X179756042Y-140930729D01*
X179955001Y-141006703D01*
X179964899Y-141009579D01*
X180068250Y-141030606D01*
X180082299Y-141029410D01*
X180086000Y-141019065D01*
X180086000Y-141018517D01*
X180594000Y-141018517D01*
X180598064Y-141032359D01*
X180611478Y-141034393D01*
X180618184Y-141033534D01*
X180628262Y-141031392D01*
X180832255Y-140970191D01*
X180841842Y-140966433D01*
X181033095Y-140872739D01*
X181041945Y-140867464D01*
X181215328Y-140743792D01*
X181223200Y-140737139D01*
X181374052Y-140586812D01*
X181380730Y-140578965D01*
X181508022Y-140401819D01*
X181509279Y-140402722D01*
X181556373Y-140359362D01*
X181626311Y-140347145D01*
X181691751Y-140374678D01*
X181719579Y-140406511D01*
X181779987Y-140505088D01*
X181926250Y-140673938D01*
X182098126Y-140816632D01*
X182291000Y-140929338D01*
X182499692Y-141009030D01*
X182504760Y-141010061D01*
X182504763Y-141010062D01*
X182593094Y-141028033D01*
X182718597Y-141053567D01*
X182723772Y-141053757D01*
X182723774Y-141053757D01*
X182936673Y-141061564D01*
X182936677Y-141061564D01*
X182941837Y-141061753D01*
X182946957Y-141061097D01*
X182946959Y-141061097D01*
X183158288Y-141034025D01*
X183158289Y-141034025D01*
X183163416Y-141033368D01*
X183168366Y-141031883D01*
X183372429Y-140970661D01*
X183372434Y-140970659D01*
X183377384Y-140969174D01*
X183577994Y-140870896D01*
X183759860Y-140741173D01*
X183918096Y-140583489D01*
X184048453Y-140402077D01*
X184049776Y-140403028D01*
X184096645Y-140359857D01*
X184166580Y-140347625D01*
X184232026Y-140375144D01*
X184259875Y-140406994D01*
X184319987Y-140505088D01*
X184466250Y-140673938D01*
X184638126Y-140816632D01*
X184831000Y-140929338D01*
X185039692Y-141009030D01*
X185044760Y-141010061D01*
X185044763Y-141010062D01*
X185133094Y-141028033D01*
X185258597Y-141053567D01*
X185263772Y-141053757D01*
X185263774Y-141053757D01*
X185476673Y-141061564D01*
X185476677Y-141061564D01*
X185481837Y-141061753D01*
X185486957Y-141061097D01*
X185486959Y-141061097D01*
X185698288Y-141034025D01*
X185698289Y-141034025D01*
X185703416Y-141033368D01*
X185708366Y-141031883D01*
X185912429Y-140970661D01*
X185912434Y-140970659D01*
X185917384Y-140969174D01*
X186117994Y-140870896D01*
X186299860Y-140741173D01*
X186458096Y-140583489D01*
X186588453Y-140402077D01*
X186601995Y-140374678D01*
X186685136Y-140206453D01*
X186685137Y-140206451D01*
X186687430Y-140201811D01*
X186752370Y-139988069D01*
X186781529Y-139766590D01*
X186781611Y-139763240D01*
X186783074Y-139703365D01*
X186783074Y-139703361D01*
X186783156Y-139700000D01*
X186764852Y-139477361D01*
X186710431Y-139260702D01*
X186621354Y-139055840D01*
X186500014Y-138868277D01*
X186349670Y-138703051D01*
X186345619Y-138699852D01*
X186345615Y-138699848D01*
X186178414Y-138567800D01*
X186178410Y-138567798D01*
X186174359Y-138564598D01*
X186138028Y-138544542D01*
X186091830Y-138519040D01*
X185978789Y-138456638D01*
X185973920Y-138454914D01*
X185973916Y-138454912D01*
X185773087Y-138383795D01*
X185773083Y-138383794D01*
X185768212Y-138382069D01*
X185763119Y-138381162D01*
X185763116Y-138381161D01*
X185553373Y-138343800D01*
X185553367Y-138343799D01*
X185548284Y-138342894D01*
X185474452Y-138341992D01*
X185330081Y-138340228D01*
X185330079Y-138340228D01*
X185324911Y-138340165D01*
X185104091Y-138373955D01*
X184891756Y-138443357D01*
X184818757Y-138481358D01*
X184701762Y-138542262D01*
X184693607Y-138546507D01*
X184689474Y-138549610D01*
X184689471Y-138549612D01*
X184519100Y-138677530D01*
X184514965Y-138680635D01*
X184511393Y-138684373D01*
X184403729Y-138797037D01*
X184360629Y-138842138D01*
X184253201Y-138999621D01*
X184198293Y-139044621D01*
X184127768Y-139052792D01*
X184064021Y-139021538D01*
X184043324Y-138997054D01*
X183962822Y-138872617D01*
X183962820Y-138872614D01*
X183960014Y-138868277D01*
X183809670Y-138703051D01*
X183805619Y-138699852D01*
X183805615Y-138699848D01*
X183638414Y-138567800D01*
X183638410Y-138567798D01*
X183634359Y-138564598D01*
X183598028Y-138544542D01*
X183551830Y-138519040D01*
X183438789Y-138456638D01*
X183433920Y-138454914D01*
X183433916Y-138454912D01*
X183233087Y-138383795D01*
X183233083Y-138383794D01*
X183228212Y-138382069D01*
X183223119Y-138381162D01*
X183223116Y-138381161D01*
X183013373Y-138343800D01*
X183013367Y-138343799D01*
X183008284Y-138342894D01*
X182934452Y-138341992D01*
X182790081Y-138340228D01*
X182790079Y-138340228D01*
X182784911Y-138340165D01*
X182564091Y-138373955D01*
X182351756Y-138443357D01*
X182278757Y-138481358D01*
X182161762Y-138542262D01*
X182153607Y-138546507D01*
X182149474Y-138549610D01*
X182149471Y-138549612D01*
X181979100Y-138677530D01*
X181974965Y-138680635D01*
X181971393Y-138684373D01*
X181863729Y-138797037D01*
X181820629Y-138842138D01*
X181713204Y-138999618D01*
X181712898Y-139000066D01*
X181657987Y-139045069D01*
X181587462Y-139053240D01*
X181523715Y-139021986D01*
X181503018Y-138997502D01*
X181422426Y-138872926D01*
X181416136Y-138864757D01*
X181272806Y-138707240D01*
X181265273Y-138700215D01*
X181098139Y-138568222D01*
X181089552Y-138562517D01*
X180903117Y-138459599D01*
X180893705Y-138455369D01*
X180692959Y-138384280D01*
X180682988Y-138381646D01*
X180611837Y-138368972D01*
X180598540Y-138370432D01*
X180594000Y-138384989D01*
X180594000Y-141018517D01*
X180086000Y-141018517D01*
X180086000Y-138383102D01*
X180082082Y-138369758D01*
X180067806Y-138367771D01*
X180029324Y-138373660D01*
X180019288Y-138376051D01*
X179816868Y-138442212D01*
X179807359Y-138446209D01*
X179618463Y-138544542D01*
X179609738Y-138550036D01*
X179439433Y-138677905D01*
X179431726Y-138684748D01*
X179354478Y-138765584D01*
X179292954Y-138801014D01*
X179222042Y-138797557D01*
X179164255Y-138756311D01*
X179145402Y-138722763D01*
X179103767Y-138611703D01*
X179100615Y-138603295D01*
X179013261Y-138486739D01*
X178896705Y-138399385D01*
X178760316Y-138348255D01*
X178698134Y-138341500D01*
X178609500Y-138341500D01*
X178541379Y-138321498D01*
X178494886Y-138267842D01*
X178483500Y-138215500D01*
X178483500Y-138044825D01*
X178503502Y-137976704D01*
X178520405Y-137955730D01*
X180138055Y-136338080D01*
X180200367Y-136304054D01*
X180239408Y-136301915D01*
X180244513Y-136303000D01*
X180435487Y-136303000D01*
X180441939Y-136301628D01*
X180441944Y-136301628D01*
X180530760Y-136282749D01*
X180622288Y-136263294D01*
X180628319Y-136260609D01*
X180790722Y-136188303D01*
X180790724Y-136188302D01*
X180796752Y-136185618D01*
X180803329Y-136180840D01*
X180905011Y-136106963D01*
X180951253Y-136073366D01*
X181079040Y-135931444D01*
X181174527Y-135766056D01*
X181233542Y-135584428D01*
X181237865Y-135543303D01*
X181252814Y-135401065D01*
X181253504Y-135394500D01*
X181252814Y-135387935D01*
X181252814Y-135381329D01*
X181255384Y-135381329D01*
X181266091Y-135322818D01*
X181314600Y-135270977D01*
X181378622Y-135253500D01*
X182801233Y-135253500D01*
X182812416Y-135254027D01*
X182819909Y-135255702D01*
X182827835Y-135255453D01*
X182827836Y-135255453D01*
X182887986Y-135253562D01*
X182891945Y-135253500D01*
X182919856Y-135253500D01*
X182923791Y-135253003D01*
X182923856Y-135252995D01*
X182935693Y-135252062D01*
X182967951Y-135251048D01*
X182971970Y-135250922D01*
X182979889Y-135250673D01*
X182999343Y-135245021D01*
X183018700Y-135241013D01*
X183030930Y-135239468D01*
X183030931Y-135239468D01*
X183038797Y-135238474D01*
X183046168Y-135235555D01*
X183046170Y-135235555D01*
X183079912Y-135222196D01*
X183091142Y-135218351D01*
X183125983Y-135208229D01*
X183125984Y-135208229D01*
X183133593Y-135206018D01*
X183140412Y-135201985D01*
X183140417Y-135201983D01*
X183151028Y-135195707D01*
X183168776Y-135187012D01*
X183187617Y-135179552D01*
X183223387Y-135153564D01*
X183233307Y-135147048D01*
X183264535Y-135128580D01*
X183264538Y-135128578D01*
X183271362Y-135124542D01*
X183285683Y-135110221D01*
X183300717Y-135097380D01*
X183310694Y-135090131D01*
X183317107Y-135085472D01*
X183322158Y-135079367D01*
X183322163Y-135079362D01*
X183345299Y-135051396D01*
X183353287Y-135042618D01*
X184222253Y-134173652D01*
X184230539Y-134166112D01*
X184237018Y-134162000D01*
X184283644Y-134112348D01*
X184286398Y-134109507D01*
X184306135Y-134089770D01*
X184308615Y-134086573D01*
X184316320Y-134077551D01*
X184341159Y-134051100D01*
X184346586Y-134045321D01*
X184350405Y-134038375D01*
X184350407Y-134038372D01*
X184356348Y-134027566D01*
X184367199Y-134011047D01*
X184374758Y-134001301D01*
X184379614Y-133995041D01*
X184382759Y-133987772D01*
X184382762Y-133987768D01*
X184397174Y-133954463D01*
X184402391Y-133943813D01*
X184423695Y-133905060D01*
X184428733Y-133885437D01*
X184435137Y-133866734D01*
X184440033Y-133855420D01*
X184440033Y-133855419D01*
X184443181Y-133848145D01*
X184444420Y-133840322D01*
X184444423Y-133840312D01*
X184450099Y-133804476D01*
X184452505Y-133792856D01*
X184461528Y-133757711D01*
X184461528Y-133757710D01*
X184463500Y-133750030D01*
X184463500Y-133729776D01*
X184465051Y-133710065D01*
X184466980Y-133697886D01*
X184468220Y-133690057D01*
X184464059Y-133646038D01*
X184463500Y-133634181D01*
X184463500Y-130739899D01*
X184483502Y-130671778D01*
X184523197Y-130632755D01*
X184548120Y-130617332D01*
X184554348Y-130613478D01*
X184679305Y-130488303D01*
X184686904Y-130475976D01*
X184768275Y-130343968D01*
X184768276Y-130343966D01*
X184772115Y-130337738D01*
X184821511Y-130188812D01*
X184825632Y-130176389D01*
X184825632Y-130176387D01*
X184827797Y-130169861D01*
X184828991Y-130158213D01*
X184834220Y-130107168D01*
X184838500Y-130065400D01*
X184838500Y-129014600D01*
X184838163Y-129011350D01*
X184828238Y-128915692D01*
X184828237Y-128915688D01*
X184827526Y-128908834D01*
X184824177Y-128898794D01*
X184773868Y-128748002D01*
X184771550Y-128741054D01*
X184678478Y-128590652D01*
X184553303Y-128465695D01*
X184520758Y-128445634D01*
X184408968Y-128376725D01*
X184408966Y-128376724D01*
X184402738Y-128372885D01*
X184311223Y-128342531D01*
X184241389Y-128319368D01*
X184241387Y-128319368D01*
X184234861Y-128317203D01*
X184228025Y-128316503D01*
X184228022Y-128316502D01*
X184184969Y-128312091D01*
X184130400Y-128306500D01*
X183835820Y-128306500D01*
X183767699Y-128286498D01*
X183721206Y-128232842D01*
X183711102Y-128162568D01*
X183715987Y-128141564D01*
X183771502Y-127970706D01*
X183773542Y-127964428D01*
X183779565Y-127907128D01*
X183792814Y-127781065D01*
X183793504Y-127774500D01*
X183792814Y-127767935D01*
X183792814Y-127761329D01*
X183795384Y-127761329D01*
X183806091Y-127702818D01*
X183854600Y-127650977D01*
X183918622Y-127633500D01*
X190421233Y-127633500D01*
X190432416Y-127634027D01*
X190439909Y-127635702D01*
X190447835Y-127635453D01*
X190447836Y-127635453D01*
X190507986Y-127633562D01*
X190511945Y-127633500D01*
X190539856Y-127633500D01*
X190543791Y-127633003D01*
X190543856Y-127632995D01*
X190555693Y-127632062D01*
X190587951Y-127631048D01*
X190591970Y-127630922D01*
X190599889Y-127630673D01*
X190619343Y-127625021D01*
X190638700Y-127621013D01*
X190650930Y-127619468D01*
X190650931Y-127619468D01*
X190658797Y-127618474D01*
X190666168Y-127615555D01*
X190666170Y-127615555D01*
X190699912Y-127602196D01*
X190711142Y-127598351D01*
X190745983Y-127588229D01*
X190745984Y-127588229D01*
X190753593Y-127586018D01*
X190760412Y-127581985D01*
X190760417Y-127581983D01*
X190771028Y-127575707D01*
X190788776Y-127567012D01*
X190807617Y-127559552D01*
X190827987Y-127544753D01*
X190843387Y-127533564D01*
X190853307Y-127527048D01*
X190884535Y-127508580D01*
X190884538Y-127508578D01*
X190891362Y-127504542D01*
X190905683Y-127490221D01*
X190920717Y-127477380D01*
X190922432Y-127476134D01*
X190937107Y-127465472D01*
X190965298Y-127431395D01*
X190973288Y-127422616D01*
X194747742Y-123648163D01*
X194756028Y-123640623D01*
X194762507Y-123636511D01*
X194809133Y-123586859D01*
X194811887Y-123584018D01*
X194831624Y-123564281D01*
X194834104Y-123561084D01*
X194841809Y-123552062D01*
X194872075Y-123519832D01*
X194875894Y-123512886D01*
X194875896Y-123512883D01*
X194881837Y-123502077D01*
X194892688Y-123485558D01*
X194900247Y-123475812D01*
X194905103Y-123469552D01*
X194908248Y-123462283D01*
X194908251Y-123462279D01*
X194922663Y-123428974D01*
X194927880Y-123418324D01*
X194949184Y-123379571D01*
X194954222Y-123359948D01*
X194960626Y-123341245D01*
X194965522Y-123329931D01*
X194965522Y-123329930D01*
X194968670Y-123322656D01*
X194969909Y-123314833D01*
X194969912Y-123314823D01*
X194975588Y-123278987D01*
X194977994Y-123267367D01*
X194987017Y-123232222D01*
X194987017Y-123232221D01*
X194988989Y-123224541D01*
X194988989Y-123204287D01*
X194990540Y-123184576D01*
X194992469Y-123172397D01*
X194993709Y-123164568D01*
X194989548Y-123120549D01*
X194988989Y-123108692D01*
X194988989Y-120791559D01*
X195008991Y-120723438D01*
X195062647Y-120676945D01*
X195132921Y-120666841D01*
X195159939Y-120673850D01*
X195177655Y-120680615D01*
X195199692Y-120689030D01*
X195204760Y-120690061D01*
X195204763Y-120690062D01*
X195281676Y-120705710D01*
X195418597Y-120733567D01*
X195423772Y-120733757D01*
X195423774Y-120733757D01*
X195636673Y-120741564D01*
X195636677Y-120741564D01*
X195641837Y-120741753D01*
X195646957Y-120741097D01*
X195646959Y-120741097D01*
X195858288Y-120714025D01*
X195858289Y-120714025D01*
X195863416Y-120713368D01*
X195868373Y-120711881D01*
X195868377Y-120711880D01*
X196008803Y-120669750D01*
X196079798Y-120669332D01*
X196139749Y-120707364D01*
X196169621Y-120771771D01*
X196171011Y-120790435D01*
X196171011Y-124255500D01*
X196151009Y-124323621D01*
X196097353Y-124370114D01*
X196045011Y-124381500D01*
X194681866Y-124381500D01*
X194619684Y-124388255D01*
X194483295Y-124439385D01*
X194366739Y-124526739D01*
X194279385Y-124643295D01*
X194228255Y-124779684D01*
X194221500Y-124841866D01*
X194221500Y-126638134D01*
X194228255Y-126700316D01*
X194279385Y-126836705D01*
X194366739Y-126953261D01*
X194483295Y-127040615D01*
X194491704Y-127043767D01*
X194491705Y-127043768D01*
X194600960Y-127084726D01*
X194657725Y-127127367D01*
X194682425Y-127193929D01*
X194667218Y-127263278D01*
X194647825Y-127289759D01*
X194524590Y-127418717D01*
X194518104Y-127426727D01*
X194398098Y-127602649D01*
X194393000Y-127611623D01*
X194303338Y-127804783D01*
X194299775Y-127814470D01*
X194244389Y-128014183D01*
X194245912Y-128022607D01*
X194258292Y-128026000D01*
X195708000Y-128026000D01*
X195776121Y-128046002D01*
X195822614Y-128099658D01*
X195834000Y-128152000D01*
X195834000Y-128408000D01*
X195813998Y-128476121D01*
X195760342Y-128522614D01*
X195708000Y-128534000D01*
X194263225Y-128534000D01*
X194249694Y-128537973D01*
X194248257Y-128547966D01*
X194278565Y-128682446D01*
X194281645Y-128692275D01*
X194361770Y-128889603D01*
X194366413Y-128898794D01*
X194477694Y-129080388D01*
X194483777Y-129088699D01*
X194623213Y-129249667D01*
X194630580Y-129256883D01*
X194794434Y-129392916D01*
X194802881Y-129398831D01*
X194871969Y-129439203D01*
X194920693Y-129490842D01*
X194933764Y-129560625D01*
X194907033Y-129626396D01*
X194866584Y-129659752D01*
X194853607Y-129666507D01*
X194849474Y-129669610D01*
X194849471Y-129669612D01*
X194679100Y-129797530D01*
X194674965Y-129800635D01*
X194530228Y-129952093D01*
X194468706Y-129987522D01*
X194397793Y-129984065D01*
X194350041Y-129954136D01*
X193987122Y-129591217D01*
X193953096Y-129528905D01*
X193950907Y-129515292D01*
X193948665Y-129493955D01*
X193933542Y-129350072D01*
X193874527Y-129168444D01*
X193779040Y-129003056D01*
X193764798Y-128987238D01*
X193655675Y-128866045D01*
X193655674Y-128866044D01*
X193651253Y-128861134D01*
X193552157Y-128789136D01*
X193502094Y-128752763D01*
X193502093Y-128752762D01*
X193496752Y-128748882D01*
X193490724Y-128746198D01*
X193490722Y-128746197D01*
X193328319Y-128673891D01*
X193328318Y-128673891D01*
X193322288Y-128671206D01*
X193228888Y-128651353D01*
X193141944Y-128632872D01*
X193141939Y-128632872D01*
X193135487Y-128631500D01*
X192944513Y-128631500D01*
X192938061Y-128632872D01*
X192938056Y-128632872D01*
X192851112Y-128651353D01*
X192757712Y-128671206D01*
X192751682Y-128673891D01*
X192751681Y-128673891D01*
X192589278Y-128746197D01*
X192589276Y-128746198D01*
X192583248Y-128748882D01*
X192577907Y-128752762D01*
X192577906Y-128752763D01*
X192527843Y-128789136D01*
X192428747Y-128861134D01*
X192424326Y-128866044D01*
X192424325Y-128866045D01*
X192315203Y-128987238D01*
X192300960Y-129003056D01*
X192205473Y-129168444D01*
X192146458Y-129350072D01*
X192126496Y-129540000D01*
X192127186Y-129546565D01*
X192140208Y-129670458D01*
X192146458Y-129729928D01*
X192205473Y-129911556D01*
X192208776Y-129917278D01*
X192208777Y-129917279D01*
X192229079Y-129952443D01*
X192300960Y-130076944D01*
X192374137Y-130158215D01*
X192404853Y-130222221D01*
X192406500Y-130242524D01*
X192406500Y-134541233D01*
X192405973Y-134552416D01*
X192404298Y-134559909D01*
X192404547Y-134567835D01*
X192404547Y-134567836D01*
X192406438Y-134627986D01*
X192406500Y-134631945D01*
X192406500Y-134659856D01*
X192406997Y-134663790D01*
X192406997Y-134663791D01*
X192407005Y-134663856D01*
X192407938Y-134675693D01*
X192409327Y-134719889D01*
X192414978Y-134739339D01*
X192418987Y-134758700D01*
X192421526Y-134778797D01*
X192424445Y-134786168D01*
X192424445Y-134786170D01*
X192437804Y-134819912D01*
X192441649Y-134831142D01*
X192444310Y-134840302D01*
X192453982Y-134873593D01*
X192458015Y-134880412D01*
X192458017Y-134880417D01*
X192464293Y-134891028D01*
X192472988Y-134908776D01*
X192480448Y-134927617D01*
X192485110Y-134934033D01*
X192485110Y-134934034D01*
X192506436Y-134963387D01*
X192512952Y-134973307D01*
X192530851Y-135003572D01*
X192535458Y-135011362D01*
X192549779Y-135025683D01*
X192562619Y-135040716D01*
X192574528Y-135057107D01*
X192594519Y-135073645D01*
X192608605Y-135085298D01*
X192617384Y-135093288D01*
X195215888Y-137691793D01*
X195249914Y-137754105D01*
X195252103Y-137767716D01*
X195269468Y-137932938D01*
X195328483Y-138114566D01*
X195331786Y-138120288D01*
X195331787Y-138120289D01*
X195365696Y-138179020D01*
X195423970Y-138279954D01*
X195428388Y-138284861D01*
X195428389Y-138284862D01*
X195547335Y-138416965D01*
X195551757Y-138421876D01*
X195706258Y-138534128D01*
X195712286Y-138536812D01*
X195712288Y-138536813D01*
X195861610Y-138603295D01*
X195880722Y-138611804D01*
X195974122Y-138631657D01*
X196061066Y-138650138D01*
X196061071Y-138650138D01*
X196067523Y-138651510D01*
X196258497Y-138651510D01*
X196264949Y-138650138D01*
X196264954Y-138650138D01*
X196351898Y-138631657D01*
X196445298Y-138611804D01*
X196476146Y-138598070D01*
X196613729Y-138536814D01*
X196613731Y-138536813D01*
X196616698Y-138535492D01*
X196616699Y-138535492D01*
X196619762Y-138534128D01*
X196620011Y-138534688D01*
X196684523Y-138519040D01*
X196751614Y-138542262D01*
X196795500Y-138598070D01*
X196802078Y-138669608D01*
X196622695Y-139566527D01*
X196589722Y-139629402D01*
X196527990Y-139664469D01*
X196509249Y-139667410D01*
X196472457Y-139670370D01*
X196437646Y-139668329D01*
X194056000Y-139192000D01*
X192024000Y-141224000D01*
X192020547Y-141229180D01*
X192020545Y-141229182D01*
X191045405Y-142691892D01*
X190990976Y-142737477D01*
X190940567Y-142748000D01*
X187960000Y-142748000D01*
X168477751Y-143018587D01*
X151431146Y-143255345D01*
X151362754Y-143236291D01*
X151348007Y-143225544D01*
X150479726Y-142490845D01*
X148916818Y-141168384D01*
X148877737Y-141109114D01*
X148873043Y-141086681D01*
X148869740Y-141058131D01*
X148853792Y-140920301D01*
X148840334Y-140872739D01*
X148786884Y-140683852D01*
X148786883Y-140683850D01*
X148785506Y-140678983D01*
X148783372Y-140674408D01*
X148783370Y-140674401D01*
X148681653Y-140456269D01*
X148681651Y-140456265D01*
X148679516Y-140451687D01*
X148649143Y-140406994D01*
X148541395Y-140248448D01*
X148541392Y-140248444D01*
X148538549Y-140244261D01*
X148493722Y-140196857D01*
X148369713Y-140065721D01*
X148366233Y-140062041D01*
X148362206Y-140058962D01*
X148171019Y-139912788D01*
X148171015Y-139912785D01*
X148166999Y-139909715D01*
X147945974Y-139791203D01*
X147941193Y-139789557D01*
X147941189Y-139789555D01*
X147713633Y-139711201D01*
X147708844Y-139709552D01*
X147588794Y-139688816D01*
X147465620Y-139667540D01*
X147465614Y-139667539D01*
X147461710Y-139666865D01*
X147457749Y-139666685D01*
X147457748Y-139666685D01*
X147433069Y-139665564D01*
X147433050Y-139665564D01*
X147431650Y-139665500D01*
X147256985Y-139665500D01*
X147254477Y-139665702D01*
X147254472Y-139665702D01*
X147202594Y-139669876D01*
X147133088Y-139655402D01*
X147111100Y-139640469D01*
X145332611Y-138135594D01*
X145293529Y-138076322D01*
X145288000Y-138039407D01*
X145288000Y-113409268D01*
X145308002Y-113341147D01*
X145331477Y-113314053D01*
X152364481Y-107218783D01*
X152429059Y-107189284D01*
X152447002Y-107188000D01*
X167844318Y-107188000D01*
X167912439Y-107208002D01*
G37*
%TD.AperFunction*%
%TA.AperFunction,Conductor*%
G36*
X156763621Y-134386002D02*
G01*
X156810114Y-134439658D01*
X156821500Y-134492000D01*
X156821500Y-134748000D01*
X156801498Y-134816121D01*
X156747842Y-134862614D01*
X156695500Y-134874000D01*
X155565116Y-134874000D01*
X155549877Y-134878475D01*
X155548672Y-134879865D01*
X155547001Y-134887548D01*
X155547001Y-134935020D01*
X155526999Y-135003141D01*
X155473343Y-135049634D01*
X155421001Y-135061020D01*
X155201887Y-135061020D01*
X155133766Y-135041018D01*
X155087273Y-134987362D01*
X155077169Y-134917088D01*
X155106663Y-134852508D01*
X155119498Y-134841028D01*
X155118858Y-134840302D01*
X155124556Y-134835279D01*
X155130815Y-134830977D01*
X155170722Y-134786187D01*
X155175702Y-134780913D01*
X155553710Y-134402905D01*
X155616022Y-134368879D01*
X155642805Y-134366000D01*
X156695500Y-134366000D01*
X156763621Y-134386002D01*
G37*
%TD.AperFunction*%
%TA.AperFunction,Conductor*%
G36*
X184599147Y-116943983D02*
G01*
X184645640Y-116997639D01*
X184655744Y-117067913D01*
X184626250Y-117132493D01*
X184605021Y-117150211D01*
X184605680Y-117151061D01*
X184599411Y-117155924D01*
X184592590Y-117159958D01*
X184578266Y-117174282D01*
X184563234Y-117187121D01*
X184546846Y-117199028D01*
X184518665Y-117233093D01*
X184510675Y-117241873D01*
X184067473Y-117685075D01*
X184005161Y-117719101D01*
X183978378Y-117721980D01*
X183370794Y-117721980D01*
X183359611Y-117721453D01*
X183352118Y-117719778D01*
X183344192Y-117720027D01*
X183344191Y-117720027D01*
X183284041Y-117721918D01*
X183280082Y-117721980D01*
X183252171Y-117721980D01*
X183248237Y-117722477D01*
X183248236Y-117722477D01*
X183248171Y-117722485D01*
X183236334Y-117723418D01*
X183204517Y-117724418D01*
X183200056Y-117724558D01*
X183192137Y-117724807D01*
X183174481Y-117729936D01*
X183172685Y-117730458D01*
X183153333Y-117734466D01*
X183146262Y-117735360D01*
X183133230Y-117737006D01*
X183125861Y-117739923D01*
X183125859Y-117739924D01*
X183092124Y-117753280D01*
X183080896Y-117757125D01*
X183038434Y-117769462D01*
X183031612Y-117773496D01*
X183031606Y-117773499D01*
X183020995Y-117779774D01*
X183003245Y-117788470D01*
X182991783Y-117793008D01*
X182991778Y-117793011D01*
X182984410Y-117795928D01*
X182977995Y-117800589D01*
X182948652Y-117821907D01*
X182938734Y-117828423D01*
X182921296Y-117838736D01*
X182900664Y-117850938D01*
X182886340Y-117865262D01*
X182871308Y-117878101D01*
X182854920Y-117890008D01*
X182826739Y-117924073D01*
X182818749Y-117932853D01*
X182578013Y-118173589D01*
X182515701Y-118207615D01*
X182449251Y-118204087D01*
X182391285Y-118184861D01*
X182377920Y-118181995D01*
X182283562Y-118172328D01*
X182277145Y-118172000D01*
X182239615Y-118172000D01*
X182224376Y-118176475D01*
X182223171Y-118177865D01*
X182221500Y-118185548D01*
X182221500Y-120569884D01*
X182234535Y-120614279D01*
X182241397Y-120624956D01*
X182246500Y-120660451D01*
X182246500Y-121217476D01*
X182226498Y-121285597D01*
X182214142Y-121301779D01*
X182140960Y-121383056D01*
X182099829Y-121454297D01*
X182058144Y-121526498D01*
X182045473Y-121548444D01*
X181986458Y-121730072D01*
X181985768Y-121736633D01*
X181985768Y-121736635D01*
X181980473Y-121787018D01*
X181966496Y-121920000D01*
X181967186Y-121926565D01*
X181984423Y-122090562D01*
X181986458Y-122109928D01*
X182045473Y-122291556D01*
X182048776Y-122297278D01*
X182048777Y-122297279D01*
X182051023Y-122301169D01*
X182140960Y-122456944D01*
X182145378Y-122461851D01*
X182145379Y-122461852D01*
X182228175Y-122553806D01*
X182268747Y-122598866D01*
X182300694Y-122622077D01*
X182412430Y-122703258D01*
X182423248Y-122711118D01*
X182429276Y-122713802D01*
X182429278Y-122713803D01*
X182591681Y-122786109D01*
X182597712Y-122788794D01*
X182684009Y-122807137D01*
X182778056Y-122827128D01*
X182778061Y-122827128D01*
X182784513Y-122828500D01*
X182975487Y-122828500D01*
X182981939Y-122827128D01*
X182981944Y-122827128D01*
X183075991Y-122807137D01*
X183162288Y-122788794D01*
X183168319Y-122786109D01*
X183330722Y-122713803D01*
X183330724Y-122713802D01*
X183336752Y-122711118D01*
X183347571Y-122703258D01*
X183459306Y-122622077D01*
X183491253Y-122598866D01*
X183513988Y-122573616D01*
X183574434Y-122536378D01*
X183631228Y-122534159D01*
X183650359Y-122537808D01*
X183658058Y-122539529D01*
X183692051Y-122548257D01*
X183704793Y-122551529D01*
X183704794Y-122551529D01*
X183712470Y-122553500D01*
X183720707Y-122553500D01*
X183744316Y-122555732D01*
X183744619Y-122555790D01*
X183744623Y-122555790D01*
X183752406Y-122557275D01*
X183808451Y-122553749D01*
X183816362Y-122553500D01*
X184711800Y-122553500D01*
X184779921Y-122573502D01*
X184799147Y-122589843D01*
X184799420Y-122589540D01*
X184804332Y-122593963D01*
X184808747Y-122598866D01*
X184815125Y-122603500D01*
X184952430Y-122703258D01*
X184963248Y-122711118D01*
X184969276Y-122713802D01*
X184969278Y-122713803D01*
X185131681Y-122786109D01*
X185137712Y-122788794D01*
X185224009Y-122807137D01*
X185318056Y-122827128D01*
X185318061Y-122827128D01*
X185324513Y-122828500D01*
X185515487Y-122828500D01*
X185521939Y-122827128D01*
X185521944Y-122827128D01*
X185615991Y-122807137D01*
X185702288Y-122788794D01*
X185708319Y-122786109D01*
X185870722Y-122713803D01*
X185870724Y-122713802D01*
X185876752Y-122711118D01*
X185887571Y-122703258D01*
X185999306Y-122622077D01*
X186031253Y-122598866D01*
X186071825Y-122553806D01*
X186154621Y-122461852D01*
X186154622Y-122461851D01*
X186159040Y-122456944D01*
X186248977Y-122301169D01*
X186251223Y-122297279D01*
X186251224Y-122297278D01*
X186254527Y-122291556D01*
X186313542Y-122109928D01*
X186315578Y-122090562D01*
X186332814Y-121926565D01*
X186333504Y-121920000D01*
X186319527Y-121787018D01*
X186314232Y-121736635D01*
X186314232Y-121736633D01*
X186313542Y-121730072D01*
X186254527Y-121548444D01*
X186241857Y-121526498D01*
X186200171Y-121454297D01*
X186159040Y-121383056D01*
X186043960Y-121255246D01*
X186035675Y-121246045D01*
X186035674Y-121246044D01*
X186031253Y-121241134D01*
X185905535Y-121149794D01*
X185882094Y-121132763D01*
X185882093Y-121132762D01*
X185876752Y-121128882D01*
X185870724Y-121126198D01*
X185870722Y-121126197D01*
X185708319Y-121053891D01*
X185708318Y-121053891D01*
X185702288Y-121051206D01*
X185608888Y-121031353D01*
X185521944Y-121012872D01*
X185521939Y-121012872D01*
X185515487Y-121011500D01*
X185324513Y-121011500D01*
X185318061Y-121012872D01*
X185318056Y-121012872D01*
X185231112Y-121031353D01*
X185137712Y-121051206D01*
X185131682Y-121053891D01*
X185131681Y-121053891D01*
X184969278Y-121126197D01*
X184969276Y-121126198D01*
X184963248Y-121128882D01*
X184957907Y-121132762D01*
X184957906Y-121132763D01*
X184878481Y-121190469D01*
X184808747Y-121241134D01*
X184804332Y-121246037D01*
X184799420Y-121250460D01*
X184798295Y-121249211D01*
X184744986Y-121282051D01*
X184711800Y-121286500D01*
X184552000Y-121286500D01*
X184483879Y-121266498D01*
X184437386Y-121212842D01*
X184426000Y-121160500D01*
X184426000Y-120562634D01*
X184446002Y-120494513D01*
X184485697Y-120455490D01*
X184496759Y-120448645D01*
X184529348Y-120428478D01*
X184543397Y-120414405D01*
X184649134Y-120308483D01*
X184654305Y-120303303D01*
X184658146Y-120297072D01*
X184734808Y-120172704D01*
X184787581Y-120125210D01*
X184857652Y-120113787D01*
X184916129Y-120136884D01*
X184955626Y-120165580D01*
X184963248Y-120171118D01*
X184969276Y-120173802D01*
X184969278Y-120173803D01*
X185058148Y-120213370D01*
X185137712Y-120248794D01*
X185200072Y-120262049D01*
X185318056Y-120287128D01*
X185318061Y-120287128D01*
X185324513Y-120288500D01*
X185515487Y-120288500D01*
X185521939Y-120287128D01*
X185521944Y-120287128D01*
X185639928Y-120262049D01*
X185702288Y-120248794D01*
X185781852Y-120213370D01*
X185870722Y-120173803D01*
X185870724Y-120173802D01*
X185876752Y-120171118D01*
X185882094Y-120167237D01*
X185924185Y-120136656D01*
X185991053Y-120112797D01*
X186060204Y-120128878D01*
X186105390Y-120172289D01*
X186183063Y-120297807D01*
X186192099Y-120309208D01*
X186306829Y-120423739D01*
X186318240Y-120432751D01*
X186456243Y-120517816D01*
X186469424Y-120523963D01*
X186623710Y-120575138D01*
X186637086Y-120578005D01*
X186731438Y-120587672D01*
X186737854Y-120588000D01*
X186775385Y-120588000D01*
X186790624Y-120583525D01*
X186791829Y-120582135D01*
X186793500Y-120574452D01*
X186793500Y-118190116D01*
X186789025Y-118174877D01*
X186787635Y-118173672D01*
X186779952Y-118172001D01*
X186737905Y-118172001D01*
X186731386Y-118172338D01*
X186635794Y-118182257D01*
X186622400Y-118185149D01*
X186468216Y-118236588D01*
X186455038Y-118242762D01*
X186383160Y-118287241D01*
X186314708Y-118306079D01*
X186246939Y-118284918D01*
X186201367Y-118230477D01*
X186192463Y-118160041D01*
X186207738Y-118117097D01*
X186251223Y-118041779D01*
X186251224Y-118041778D01*
X186254527Y-118036056D01*
X186313542Y-117854428D01*
X186316593Y-117825405D01*
X186332814Y-117671065D01*
X186333504Y-117664500D01*
X186331464Y-117645088D01*
X186314232Y-117481135D01*
X186314232Y-117481133D01*
X186313542Y-117474572D01*
X186254527Y-117292944D01*
X186249030Y-117283423D01*
X186162344Y-117133278D01*
X186162342Y-117133275D01*
X186159040Y-117127556D01*
X186155475Y-117123597D01*
X186131775Y-117057178D01*
X186147853Y-116988026D01*
X186198766Y-116938544D01*
X186257569Y-116923981D01*
X187095887Y-116923981D01*
X187164008Y-116943983D01*
X187184982Y-116960886D01*
X188202095Y-117978000D01*
X188236121Y-118040312D01*
X188239000Y-118067095D01*
X188239000Y-118197366D01*
X188218998Y-118265487D01*
X188179304Y-118304509D01*
X188135652Y-118331522D01*
X188130479Y-118336704D01*
X188048862Y-118418463D01*
X187986579Y-118452542D01*
X187915759Y-118447539D01*
X187870671Y-118418618D01*
X187788171Y-118336261D01*
X187776760Y-118327249D01*
X187638757Y-118242184D01*
X187625576Y-118236037D01*
X187471290Y-118184862D01*
X187457914Y-118181995D01*
X187363562Y-118172328D01*
X187357145Y-118172000D01*
X187319615Y-118172000D01*
X187304376Y-118176475D01*
X187303171Y-118177865D01*
X187301500Y-118185548D01*
X187301500Y-120569884D01*
X187305975Y-120585123D01*
X187307365Y-120586328D01*
X187315048Y-120587999D01*
X187357095Y-120587999D01*
X187363614Y-120587662D01*
X187459206Y-120577743D01*
X187472600Y-120574851D01*
X187626784Y-120523412D01*
X187639962Y-120517239D01*
X187777807Y-120431937D01*
X187789208Y-120422901D01*
X187870430Y-120341538D01*
X187932713Y-120307459D01*
X188003533Y-120312462D01*
X188048620Y-120341383D01*
X188131512Y-120424130D01*
X188131517Y-120424134D01*
X188136697Y-120429305D01*
X188142927Y-120433145D01*
X188142928Y-120433146D01*
X188280288Y-120517816D01*
X188287262Y-120522115D01*
X188336984Y-120538607D01*
X188448611Y-120575632D01*
X188448613Y-120575632D01*
X188455139Y-120577797D01*
X188461975Y-120578497D01*
X188461978Y-120578498D01*
X188505031Y-120582909D01*
X188559600Y-120588500D01*
X189185400Y-120588500D01*
X189188646Y-120588163D01*
X189188650Y-120588163D01*
X189284308Y-120578238D01*
X189284312Y-120578237D01*
X189291166Y-120577526D01*
X189297702Y-120575345D01*
X189297704Y-120575345D01*
X189446042Y-120525855D01*
X189458946Y-120521550D01*
X189609348Y-120428478D01*
X189623397Y-120414405D01*
X189729134Y-120308483D01*
X189734305Y-120303303D01*
X189738146Y-120297072D01*
X189823275Y-120158968D01*
X189823276Y-120158966D01*
X189827115Y-120152738D01*
X189844663Y-120099832D01*
X189885094Y-120041473D01*
X189950658Y-120014236D01*
X189964256Y-120013500D01*
X191764274Y-120013500D01*
X191832395Y-120033502D01*
X191871707Y-120073665D01*
X191939987Y-120185088D01*
X192086250Y-120353938D01*
X192180676Y-120432332D01*
X192244430Y-120485261D01*
X192258126Y-120496632D01*
X192451000Y-120609338D01*
X192455825Y-120611180D01*
X192455826Y-120611181D01*
X192491800Y-120624918D01*
X192659692Y-120689030D01*
X192664760Y-120690061D01*
X192664763Y-120690062D01*
X192741676Y-120705710D01*
X192878597Y-120733567D01*
X192883772Y-120733757D01*
X192883774Y-120733757D01*
X193096673Y-120741564D01*
X193096677Y-120741564D01*
X193101837Y-120741753D01*
X193106957Y-120741097D01*
X193106959Y-120741097D01*
X193318288Y-120714025D01*
X193318289Y-120714025D01*
X193323416Y-120713368D01*
X193331732Y-120710873D01*
X193532429Y-120650661D01*
X193532434Y-120650659D01*
X193537384Y-120649174D01*
X193542034Y-120646896D01*
X193546835Y-120645014D01*
X193547395Y-120646443D01*
X193610545Y-120635615D01*
X193675899Y-120663352D01*
X193715882Y-120722019D01*
X193721989Y-120760771D01*
X193721989Y-122829917D01*
X193701987Y-122898038D01*
X193685084Y-122919012D01*
X190274500Y-126329595D01*
X190212188Y-126363621D01*
X190185405Y-126366500D01*
X189648795Y-126366500D01*
X189580674Y-126346498D01*
X189534181Y-126292842D01*
X189524347Y-126220786D01*
X189530099Y-126184475D01*
X189532505Y-126172856D01*
X189541528Y-126137711D01*
X189541528Y-126137710D01*
X189543500Y-126130030D01*
X189543500Y-126109776D01*
X189545051Y-126090065D01*
X189546980Y-126077886D01*
X189548220Y-126070057D01*
X189544059Y-126026038D01*
X189543500Y-126014181D01*
X189543500Y-125659899D01*
X189563502Y-125591778D01*
X189603197Y-125552755D01*
X189612508Y-125546993D01*
X189634348Y-125533478D01*
X189655852Y-125511937D01*
X189754134Y-125413483D01*
X189759305Y-125408303D01*
X189771715Y-125388171D01*
X189848275Y-125263968D01*
X189848276Y-125263966D01*
X189852115Y-125257738D01*
X189882409Y-125166405D01*
X189905632Y-125096389D01*
X189905632Y-125096387D01*
X189907797Y-125089861D01*
X189910396Y-125064500D01*
X189914353Y-125025878D01*
X189918500Y-124985400D01*
X189918500Y-123934600D01*
X189910842Y-123860794D01*
X189908238Y-123835692D01*
X189908237Y-123835688D01*
X189907526Y-123828834D01*
X189898426Y-123801556D01*
X189853868Y-123668002D01*
X189851550Y-123661054D01*
X189758478Y-123510652D01*
X189633303Y-123385695D01*
X189623368Y-123379571D01*
X189488968Y-123296725D01*
X189488966Y-123296724D01*
X189482738Y-123292885D01*
X189438088Y-123278075D01*
X189421994Y-123272737D01*
X189363634Y-123232306D01*
X189336397Y-123166742D01*
X189348931Y-123096860D01*
X189372566Y-123064049D01*
X189783115Y-122653500D01*
X189845427Y-122619474D01*
X189916242Y-122624539D01*
X189946264Y-122640655D01*
X190043248Y-122711118D01*
X190049276Y-122713802D01*
X190049278Y-122713803D01*
X190211681Y-122786109D01*
X190217712Y-122788794D01*
X190304009Y-122807137D01*
X190398056Y-122827128D01*
X190398061Y-122827128D01*
X190404513Y-122828500D01*
X190595487Y-122828500D01*
X190601939Y-122827128D01*
X190601944Y-122827128D01*
X190695991Y-122807137D01*
X190782288Y-122788794D01*
X190788319Y-122786109D01*
X190950722Y-122713803D01*
X190950724Y-122713802D01*
X190956752Y-122711118D01*
X190967571Y-122703258D01*
X191079306Y-122622077D01*
X191111253Y-122598866D01*
X191151825Y-122553806D01*
X191234621Y-122461852D01*
X191234622Y-122461851D01*
X191239040Y-122456944D01*
X191328977Y-122301169D01*
X191331223Y-122297279D01*
X191331224Y-122297278D01*
X191334527Y-122291556D01*
X191393542Y-122109928D01*
X191395578Y-122090562D01*
X191412814Y-121926565D01*
X191413504Y-121920000D01*
X191399527Y-121787018D01*
X191394232Y-121736635D01*
X191394232Y-121736633D01*
X191393542Y-121730072D01*
X191334527Y-121548444D01*
X191321857Y-121526498D01*
X191280171Y-121454297D01*
X191239040Y-121383056D01*
X191123960Y-121255246D01*
X191115675Y-121246045D01*
X191115674Y-121246044D01*
X191111253Y-121241134D01*
X190985535Y-121149794D01*
X190962094Y-121132763D01*
X190962093Y-121132762D01*
X190956752Y-121128882D01*
X190950724Y-121126198D01*
X190950722Y-121126197D01*
X190788319Y-121053891D01*
X190788318Y-121053891D01*
X190782288Y-121051206D01*
X190688888Y-121031353D01*
X190601944Y-121012872D01*
X190601939Y-121012872D01*
X190595487Y-121011500D01*
X190404513Y-121011500D01*
X190398061Y-121012872D01*
X190398056Y-121012872D01*
X190311112Y-121031353D01*
X190217712Y-121051206D01*
X190211682Y-121053891D01*
X190211681Y-121053891D01*
X190049278Y-121126197D01*
X190049276Y-121126198D01*
X190043248Y-121128882D01*
X190037907Y-121132762D01*
X190037906Y-121132763D01*
X189928246Y-121212436D01*
X189861378Y-121236295D01*
X189854185Y-121236500D01*
X189578045Y-121236500D01*
X189569476Y-121236208D01*
X189521542Y-121232940D01*
X189521538Y-121232940D01*
X189513966Y-121232424D01*
X189506489Y-121233729D01*
X189506486Y-121233729D01*
X189453353Y-121243002D01*
X189446829Y-121243965D01*
X189403481Y-121249211D01*
X189385765Y-121251355D01*
X189378655Y-121254042D01*
X189373752Y-121255246D01*
X189363266Y-121258114D01*
X189358474Y-121259561D01*
X189350996Y-121260866D01*
X189344044Y-121263918D01*
X189344043Y-121263918D01*
X189294656Y-121285596D01*
X189288551Y-121288087D01*
X189238125Y-121307142D01*
X189238119Y-121307145D01*
X189231011Y-121309831D01*
X189224747Y-121314137D01*
X189220251Y-121316487D01*
X189210819Y-121321737D01*
X189206473Y-121324307D01*
X189199514Y-121327362D01*
X189193484Y-121331989D01*
X189150691Y-121364824D01*
X189145366Y-121368693D01*
X189094674Y-121403534D01*
X189089623Y-121409203D01*
X189089622Y-121409204D01*
X189054768Y-121448323D01*
X189049787Y-121453598D01*
X187313790Y-123189595D01*
X187251478Y-123223621D01*
X187224695Y-123226500D01*
X186709600Y-123226500D01*
X186706354Y-123226837D01*
X186706350Y-123226837D01*
X186610692Y-123236762D01*
X186610688Y-123236763D01*
X186603834Y-123237474D01*
X186597298Y-123239655D01*
X186597296Y-123239655D01*
X186514234Y-123267367D01*
X186436054Y-123293450D01*
X186285652Y-123386522D01*
X186280479Y-123391704D01*
X186261521Y-123410695D01*
X186160695Y-123511697D01*
X186156855Y-123517927D01*
X186156854Y-123517928D01*
X186102540Y-123606042D01*
X186067885Y-123662262D01*
X186054018Y-123704070D01*
X186021684Y-123801556D01*
X186012203Y-123830139D01*
X186001500Y-123934600D01*
X186001500Y-124985400D01*
X186001837Y-124988646D01*
X186001837Y-124988650D01*
X186011283Y-125079684D01*
X186012474Y-125091166D01*
X186014655Y-125097702D01*
X186014655Y-125097704D01*
X186030529Y-125145283D01*
X186068450Y-125258946D01*
X186136245Y-125368500D01*
X186141329Y-125376716D01*
X186160167Y-125445167D01*
X186139006Y-125512937D01*
X186084565Y-125558508D01*
X186014129Y-125567413D01*
X185960124Y-125544955D01*
X185882094Y-125488263D01*
X185882093Y-125488262D01*
X185876752Y-125484382D01*
X185870724Y-125481698D01*
X185870722Y-125481697D01*
X185708319Y-125409391D01*
X185708318Y-125409391D01*
X185702288Y-125406706D01*
X185590074Y-125382854D01*
X185521944Y-125368372D01*
X185521939Y-125368372D01*
X185515487Y-125367000D01*
X185324513Y-125367000D01*
X185318061Y-125368372D01*
X185318056Y-125368372D01*
X185249926Y-125382854D01*
X185137712Y-125406706D01*
X185131682Y-125409391D01*
X185131681Y-125409391D01*
X184969278Y-125481697D01*
X184969276Y-125481698D01*
X184963248Y-125484382D01*
X184957907Y-125488262D01*
X184957906Y-125488263D01*
X184921575Y-125514659D01*
X184808747Y-125596634D01*
X184804326Y-125601544D01*
X184804325Y-125601545D01*
X184689327Y-125729264D01*
X184680960Y-125738556D01*
X184585473Y-125903944D01*
X184526458Y-126085572D01*
X184525768Y-126092133D01*
X184525768Y-126092135D01*
X184508790Y-126253671D01*
X184481777Y-126319327D01*
X184423555Y-126359957D01*
X184383480Y-126366500D01*
X183916520Y-126366500D01*
X183848399Y-126346498D01*
X183801906Y-126292842D01*
X183791210Y-126253671D01*
X183774232Y-126092135D01*
X183774232Y-126092133D01*
X183773542Y-126085572D01*
X183714527Y-125903944D01*
X183619040Y-125738556D01*
X183610674Y-125729264D01*
X183570864Y-125685051D01*
X183553987Y-125649884D01*
X184046500Y-125649884D01*
X184050975Y-125665123D01*
X184052365Y-125666328D01*
X184060048Y-125667999D01*
X184102095Y-125667999D01*
X184108614Y-125667662D01*
X184204206Y-125657743D01*
X184217600Y-125654851D01*
X184371784Y-125603412D01*
X184384962Y-125597239D01*
X184522807Y-125511937D01*
X184534208Y-125502901D01*
X184648739Y-125388171D01*
X184657751Y-125376760D01*
X184742816Y-125238757D01*
X184748963Y-125225576D01*
X184800138Y-125071290D01*
X184803005Y-125057914D01*
X184812672Y-124963562D01*
X184813000Y-124957146D01*
X184813000Y-124732115D01*
X184808525Y-124716876D01*
X184807135Y-124715671D01*
X184799452Y-124714000D01*
X184064615Y-124714000D01*
X184049376Y-124718475D01*
X184048171Y-124719865D01*
X184046500Y-124727548D01*
X184046500Y-125649884D01*
X183553987Y-125649884D01*
X183540146Y-125621044D01*
X183538500Y-125600741D01*
X183538500Y-124187885D01*
X184046500Y-124187885D01*
X184050975Y-124203124D01*
X184052365Y-124204329D01*
X184060048Y-124206000D01*
X184794884Y-124206000D01*
X184810123Y-124201525D01*
X184811328Y-124200135D01*
X184812999Y-124192452D01*
X184812999Y-123962905D01*
X184812662Y-123956386D01*
X184802743Y-123860794D01*
X184799851Y-123847400D01*
X184748412Y-123693216D01*
X184742239Y-123680038D01*
X184656937Y-123542193D01*
X184647901Y-123530792D01*
X184533171Y-123416261D01*
X184521760Y-123407249D01*
X184383757Y-123322184D01*
X184370576Y-123316037D01*
X184216290Y-123264862D01*
X184202914Y-123261995D01*
X184108562Y-123252328D01*
X184102145Y-123252000D01*
X184064615Y-123252000D01*
X184049376Y-123256475D01*
X184048171Y-123257865D01*
X184046500Y-123265548D01*
X184046500Y-124187885D01*
X183538500Y-124187885D01*
X183538500Y-123270116D01*
X183534025Y-123254877D01*
X183532635Y-123253672D01*
X183524952Y-123252001D01*
X183482905Y-123252001D01*
X183476386Y-123252338D01*
X183380794Y-123262257D01*
X183367400Y-123265149D01*
X183213216Y-123316588D01*
X183200038Y-123322761D01*
X183062193Y-123408063D01*
X183050792Y-123417099D01*
X182969570Y-123498462D01*
X182907287Y-123532541D01*
X182836467Y-123527538D01*
X182791380Y-123498617D01*
X182708488Y-123415870D01*
X182708483Y-123415866D01*
X182703303Y-123410695D01*
X182697072Y-123406854D01*
X182558968Y-123321725D01*
X182558966Y-123321724D01*
X182552738Y-123317885D01*
X182441825Y-123281097D01*
X182391389Y-123264368D01*
X182391387Y-123264368D01*
X182384861Y-123262203D01*
X182378025Y-123261503D01*
X182378022Y-123261502D01*
X182334969Y-123257091D01*
X182280400Y-123251500D01*
X181654600Y-123251500D01*
X181651354Y-123251837D01*
X181651350Y-123251837D01*
X181555692Y-123261762D01*
X181555688Y-123261763D01*
X181548834Y-123262474D01*
X181542298Y-123264655D01*
X181542296Y-123264655D01*
X181444430Y-123297306D01*
X181381054Y-123318450D01*
X181230652Y-123411522D01*
X181105695Y-123536697D01*
X181101855Y-123542927D01*
X181101854Y-123542928D01*
X181032136Y-123656032D01*
X181012885Y-123687262D01*
X181007310Y-123704070D01*
X180995337Y-123740168D01*
X180954906Y-123798527D01*
X180889342Y-123825764D01*
X180875744Y-123826500D01*
X178114595Y-123826500D01*
X178046474Y-123806498D01*
X178025499Y-123789595D01*
X177690404Y-123454499D01*
X177656379Y-123392187D01*
X177653500Y-123365404D01*
X177653500Y-123089500D01*
X177673502Y-123021379D01*
X177727158Y-122974886D01*
X177779500Y-122963500D01*
X177818134Y-122963500D01*
X177880316Y-122956745D01*
X178016705Y-122905615D01*
X178133261Y-122818261D01*
X178220615Y-122701705D01*
X178245520Y-122635271D01*
X178288161Y-122578506D01*
X178354722Y-122553806D01*
X178363502Y-122553500D01*
X179631800Y-122553500D01*
X179699921Y-122573502D01*
X179719147Y-122589843D01*
X179719420Y-122589540D01*
X179724332Y-122593963D01*
X179728747Y-122598866D01*
X179735125Y-122603500D01*
X179872430Y-122703258D01*
X179883248Y-122711118D01*
X179889276Y-122713802D01*
X179889278Y-122713803D01*
X180051681Y-122786109D01*
X180057712Y-122788794D01*
X180144009Y-122807137D01*
X180238056Y-122827128D01*
X180238061Y-122827128D01*
X180244513Y-122828500D01*
X180435487Y-122828500D01*
X180441939Y-122827128D01*
X180441944Y-122827128D01*
X180535991Y-122807137D01*
X180622288Y-122788794D01*
X180628319Y-122786109D01*
X180790722Y-122713803D01*
X180790724Y-122713802D01*
X180796752Y-122711118D01*
X180807571Y-122703258D01*
X180919306Y-122622077D01*
X180951253Y-122598866D01*
X180991825Y-122553806D01*
X181074621Y-122461852D01*
X181074622Y-122461851D01*
X181079040Y-122456944D01*
X181168977Y-122301169D01*
X181171223Y-122297279D01*
X181171224Y-122297278D01*
X181174527Y-122291556D01*
X181233542Y-122109928D01*
X181235578Y-122090562D01*
X181252814Y-121926565D01*
X181253504Y-121920000D01*
X181239527Y-121787018D01*
X181234232Y-121736635D01*
X181234232Y-121736633D01*
X181233542Y-121730072D01*
X181174527Y-121548444D01*
X181161857Y-121526498D01*
X181120171Y-121454297D01*
X181079040Y-121383056D01*
X180963960Y-121255246D01*
X180955675Y-121246045D01*
X180955674Y-121246044D01*
X180951253Y-121241134D01*
X180825535Y-121149794D01*
X180802094Y-121132763D01*
X180802093Y-121132762D01*
X180796752Y-121128882D01*
X180790724Y-121126198D01*
X180790722Y-121126197D01*
X180628319Y-121053891D01*
X180628318Y-121053891D01*
X180622288Y-121051206D01*
X180528888Y-121031353D01*
X180441944Y-121012872D01*
X180441939Y-121012872D01*
X180435487Y-121011500D01*
X180244513Y-121011500D01*
X180238061Y-121012872D01*
X180238056Y-121012872D01*
X180151112Y-121031353D01*
X180057712Y-121051206D01*
X180051682Y-121053891D01*
X180051681Y-121053891D01*
X179889278Y-121126197D01*
X179889276Y-121126198D01*
X179883248Y-121128882D01*
X179877907Y-121132762D01*
X179877906Y-121132763D01*
X179798481Y-121190469D01*
X179728747Y-121241134D01*
X179724332Y-121246037D01*
X179719420Y-121250460D01*
X179718295Y-121249211D01*
X179664986Y-121282051D01*
X179631800Y-121286500D01*
X178728509Y-121286500D01*
X178660388Y-121266498D01*
X178620055Y-121224638D01*
X178603089Y-121195950D01*
X178603088Y-121195948D01*
X178599053Y-121189126D01*
X178584729Y-121174802D01*
X178571887Y-121159767D01*
X178559983Y-121143382D01*
X178525917Y-121115200D01*
X178517138Y-121107211D01*
X178397674Y-120987747D01*
X178390134Y-120979461D01*
X178386022Y-120972982D01*
X178377859Y-120965316D01*
X178336371Y-120926357D01*
X178333529Y-120923602D01*
X178315405Y-120905478D01*
X178281379Y-120843166D01*
X178278500Y-120816383D01*
X178278500Y-120256866D01*
X178271745Y-120194684D01*
X178274174Y-120194420D01*
X178274174Y-120165580D01*
X178271745Y-120165316D01*
X178278131Y-120106531D01*
X178278500Y-120103134D01*
X178278500Y-119789500D01*
X178298502Y-119721379D01*
X178352158Y-119674886D01*
X178404500Y-119663500D01*
X179294185Y-119663500D01*
X179362306Y-119683502D01*
X179368246Y-119687564D01*
X179463163Y-119756525D01*
X179483248Y-119771118D01*
X179489276Y-119773802D01*
X179489278Y-119773803D01*
X179651681Y-119846109D01*
X179657712Y-119848794D01*
X179751113Y-119868647D01*
X179838056Y-119887128D01*
X179838061Y-119887128D01*
X179844513Y-119888500D01*
X180035487Y-119888500D01*
X180041939Y-119887128D01*
X180041944Y-119887128D01*
X180128887Y-119868647D01*
X180222288Y-119848794D01*
X180228319Y-119846109D01*
X180390722Y-119773803D01*
X180390724Y-119773802D01*
X180396752Y-119771118D01*
X180416838Y-119756525D01*
X180465212Y-119721379D01*
X180551253Y-119658866D01*
X180555675Y-119653955D01*
X180674621Y-119521852D01*
X180674622Y-119521851D01*
X180679040Y-119516944D01*
X180711882Y-119460060D01*
X180763265Y-119411067D01*
X180832979Y-119397632D01*
X180898890Y-119424019D01*
X180940071Y-119481851D01*
X180947001Y-119523061D01*
X180947001Y-119877095D01*
X180947338Y-119883614D01*
X180957257Y-119979206D01*
X180960149Y-119992600D01*
X181011588Y-120146784D01*
X181017761Y-120159962D01*
X181103063Y-120297807D01*
X181112099Y-120309208D01*
X181226829Y-120423739D01*
X181238240Y-120432751D01*
X181376243Y-120517816D01*
X181389424Y-120523963D01*
X181543710Y-120575138D01*
X181557086Y-120578005D01*
X181651438Y-120587672D01*
X181657854Y-120588000D01*
X181695385Y-120588000D01*
X181710624Y-120583525D01*
X181711829Y-120582135D01*
X181713500Y-120574452D01*
X181713500Y-118181933D01*
X181733502Y-118113812D01*
X181754524Y-118091404D01*
X181753268Y-118090067D01*
X181759044Y-118084643D01*
X181765458Y-118079983D01*
X181793649Y-118045906D01*
X181801639Y-118037127D01*
X182877880Y-116960886D01*
X182940192Y-116926860D01*
X182966975Y-116923981D01*
X184531026Y-116923981D01*
X184599147Y-116943983D01*
G37*
%TD.AperFunction*%
%TA.AperFunction,Conductor*%
G36*
X153292012Y-114785117D02*
G01*
X153298595Y-114791246D01*
X155810808Y-117303459D01*
X155816662Y-117309724D01*
X155853254Y-117351670D01*
X155903619Y-117387066D01*
X155908884Y-117390978D01*
X155957292Y-117428935D01*
X155964216Y-117432061D01*
X155968525Y-117434671D01*
X155977940Y-117440042D01*
X155982388Y-117442427D01*
X155988603Y-117446795D01*
X156031996Y-117463713D01*
X156045921Y-117469142D01*
X156051993Y-117471694D01*
X156108069Y-117497014D01*
X156115546Y-117498400D01*
X156120366Y-117499910D01*
X156130782Y-117502878D01*
X156135662Y-117504131D01*
X156142736Y-117506889D01*
X156150267Y-117507881D01*
X156150269Y-117507881D01*
X156203741Y-117514921D01*
X156210254Y-117515953D01*
X156263263Y-117525777D01*
X156263265Y-117525777D01*
X156270732Y-117527161D01*
X156278313Y-117526724D01*
X156278314Y-117526724D01*
X156290665Y-117526012D01*
X156362055Y-117543350D01*
X156456399Y-117599145D01*
X156464010Y-117601356D01*
X156464012Y-117601357D01*
X156506863Y-117613806D01*
X156616169Y-117645562D01*
X156622574Y-117646066D01*
X156622579Y-117646067D01*
X156651042Y-117648307D01*
X156651050Y-117648307D01*
X156653498Y-117648500D01*
X158436502Y-117648500D01*
X158438950Y-117648307D01*
X158438958Y-117648307D01*
X158467421Y-117646067D01*
X158467426Y-117646066D01*
X158473831Y-117645562D01*
X158583137Y-117613806D01*
X158625988Y-117601357D01*
X158625990Y-117601356D01*
X158633601Y-117599145D01*
X158731839Y-117541047D01*
X158795978Y-117523500D01*
X158904462Y-117523500D01*
X158913030Y-117523792D01*
X158916023Y-117523996D01*
X158960965Y-117527060D01*
X158960969Y-117527060D01*
X158968541Y-117527576D01*
X158976018Y-117526271D01*
X158976021Y-117526271D01*
X159029154Y-117516998D01*
X159035678Y-117516035D01*
X159089198Y-117509558D01*
X159096742Y-117508645D01*
X159103852Y-117505958D01*
X159108755Y-117504754D01*
X159119241Y-117501886D01*
X159124033Y-117500439D01*
X159131511Y-117499134D01*
X159138464Y-117496082D01*
X159187848Y-117474405D01*
X159193953Y-117471914D01*
X159244389Y-117452855D01*
X159244392Y-117452853D01*
X159251496Y-117450169D01*
X159257753Y-117445869D01*
X159262221Y-117443533D01*
X159271667Y-117438275D01*
X159276033Y-117435693D01*
X159282992Y-117432638D01*
X159331811Y-117395177D01*
X159337130Y-117391314D01*
X159381572Y-117360769D01*
X159387833Y-117356466D01*
X159427740Y-117311676D01*
X159432720Y-117306402D01*
X160841466Y-115897656D01*
X160903778Y-115863630D01*
X160974593Y-115868695D01*
X161031429Y-115911242D01*
X161051557Y-115951597D01*
X161060855Y-115983601D01*
X161145547Y-116126807D01*
X161148229Y-116129489D01*
X161173502Y-116193861D01*
X161159600Y-116263484D01*
X161149428Y-116279312D01*
X161145547Y-116283193D01*
X161060855Y-116426399D01*
X161014438Y-116586169D01*
X161011500Y-116623498D01*
X161011500Y-117056502D01*
X161011693Y-117058950D01*
X161011693Y-117058958D01*
X161013511Y-117082047D01*
X161014438Y-117093831D01*
X161037811Y-117174282D01*
X161055972Y-117236792D01*
X161060855Y-117253601D01*
X161076001Y-117279212D01*
X161141509Y-117389980D01*
X161141511Y-117389983D01*
X161145547Y-117396807D01*
X161263193Y-117514453D01*
X161270017Y-117518489D01*
X161270020Y-117518491D01*
X161337383Y-117558329D01*
X161406399Y-117599145D01*
X161414010Y-117601356D01*
X161414012Y-117601357D01*
X161456863Y-117613806D01*
X161566169Y-117645562D01*
X161572574Y-117646066D01*
X161572579Y-117646067D01*
X161601042Y-117648307D01*
X161601050Y-117648307D01*
X161603498Y-117648500D01*
X163386502Y-117648500D01*
X163388950Y-117648307D01*
X163388958Y-117648307D01*
X163417421Y-117646067D01*
X163417426Y-117646066D01*
X163423831Y-117645562D01*
X163533137Y-117613806D01*
X163575988Y-117601357D01*
X163575990Y-117601356D01*
X163583601Y-117599145D01*
X163711016Y-117523792D01*
X163721026Y-117517872D01*
X163789842Y-117500412D01*
X163836413Y-117511218D01*
X163942228Y-117558329D01*
X163996324Y-117604309D01*
X164016980Y-117673436D01*
X164016980Y-119327237D01*
X163996978Y-119395358D01*
X163943322Y-119441851D01*
X163873048Y-119451955D01*
X163808468Y-119422461D01*
X163801885Y-119416332D01*
X163732104Y-119346551D01*
X163719678Y-119336911D01*
X163590221Y-119260352D01*
X163575790Y-119254107D01*
X163429935Y-119211731D01*
X163417333Y-119209430D01*
X163388916Y-119207193D01*
X163383986Y-119207000D01*
X162767115Y-119207000D01*
X162751876Y-119211475D01*
X162750671Y-119212865D01*
X162749000Y-119220548D01*
X162749000Y-120143000D01*
X162728998Y-120211121D01*
X162675342Y-120257614D01*
X162623000Y-120269000D01*
X161033122Y-120269000D01*
X161019591Y-120272973D01*
X161018456Y-120280871D01*
X161059107Y-120420790D01*
X161061126Y-120425455D01*
X161069826Y-120495917D01*
X161039050Y-120559896D01*
X160978570Y-120597080D01*
X160945491Y-120601500D01*
X159094509Y-120601500D01*
X159026388Y-120581498D01*
X158979895Y-120527842D01*
X158969791Y-120457568D01*
X158978874Y-120425455D01*
X158980893Y-120420790D01*
X159019939Y-120286395D01*
X159019899Y-120272294D01*
X159012630Y-120269000D01*
X156083122Y-120269000D01*
X156069591Y-120272973D01*
X156068456Y-120280871D01*
X156109107Y-120420790D01*
X156111126Y-120425455D01*
X156119826Y-120495917D01*
X156089050Y-120559896D01*
X156028570Y-120597080D01*
X155995491Y-120601500D01*
X153370305Y-120601500D01*
X153302184Y-120581498D01*
X153281210Y-120564595D01*
X153120405Y-120403790D01*
X153086379Y-120341478D01*
X153083500Y-120314695D01*
X153083500Y-119743605D01*
X156070061Y-119743605D01*
X156070101Y-119757706D01*
X156077370Y-119761000D01*
X157272885Y-119761000D01*
X157288124Y-119756525D01*
X157289329Y-119755135D01*
X157291000Y-119747452D01*
X157291000Y-119742885D01*
X157799000Y-119742885D01*
X157803475Y-119758124D01*
X157804865Y-119759329D01*
X157812548Y-119761000D01*
X159006878Y-119761000D01*
X159020409Y-119757027D01*
X159021544Y-119749129D01*
X159019939Y-119743605D01*
X161020061Y-119743605D01*
X161020101Y-119757706D01*
X161027370Y-119761000D01*
X162222885Y-119761000D01*
X162238124Y-119756525D01*
X162239329Y-119755135D01*
X162241000Y-119747452D01*
X162241000Y-119225116D01*
X162236525Y-119209877D01*
X162235135Y-119208672D01*
X162227452Y-119207001D01*
X161606017Y-119207001D01*
X161601080Y-119207195D01*
X161572664Y-119209430D01*
X161560069Y-119211730D01*
X161414210Y-119254107D01*
X161399779Y-119260352D01*
X161270322Y-119336911D01*
X161257896Y-119346551D01*
X161151551Y-119452896D01*
X161141911Y-119465322D01*
X161065352Y-119594779D01*
X161059107Y-119609210D01*
X161020061Y-119743605D01*
X159019939Y-119743605D01*
X158980893Y-119609210D01*
X158974648Y-119594779D01*
X158898089Y-119465322D01*
X158888449Y-119452896D01*
X158782104Y-119346551D01*
X158769678Y-119336911D01*
X158640221Y-119260352D01*
X158625790Y-119254107D01*
X158479935Y-119211731D01*
X158467333Y-119209430D01*
X158438916Y-119207193D01*
X158433986Y-119207000D01*
X157817115Y-119207000D01*
X157801876Y-119211475D01*
X157800671Y-119212865D01*
X157799000Y-119220548D01*
X157799000Y-119742885D01*
X157291000Y-119742885D01*
X157291000Y-119225116D01*
X157286525Y-119209877D01*
X157285135Y-119208672D01*
X157277452Y-119207001D01*
X156656017Y-119207001D01*
X156651080Y-119207195D01*
X156622664Y-119209430D01*
X156610069Y-119211730D01*
X156464210Y-119254107D01*
X156449779Y-119260352D01*
X156320322Y-119336911D01*
X156307896Y-119346551D01*
X156201551Y-119452896D01*
X156191911Y-119465322D01*
X156115352Y-119594779D01*
X156109107Y-119609210D01*
X156070061Y-119743605D01*
X153083500Y-119743605D01*
X153083500Y-114880341D01*
X153103502Y-114812220D01*
X153157158Y-114765727D01*
X153227432Y-114755623D01*
X153292012Y-114785117D01*
G37*
%TD.AperFunction*%
%TD*%
M02*
