%TF.GenerationSoftware,KiCad,Pcbnew,(6.0.0)*%
%TF.CreationDate,2022-01-07T00:24:45+08:00*%
%TF.ProjectId,pj4_MCU,706a345f-4d43-4552-9e6b-696361645f70,1*%
%TF.SameCoordinates,Original*%
%TF.FileFunction,Legend,Top*%
%TF.FilePolarity,Positive*%
%FSLAX46Y46*%
G04 Gerber Fmt 4.6, Leading zero omitted, Abs format (unit mm)*
G04 Created by KiCad (PCBNEW (6.0.0)) date 2022-01-07 00:24:45*
%MOMM*%
%LPD*%
G01*
G04 APERTURE LIST*
%ADD10C,0.150000*%
%ADD11C,0.120000*%
%ADD12C,0.254000*%
%ADD13C,0.152400*%
%ADD14C,0.200000*%
%ADD15C,0.127000*%
G04 APERTURE END LIST*
D10*
%TO.C,Y2*%
X172243809Y-134856190D02*
X172243809Y-135332380D01*
X171910476Y-134332380D02*
X172243809Y-134856190D01*
X172577142Y-134332380D01*
X172862857Y-134427619D02*
X172910476Y-134380000D01*
X173005714Y-134332380D01*
X173243809Y-134332380D01*
X173339047Y-134380000D01*
X173386666Y-134427619D01*
X173434285Y-134522857D01*
X173434285Y-134618095D01*
X173386666Y-134760952D01*
X172815238Y-135332380D01*
X173434285Y-135332380D01*
%TO.C,Y1*%
X147036190Y-130016190D02*
X147512380Y-130016190D01*
X146512380Y-130349523D02*
X147036190Y-130016190D01*
X146512380Y-129682857D01*
X147512380Y-128825714D02*
X147512380Y-129397142D01*
X147512380Y-129111428D02*
X146512380Y-129111428D01*
X146655238Y-129206666D01*
X146750476Y-129301904D01*
X146798095Y-129397142D01*
%TO.C,U4*%
X168687991Y-112990778D02*
X168687991Y-113509876D01*
X168718527Y-113570946D01*
X168749062Y-113601482D01*
X168810132Y-113632017D01*
X168932273Y-113632017D01*
X168993343Y-113601482D01*
X169023879Y-113570946D01*
X169054414Y-113509876D01*
X169054414Y-112990778D01*
X169634582Y-113204524D02*
X169634582Y-113632017D01*
X169481906Y-112960243D02*
X169329230Y-113418270D01*
X169726188Y-113418270D01*
%TO.C,U3*%
X159258095Y-117972380D02*
X159258095Y-118781904D01*
X159305714Y-118877142D01*
X159353333Y-118924761D01*
X159448571Y-118972380D01*
X159639047Y-118972380D01*
X159734285Y-118924761D01*
X159781904Y-118877142D01*
X159829523Y-118781904D01*
X159829523Y-117972380D01*
X160210476Y-117972380D02*
X160829523Y-117972380D01*
X160496190Y-118353333D01*
X160639047Y-118353333D01*
X160734285Y-118400952D01*
X160781904Y-118448571D01*
X160829523Y-118543809D01*
X160829523Y-118781904D01*
X160781904Y-118877142D01*
X160734285Y-118924761D01*
X160639047Y-118972380D01*
X160353333Y-118972380D01*
X160258095Y-118924761D01*
X160210476Y-118877142D01*
%TO.C,U2*%
X158463095Y-125660380D02*
X158463095Y-126469904D01*
X158510714Y-126565142D01*
X158558333Y-126612761D01*
X158653571Y-126660380D01*
X158844047Y-126660380D01*
X158939285Y-126612761D01*
X158986904Y-126565142D01*
X159034523Y-126469904D01*
X159034523Y-125660380D01*
X159463095Y-125755619D02*
X159510714Y-125708000D01*
X159605952Y-125660380D01*
X159844047Y-125660380D01*
X159939285Y-125708000D01*
X159986904Y-125755619D01*
X160034523Y-125850857D01*
X160034523Y-125946095D01*
X159986904Y-126088952D01*
X159415476Y-126660380D01*
X160034523Y-126660380D01*
%TO.C,U1*%
X159258095Y-110987380D02*
X159258095Y-111796904D01*
X159305714Y-111892142D01*
X159353333Y-111939761D01*
X159448571Y-111987380D01*
X159639047Y-111987380D01*
X159734285Y-111939761D01*
X159781904Y-111892142D01*
X159829523Y-111796904D01*
X159829523Y-110987380D01*
X160829523Y-111987380D02*
X160258095Y-111987380D01*
X160543809Y-111987380D02*
X160543809Y-110987380D01*
X160448571Y-111130238D01*
X160353333Y-111225476D01*
X160258095Y-111273095D01*
%TO.C,R7*%
X182713333Y-113102380D02*
X182380000Y-112626190D01*
X182141904Y-113102380D02*
X182141904Y-112102380D01*
X182522857Y-112102380D01*
X182618095Y-112150000D01*
X182665714Y-112197619D01*
X182713333Y-112292857D01*
X182713333Y-112435714D01*
X182665714Y-112530952D01*
X182618095Y-112578571D01*
X182522857Y-112626190D01*
X182141904Y-112626190D01*
X183046666Y-112102380D02*
X183713333Y-112102380D01*
X183284761Y-113102380D01*
%TO.C,R6*%
X187793333Y-118182380D02*
X187460000Y-117706190D01*
X187221904Y-118182380D02*
X187221904Y-117182380D01*
X187602857Y-117182380D01*
X187698095Y-117230000D01*
X187745714Y-117277619D01*
X187793333Y-117372857D01*
X187793333Y-117515714D01*
X187745714Y-117610952D01*
X187698095Y-117658571D01*
X187602857Y-117706190D01*
X187221904Y-117706190D01*
X188650476Y-117182380D02*
X188460000Y-117182380D01*
X188364761Y-117230000D01*
X188317142Y-117277619D01*
X188221904Y-117420476D01*
X188174285Y-117610952D01*
X188174285Y-117991904D01*
X188221904Y-118087142D01*
X188269523Y-118134761D01*
X188364761Y-118182380D01*
X188555238Y-118182380D01*
X188650476Y-118134761D01*
X188698095Y-118087142D01*
X188745714Y-117991904D01*
X188745714Y-117753809D01*
X188698095Y-117658571D01*
X188650476Y-117610952D01*
X188555238Y-117563333D01*
X188364761Y-117563333D01*
X188269523Y-117610952D01*
X188221904Y-117658571D01*
X188174285Y-117753809D01*
%TO.C,R5*%
X187793333Y-113102380D02*
X187460000Y-112626190D01*
X187221904Y-113102380D02*
X187221904Y-112102380D01*
X187602857Y-112102380D01*
X187698095Y-112150000D01*
X187745714Y-112197619D01*
X187793333Y-112292857D01*
X187793333Y-112435714D01*
X187745714Y-112530952D01*
X187698095Y-112578571D01*
X187602857Y-112626190D01*
X187221904Y-112626190D01*
X188698095Y-112102380D02*
X188221904Y-112102380D01*
X188174285Y-112578571D01*
X188221904Y-112530952D01*
X188317142Y-112483333D01*
X188555238Y-112483333D01*
X188650476Y-112530952D01*
X188698095Y-112578571D01*
X188745714Y-112673809D01*
X188745714Y-112911904D01*
X188698095Y-113007142D01*
X188650476Y-113054761D01*
X188555238Y-113102380D01*
X188317142Y-113102380D01*
X188221904Y-113054761D01*
X188174285Y-113007142D01*
%TO.C,R4*%
X182713333Y-118182380D02*
X182380000Y-117706190D01*
X182141904Y-118182380D02*
X182141904Y-117182380D01*
X182522857Y-117182380D01*
X182618095Y-117230000D01*
X182665714Y-117277619D01*
X182713333Y-117372857D01*
X182713333Y-117515714D01*
X182665714Y-117610952D01*
X182618095Y-117658571D01*
X182522857Y-117706190D01*
X182141904Y-117706190D01*
X183570476Y-117515714D02*
X183570476Y-118182380D01*
X183332380Y-117134761D02*
X183094285Y-117849047D01*
X183713333Y-117849047D01*
%TO.C,R3*%
X182713333Y-126562380D02*
X182380000Y-126086190D01*
X182141904Y-126562380D02*
X182141904Y-125562380D01*
X182522857Y-125562380D01*
X182618095Y-125610000D01*
X182665714Y-125657619D01*
X182713333Y-125752857D01*
X182713333Y-125895714D01*
X182665714Y-125990952D01*
X182618095Y-126038571D01*
X182522857Y-126086190D01*
X182141904Y-126086190D01*
X183046666Y-125562380D02*
X183665714Y-125562380D01*
X183332380Y-125943333D01*
X183475238Y-125943333D01*
X183570476Y-125990952D01*
X183618095Y-126038571D01*
X183665714Y-126133809D01*
X183665714Y-126371904D01*
X183618095Y-126467142D01*
X183570476Y-126514761D01*
X183475238Y-126562380D01*
X183189523Y-126562380D01*
X183094285Y-126514761D01*
X183046666Y-126467142D01*
%TO.C,R2*%
X162393333Y-133422380D02*
X162060000Y-132946190D01*
X161821904Y-133422380D02*
X161821904Y-132422380D01*
X162202857Y-132422380D01*
X162298095Y-132470000D01*
X162345714Y-132517619D01*
X162393333Y-132612857D01*
X162393333Y-132755714D01*
X162345714Y-132850952D01*
X162298095Y-132898571D01*
X162202857Y-132946190D01*
X161821904Y-132946190D01*
X162774285Y-132517619D02*
X162821904Y-132470000D01*
X162917142Y-132422380D01*
X163155238Y-132422380D01*
X163250476Y-132470000D01*
X163298095Y-132517619D01*
X163345714Y-132612857D01*
X163345714Y-132708095D01*
X163298095Y-132850952D01*
X162726666Y-133422380D01*
X163345714Y-133422380D01*
%TO.C,R1*%
X157313333Y-133422380D02*
X156980000Y-132946190D01*
X156741904Y-133422380D02*
X156741904Y-132422380D01*
X157122857Y-132422380D01*
X157218095Y-132470000D01*
X157265714Y-132517619D01*
X157313333Y-132612857D01*
X157313333Y-132755714D01*
X157265714Y-132850952D01*
X157218095Y-132898571D01*
X157122857Y-132946190D01*
X156741904Y-132946190D01*
X158265714Y-133422380D02*
X157694285Y-133422380D01*
X157980000Y-133422380D02*
X157980000Y-132422380D01*
X157884761Y-132565238D01*
X157789523Y-132660476D01*
X157694285Y-132708095D01*
%TO.C,J4*%
X174922380Y-140033333D02*
X175636666Y-140033333D01*
X175779523Y-140080952D01*
X175874761Y-140176190D01*
X175922380Y-140319047D01*
X175922380Y-140414285D01*
X175255714Y-139128571D02*
X175922380Y-139128571D01*
X174874761Y-139366666D02*
X175589047Y-139604761D01*
X175589047Y-138985714D01*
%TO.C,J3*%
X195246666Y-122862380D02*
X195246666Y-123576666D01*
X195199047Y-123719523D01*
X195103809Y-123814761D01*
X194960952Y-123862380D01*
X194865714Y-123862380D01*
X195627619Y-122862380D02*
X196246666Y-122862380D01*
X195913333Y-123243333D01*
X196056190Y-123243333D01*
X196151428Y-123290952D01*
X196199047Y-123338571D01*
X196246666Y-123433809D01*
X196246666Y-123671904D01*
X196199047Y-123767142D01*
X196151428Y-123814761D01*
X196056190Y-123862380D01*
X195770476Y-123862380D01*
X195675238Y-123814761D01*
X195627619Y-123767142D01*
%TO.C,J2*%
X193976666Y-111422380D02*
X193976666Y-112136666D01*
X193929047Y-112279523D01*
X193833809Y-112374761D01*
X193690952Y-112422380D01*
X193595714Y-112422380D01*
X194405238Y-111517619D02*
X194452857Y-111470000D01*
X194548095Y-111422380D01*
X194786190Y-111422380D01*
X194881428Y-111470000D01*
X194929047Y-111517619D01*
X194976666Y-111612857D01*
X194976666Y-111708095D01*
X194929047Y-111850952D01*
X194357619Y-112422380D01*
X194976666Y-112422380D01*
%TO.C,J1*%
X149532380Y-140033333D02*
X150246666Y-140033333D01*
X150389523Y-140080952D01*
X150484761Y-140176190D01*
X150532380Y-140319047D01*
X150532380Y-140414285D01*
X150532380Y-139033333D02*
X150532380Y-139604761D01*
X150532380Y-139319047D02*
X149532380Y-139319047D01*
X149675238Y-139414285D01*
X149770476Y-139509523D01*
X149818095Y-139604761D01*
%TO.C,H4*%
X146558095Y-138476380D02*
X146558095Y-137476380D01*
X146558095Y-137952571D02*
X147129523Y-137952571D01*
X147129523Y-138476380D02*
X147129523Y-137476380D01*
X148034285Y-137809714D02*
X148034285Y-138476380D01*
X147796190Y-137428761D02*
X147558095Y-138143047D01*
X148177142Y-138143047D01*
%TO.C,H3*%
X195834095Y-138476380D02*
X195834095Y-137476380D01*
X195834095Y-137952571D02*
X196405523Y-137952571D01*
X196405523Y-138476380D02*
X196405523Y-137476380D01*
X196786476Y-137476380D02*
X197405523Y-137476380D01*
X197072190Y-137857333D01*
X197215047Y-137857333D01*
X197310285Y-137904952D01*
X197357904Y-137952571D01*
X197405523Y-138047809D01*
X197405523Y-138285904D01*
X197357904Y-138381142D01*
X197310285Y-138428761D01*
X197215047Y-138476380D01*
X196929333Y-138476380D01*
X196834095Y-138428761D01*
X196786476Y-138381142D01*
%TO.C,H2*%
X195834095Y-105456380D02*
X195834095Y-104456380D01*
X195834095Y-104932571D02*
X196405523Y-104932571D01*
X196405523Y-105456380D02*
X196405523Y-104456380D01*
X196834095Y-104551619D02*
X196881714Y-104504000D01*
X196976952Y-104456380D01*
X197215047Y-104456380D01*
X197310285Y-104504000D01*
X197357904Y-104551619D01*
X197405523Y-104646857D01*
X197405523Y-104742095D01*
X197357904Y-104884952D01*
X196786476Y-105456380D01*
X197405523Y-105456380D01*
%TO.C,H1*%
X146558095Y-105456380D02*
X146558095Y-104456380D01*
X146558095Y-104932571D02*
X147129523Y-104932571D01*
X147129523Y-105456380D02*
X147129523Y-104456380D01*
X148129523Y-105456380D02*
X147558095Y-105456380D01*
X147843809Y-105456380D02*
X147843809Y-104456380D01*
X147748571Y-104599238D01*
X147653333Y-104694476D01*
X147558095Y-104742095D01*
%TO.C,D2*%
X182141904Y-108022380D02*
X182141904Y-107022380D01*
X182380000Y-107022380D01*
X182522857Y-107070000D01*
X182618095Y-107165238D01*
X182665714Y-107260476D01*
X182713333Y-107450952D01*
X182713333Y-107593809D01*
X182665714Y-107784285D01*
X182618095Y-107879523D01*
X182522857Y-107974761D01*
X182380000Y-108022380D01*
X182141904Y-108022380D01*
X183094285Y-107117619D02*
X183141904Y-107070000D01*
X183237142Y-107022380D01*
X183475238Y-107022380D01*
X183570476Y-107070000D01*
X183618095Y-107117619D01*
X183665714Y-107212857D01*
X183665714Y-107308095D01*
X183618095Y-107450952D01*
X183046666Y-108022380D01*
X183665714Y-108022380D01*
%TO.C,C8*%
X177633333Y-107897142D02*
X177585714Y-107944761D01*
X177442857Y-107992380D01*
X177347619Y-107992380D01*
X177204761Y-107944761D01*
X177109523Y-107849523D01*
X177061904Y-107754285D01*
X177014285Y-107563809D01*
X177014285Y-107420952D01*
X177061904Y-107230476D01*
X177109523Y-107135238D01*
X177204761Y-107040000D01*
X177347619Y-106992380D01*
X177442857Y-106992380D01*
X177585714Y-107040000D01*
X177633333Y-107087619D01*
X178204761Y-107420952D02*
X178109523Y-107373333D01*
X178061904Y-107325714D01*
X178014285Y-107230476D01*
X178014285Y-107182857D01*
X178061904Y-107087619D01*
X178109523Y-107040000D01*
X178204761Y-106992380D01*
X178395238Y-106992380D01*
X178490476Y-107040000D01*
X178538095Y-107087619D01*
X178585714Y-107182857D01*
X178585714Y-107230476D01*
X178538095Y-107325714D01*
X178490476Y-107373333D01*
X178395238Y-107420952D01*
X178204761Y-107420952D01*
X178109523Y-107468571D01*
X178061904Y-107516190D01*
X178014285Y-107611428D01*
X178014285Y-107801904D01*
X178061904Y-107897142D01*
X178109523Y-107944761D01*
X178204761Y-107992380D01*
X178395238Y-107992380D01*
X178490476Y-107944761D01*
X178538095Y-107897142D01*
X178585714Y-107801904D01*
X178585714Y-107611428D01*
X178538095Y-107516190D01*
X178490476Y-107468571D01*
X178395238Y-107420952D01*
%TO.C,C7*%
X187793333Y-123137142D02*
X187745714Y-123184761D01*
X187602857Y-123232380D01*
X187507619Y-123232380D01*
X187364761Y-123184761D01*
X187269523Y-123089523D01*
X187221904Y-122994285D01*
X187174285Y-122803809D01*
X187174285Y-122660952D01*
X187221904Y-122470476D01*
X187269523Y-122375238D01*
X187364761Y-122280000D01*
X187507619Y-122232380D01*
X187602857Y-122232380D01*
X187745714Y-122280000D01*
X187793333Y-122327619D01*
X188126666Y-122232380D02*
X188793333Y-122232380D01*
X188364761Y-123232380D01*
%TO.C,C6*%
X172553333Y-107897142D02*
X172505714Y-107944761D01*
X172362857Y-107992380D01*
X172267619Y-107992380D01*
X172124761Y-107944761D01*
X172029523Y-107849523D01*
X171981904Y-107754285D01*
X171934285Y-107563809D01*
X171934285Y-107420952D01*
X171981904Y-107230476D01*
X172029523Y-107135238D01*
X172124761Y-107040000D01*
X172267619Y-106992380D01*
X172362857Y-106992380D01*
X172505714Y-107040000D01*
X172553333Y-107087619D01*
X173410476Y-106992380D02*
X173220000Y-106992380D01*
X173124761Y-107040000D01*
X173077142Y-107087619D01*
X172981904Y-107230476D01*
X172934285Y-107420952D01*
X172934285Y-107801904D01*
X172981904Y-107897142D01*
X173029523Y-107944761D01*
X173124761Y-107992380D01*
X173315238Y-107992380D01*
X173410476Y-107944761D01*
X173458095Y-107897142D01*
X173505714Y-107801904D01*
X173505714Y-107563809D01*
X173458095Y-107468571D01*
X173410476Y-107420952D01*
X173315238Y-107373333D01*
X173124761Y-107373333D01*
X173029523Y-107420952D01*
X172981904Y-107468571D01*
X172934285Y-107563809D01*
%TO.C,C5*%
X182713333Y-128217142D02*
X182665714Y-128264761D01*
X182522857Y-128312380D01*
X182427619Y-128312380D01*
X182284761Y-128264761D01*
X182189523Y-128169523D01*
X182141904Y-128074285D01*
X182094285Y-127883809D01*
X182094285Y-127740952D01*
X182141904Y-127550476D01*
X182189523Y-127455238D01*
X182284761Y-127360000D01*
X182427619Y-127312380D01*
X182522857Y-127312380D01*
X182665714Y-127360000D01*
X182713333Y-127407619D01*
X183618095Y-127312380D02*
X183141904Y-127312380D01*
X183094285Y-127788571D01*
X183141904Y-127740952D01*
X183237142Y-127693333D01*
X183475238Y-127693333D01*
X183570476Y-127740952D01*
X183618095Y-127788571D01*
X183665714Y-127883809D01*
X183665714Y-128121904D01*
X183618095Y-128217142D01*
X183570476Y-128264761D01*
X183475238Y-128312380D01*
X183237142Y-128312380D01*
X183141904Y-128264761D01*
X183094285Y-128217142D01*
%TO.C,C1*%
X167473333Y-107897142D02*
X167425714Y-107944761D01*
X167282857Y-107992380D01*
X167187619Y-107992380D01*
X167044761Y-107944761D01*
X166949523Y-107849523D01*
X166901904Y-107754285D01*
X166854285Y-107563809D01*
X166854285Y-107420952D01*
X166901904Y-107230476D01*
X166949523Y-107135238D01*
X167044761Y-107040000D01*
X167187619Y-106992380D01*
X167282857Y-106992380D01*
X167425714Y-107040000D01*
X167473333Y-107087619D01*
X168425714Y-107992380D02*
X167854285Y-107992380D01*
X168140000Y-107992380D02*
X168140000Y-106992380D01*
X168044761Y-107135238D01*
X167949523Y-107230476D01*
X167854285Y-107278095D01*
%TO.C,BT1*%
X147248571Y-120165714D02*
X147296190Y-120022857D01*
X147343809Y-119975238D01*
X147439047Y-119927619D01*
X147581904Y-119927619D01*
X147677142Y-119975238D01*
X147724761Y-120022857D01*
X147772380Y-120118095D01*
X147772380Y-120499047D01*
X146772380Y-120499047D01*
X146772380Y-120165714D01*
X146820000Y-120070476D01*
X146867619Y-120022857D01*
X146962857Y-119975238D01*
X147058095Y-119975238D01*
X147153333Y-120022857D01*
X147200952Y-120070476D01*
X147248571Y-120165714D01*
X147248571Y-120499047D01*
X146772380Y-119641904D02*
X146772380Y-119070476D01*
X147772380Y-119356190D02*
X146772380Y-119356190D01*
X147772380Y-118213333D02*
X147772380Y-118784761D01*
X147772380Y-118499047D02*
X146772380Y-118499047D01*
X146915238Y-118594285D01*
X147010476Y-118689523D01*
X147058095Y-118784761D01*
D11*
%TO.C,Y2*%
X170020000Y-133880000D02*
X177270000Y-133880000D01*
X177270000Y-133880000D02*
X177270000Y-130280000D01*
X177270000Y-130280000D02*
X170020000Y-130280000D01*
%TO.C,Y1*%
X148060000Y-126840000D02*
X148060000Y-134090000D01*
X148060000Y-134090000D02*
X151660000Y-134090000D01*
X151660000Y-134090000D02*
X151660000Y-126840000D01*
%TO.C,U4*%
D12*
X168347000Y-115630000D02*
G75*
G03*
X168347000Y-115630000I-127000J0D01*
G01*
D13*
X170336000Y-116636800D02*
G75*
G03*
X170336000Y-116636800I-359200J0D01*
G01*
X169320000Y-115980000D02*
X176120000Y-115980000D01*
X169320000Y-122780000D02*
X169320000Y-115980000D01*
X176120000Y-122780000D02*
X169320000Y-122780000D01*
X176120000Y-115980000D02*
X176120000Y-122780000D01*
D11*
%TO.C,U3*%
X160020000Y-119360000D02*
X156570000Y-119360000D01*
X160020000Y-119360000D02*
X161970000Y-119360000D01*
X160020000Y-124480000D02*
X158070000Y-124480000D01*
X160020000Y-124480000D02*
X161970000Y-124480000D01*
D14*
%TO.C,U2*%
X155675000Y-127045000D02*
G75*
G03*
X155675000Y-127045000I-100000J0D01*
G01*
D15*
X158020000Y-127020000D02*
X162020000Y-127020000D01*
X158020000Y-132060000D02*
X162020000Y-132060000D01*
D11*
%TO.C,U1*%
X160020000Y-112375000D02*
X156570000Y-112375000D01*
X160020000Y-112375000D02*
X161970000Y-112375000D01*
X160020000Y-117495000D02*
X158070000Y-117495000D01*
X160020000Y-117495000D02*
X161970000Y-117495000D01*
%TO.C,R7*%
X182652936Y-113565000D02*
X183107064Y-113565000D01*
X182652936Y-115035000D02*
X183107064Y-115035000D01*
%TO.C,R6*%
X187732936Y-118645000D02*
X188187064Y-118645000D01*
X187732936Y-120115000D02*
X188187064Y-120115000D01*
%TO.C,R5*%
X187732936Y-113565000D02*
X188187064Y-113565000D01*
X187732936Y-115035000D02*
X188187064Y-115035000D01*
%TO.C,R4*%
X182652936Y-118645000D02*
X183107064Y-118645000D01*
X182652936Y-120115000D02*
X183107064Y-120115000D01*
%TO.C,R3*%
X183107064Y-125195000D02*
X182652936Y-125195000D01*
X183107064Y-123725000D02*
X182652936Y-123725000D01*
%TO.C,R2*%
X162332936Y-135355000D02*
X162787064Y-135355000D01*
X162332936Y-133885000D02*
X162787064Y-133885000D01*
%TO.C,R1*%
X157252936Y-133885000D02*
X157707064Y-133885000D01*
X157252936Y-135355000D02*
X157707064Y-135355000D01*
%TO.C,J4*%
X186750000Y-141030000D02*
X186750000Y-138370000D01*
X179070000Y-141030000D02*
X186750000Y-141030000D01*
X179070000Y-138370000D02*
X186750000Y-138370000D01*
X179070000Y-141030000D02*
X179070000Y-138370000D01*
X177800000Y-141030000D02*
X176470000Y-141030000D01*
X176470000Y-141030000D02*
X176470000Y-139700000D01*
%TO.C,J3*%
X194250000Y-134690000D02*
X196910000Y-134690000D01*
X194250000Y-127010000D02*
X194250000Y-134690000D01*
X196910000Y-127010000D02*
X196910000Y-134690000D01*
X194250000Y-127010000D02*
X196910000Y-127010000D01*
X194250000Y-125740000D02*
X194250000Y-124410000D01*
X194250000Y-124410000D02*
X195580000Y-124410000D01*
%TO.C,J2*%
X191710000Y-120710000D02*
X196910000Y-120710000D01*
X191710000Y-115570000D02*
X191710000Y-120710000D01*
X196910000Y-112970000D02*
X196910000Y-120710000D01*
X191710000Y-115570000D02*
X194310000Y-115570000D01*
X194310000Y-115570000D02*
X194310000Y-112970000D01*
X194310000Y-112970000D02*
X196910000Y-112970000D01*
X191710000Y-114300000D02*
X191710000Y-112970000D01*
X191710000Y-112970000D02*
X193040000Y-112970000D01*
%TO.C,J1*%
X174060000Y-141030000D02*
X174060000Y-138370000D01*
X153680000Y-141030000D02*
X174060000Y-141030000D01*
X153680000Y-138370000D02*
X174060000Y-138370000D01*
X153680000Y-141030000D02*
X153680000Y-138370000D01*
X152410000Y-141030000D02*
X151080000Y-141030000D01*
X151080000Y-141030000D02*
X151080000Y-139700000D01*
%TO.C,D2*%
X181195000Y-110180000D02*
X183880000Y-110180000D01*
X181195000Y-108260000D02*
X181195000Y-110180000D01*
X183880000Y-108260000D02*
X181195000Y-108260000D01*
%TO.C,C8*%
X177538748Y-109955000D02*
X178061252Y-109955000D01*
X177538748Y-108485000D02*
X178061252Y-108485000D01*
%TO.C,C7*%
X187698748Y-125195000D02*
X188221252Y-125195000D01*
X187698748Y-123725000D02*
X188221252Y-123725000D01*
%TO.C,C6*%
X172458748Y-108485000D02*
X172981252Y-108485000D01*
X172458748Y-109955000D02*
X172981252Y-109955000D01*
%TO.C,C5*%
X182618748Y-128805000D02*
X183141252Y-128805000D01*
X182618748Y-130275000D02*
X183141252Y-130275000D01*
%TO.C,C1*%
X167378748Y-109955000D02*
X167901252Y-109955000D01*
X167378748Y-108485000D02*
X167901252Y-108485000D01*
%TO.C,BT1*%
X148530000Y-123250000D02*
X151190000Y-123250000D01*
X148530000Y-120650000D02*
X148530000Y-123250000D01*
X151190000Y-120650000D02*
X151190000Y-123250000D01*
X148530000Y-120650000D02*
X151190000Y-120650000D01*
X148530000Y-119380000D02*
X148530000Y-118050000D01*
X148530000Y-118050000D02*
X149860000Y-118050000D01*
%TD*%
M02*
