%TF.GenerationSoftware,KiCad,Pcbnew,(6.0.0)*%
%TF.CreationDate,2022-01-07T00:24:45+08:00*%
%TF.ProjectId,pj4_MCU,706a345f-4d43-4552-9e6b-696361645f70,1*%
%TF.SameCoordinates,Original*%
%TF.FileFunction,Copper,L2,Bot*%
%TF.FilePolarity,Positive*%
%FSLAX46Y46*%
G04 Gerber Fmt 4.6, Leading zero omitted, Abs format (unit mm)*
G04 Created by KiCad (PCBNEW (6.0.0)) date 2022-01-07 00:24:45*
%MOMM*%
%LPD*%
G01*
G04 APERTURE LIST*
%TA.AperFunction,ComponentPad*%
%ADD10R,1.700000X1.700000*%
%TD*%
%TA.AperFunction,ComponentPad*%
%ADD11O,1.700000X1.700000*%
%TD*%
%TA.AperFunction,ViaPad*%
%ADD12C,0.800000*%
%TD*%
%TA.AperFunction,Conductor*%
%ADD13C,0.250000*%
%TD*%
%TA.AperFunction,Conductor*%
%ADD14C,0.350000*%
%TD*%
G04 APERTURE END LIST*
D10*
%TO.P,J4,1,Pin_1*%
%TO.N,GND*%
X177800000Y-139700000D03*
D11*
%TO.P,J4,2,Pin_2*%
%TO.N,/VCC*%
X180340000Y-139700000D03*
%TO.P,J4,3,Pin_3*%
%TO.N,/RX*%
X182880000Y-139700000D03*
%TO.P,J4,4,Pin_4*%
%TO.N,/TX*%
X185420000Y-139700000D03*
%TD*%
D10*
%TO.P,J3,1,Pin_1*%
%TO.N,GND*%
X195580000Y-125740000D03*
D11*
%TO.P,J3,2,Pin_2*%
%TO.N,/VCC*%
X195580000Y-128280000D03*
%TO.P,J3,3,Pin_3*%
%TO.N,/SDA*%
X195580000Y-130820000D03*
%TO.P,J3,4,Pin_4*%
%TO.N,/SCK*%
X195580000Y-133360000D03*
%TD*%
D10*
%TO.P,J2,1,Pin_1*%
%TO.N,/MISO*%
X193040000Y-114300000D03*
D11*
%TO.P,J2,2,Pin_2*%
%TO.N,/VCC*%
X195580000Y-114300000D03*
%TO.P,J2,3,Pin_3*%
%TO.N,/SCK*%
X193040000Y-116840000D03*
%TO.P,J2,4,Pin_4*%
%TO.N,/MOSI*%
X195580000Y-116840000D03*
%TO.P,J2,5,Pin_5*%
%TO.N,/RESET*%
X193040000Y-119380000D03*
%TO.P,J2,6,Pin_6*%
%TO.N,GND*%
X195580000Y-119380000D03*
%TD*%
D10*
%TO.P,J1,1,Pin_1*%
%TO.N,/D2*%
X152410000Y-139700000D03*
D11*
%TO.P,J1,2,Pin_2*%
%TO.N,/D3*%
X154950000Y-139700000D03*
%TO.P,J1,3,Pin_3*%
%TO.N,/D4*%
X157490000Y-139700000D03*
%TO.P,J1,4,Pin_4*%
%TO.N,/D5*%
X160030000Y-139700000D03*
%TO.P,J1,5,Pin_5*%
%TO.N,/D6*%
X162570000Y-139700000D03*
%TO.P,J1,6,Pin_6*%
%TO.N,/D7*%
X165110000Y-139700000D03*
%TO.P,J1,7,Pin_7*%
%TO.N,/D8*%
X167650000Y-139700000D03*
%TO.P,J1,8,Pin_8*%
%TO.N,GND*%
X170190000Y-139700000D03*
%TO.P,J1,9,Pin_9*%
%TO.N,/VCC*%
X172730000Y-139700000D03*
%TD*%
D10*
%TO.P,BT1,1,+*%
%TO.N,Net-(U4-Pad18)*%
X149860000Y-119380000D03*
D11*
%TO.P,BT1,2,-*%
%TO.N,GND*%
X149860000Y-121920000D03*
%TD*%
D12*
%TO.N,/SDA*%
X196163010Y-137743010D03*
X185420000Y-119380000D03*
X185420000Y-113475500D03*
X183970989Y-111760000D03*
%TO.N,/MISO*%
X185420000Y-117664500D03*
X182880000Y-121920000D03*
%TO.N,/SDA*%
X178524500Y-112772051D03*
%TO.N,/RESET*%
X178117859Y-115024500D03*
X173845123Y-117301792D03*
%TO.N,Net-(Y2-Pad1)*%
X171962299Y-112517701D03*
X171179503Y-111035500D03*
X170496128Y-113100726D03*
X175260000Y-116445674D03*
%TO.N,/SCK*%
X165374980Y-119380000D03*
X164980868Y-122696693D03*
%TO.N,/SDA*%
X165100000Y-121025444D03*
%TO.N,Net-(U4-Pad18)*%
X165824500Y-117264386D03*
%TO.N,/VCC*%
X154940000Y-120154500D03*
X152400000Y-122109500D03*
%TO.N,Net-(U2-Pad7)*%
X160020000Y-137160000D03*
X160603010Y-131496990D03*
%TO.N,Net-(U2-Pad3)*%
X152400000Y-132080000D03*
X152400000Y-135139011D03*
%TO.N,/D8*%
X171995500Y-127000000D03*
%TO.N,/D7*%
X170180000Y-127000000D03*
%TO.N,/D6*%
X167640000Y-127000000D03*
%TO.N,/D5*%
X167640000Y-124460000D03*
%TO.N,/TX*%
X173732051Y-119367452D03*
%TO.N,/D3*%
X170180000Y-116655500D03*
%TO.N,/D4*%
X171271000Y-119380000D03*
%TO.N,/D2*%
X167640000Y-113575500D03*
X170180000Y-108495500D03*
X170180000Y-111035500D03*
%TO.N,/VCC*%
X154940000Y-116840000D03*
X154940000Y-114300000D03*
%TO.N,/SCK*%
X172720000Y-113275386D03*
%TO.N,GND*%
X187960000Y-125775980D03*
X190500000Y-121920000D03*
X180340000Y-135394500D03*
X182880000Y-127774500D03*
%TO.N,/SDA*%
X162560000Y-124460000D03*
X164225451Y-116689951D03*
X173232300Y-111247701D03*
%TO.N,GND*%
X180290011Y-116840000D03*
X179940000Y-118980000D03*
%TO.N,/MISO*%
X193040000Y-111760000D03*
X180340000Y-125184500D03*
%TO.N,/SCK*%
X182880000Y-126275500D03*
X185420000Y-115124500D03*
%TO.N,Net-(U4-Pad20)*%
X185420000Y-126275500D03*
X175260000Y-119780000D03*
%TO.N,Net-(U4-Pad18)*%
X180340000Y-121920000D03*
%TO.N,/RX*%
X172720000Y-119380000D03*
%TO.N,/SDA*%
X185420000Y-121920000D03*
X193040000Y-129540000D03*
%TO.N,/VCC*%
X187960000Y-121920000D03*
%TO.N,Net-(U4-Pad18)*%
X182880000Y-111760000D03*
X177800000Y-111760000D03*
%TD*%
D13*
%TO.N,/SDA*%
X197994980Y-135911040D02*
X196163010Y-137743010D01*
X197994980Y-129540000D02*
X197994980Y-135911040D01*
X197994980Y-120063259D02*
X197994980Y-129540000D01*
X196087210Y-118155489D02*
X197994980Y-120063259D01*
X195072790Y-118155489D02*
X196087210Y-118155489D01*
X194214511Y-117297210D02*
X195072790Y-118155489D01*
X194214511Y-116544479D02*
X194214511Y-117297210D01*
X196066499Y-115665489D02*
X195093501Y-115665489D01*
X196804511Y-114927477D02*
X196066499Y-115665489D01*
X196804511Y-113792790D02*
X196804511Y-114927477D01*
X194047210Y-111035489D02*
X196804511Y-113792790D01*
X187860011Y-111035489D02*
X194047210Y-111035489D01*
X185420000Y-113475500D02*
X187860011Y-111035489D01*
X195093501Y-115665489D02*
X194214511Y-116544479D01*
%TO.N,/MISO*%
X192253840Y-111760000D02*
X193040000Y-111760000D01*
X187410480Y-118830480D02*
X187410481Y-116603359D01*
X185420000Y-117664500D02*
X186244500Y-117664500D01*
X186244500Y-117664500D02*
X187410480Y-118830480D01*
X187410481Y-116603359D02*
X192253840Y-111760000D01*
%TO.N,/SDA*%
X185420000Y-121920000D02*
X185740814Y-122240814D01*
X193040000Y-127777138D02*
X193040000Y-129540000D01*
X185740814Y-122240814D02*
X187185489Y-122240814D01*
X187185489Y-122240814D02*
X187639186Y-122694511D01*
X187957373Y-122694511D02*
X193040000Y-127777138D01*
X187639186Y-122694511D02*
X187957373Y-122694511D01*
D14*
%TO.N,/VCC*%
X194320000Y-128280000D02*
X195580000Y-128280000D01*
X187960000Y-121920000D02*
X194320000Y-128280000D01*
X187960000Y-121920000D02*
X187960000Y-116830978D01*
X187960000Y-116830978D02*
X191765489Y-113025489D01*
X191765489Y-113025489D02*
X194305489Y-113025489D01*
X194305489Y-113025489D02*
X195580000Y-114300000D01*
D13*
%TO.N,/SDA*%
X184245969Y-111760000D02*
X183970989Y-111760000D01*
%TO.N,/SCK*%
X182880000Y-120895386D02*
X183604511Y-121619897D01*
X182880000Y-119646478D02*
X182880000Y-120895386D01*
X183870989Y-118655489D02*
X182880000Y-119646478D01*
X184432166Y-118655489D02*
X183870989Y-118655489D01*
X183604511Y-121619897D02*
X183604511Y-125550989D01*
X184695489Y-118392166D02*
X184432166Y-118655489D01*
X183604511Y-125550989D02*
X182880000Y-126275500D01*
X184695489Y-115849011D02*
X184695489Y-118392166D01*
%TO.N,/SDA*%
X182579897Y-112484511D02*
X183180103Y-112484511D01*
X183904614Y-111760000D02*
X184245969Y-111760000D01*
X182155489Y-111671207D02*
X182155489Y-112060103D01*
X180890417Y-110406135D02*
X182155489Y-111671207D01*
X182155489Y-112060103D02*
X182579897Y-112484511D01*
X178524500Y-112772051D02*
X180890417Y-110406135D01*
X183180103Y-112484511D02*
X183904614Y-111760000D01*
%TO.N,/MISO*%
X180340000Y-124460000D02*
X182880000Y-121920000D01*
X180340000Y-125184500D02*
X180340000Y-124460000D01*
%TO.N,Net-(U4-Pad18)*%
X179890480Y-109669520D02*
X177800000Y-111760000D01*
X180789520Y-109669520D02*
X179890480Y-109669520D01*
X182880000Y-111760000D02*
X180789520Y-109669520D01*
%TO.N,/SCK*%
X176775386Y-109220000D02*
X172720000Y-113275386D01*
X184695489Y-109220000D02*
X176775386Y-109220000D01*
X184695489Y-115849011D02*
X184695489Y-109220000D01*
%TO.N,/RESET*%
X175840567Y-117301792D02*
X178117859Y-115024500D01*
X173845123Y-117301792D02*
X175840567Y-117301792D01*
%TO.N,Net-(Y2-Pad1)*%
X170496128Y-113905552D02*
X170496128Y-113100726D01*
X173036250Y-116445674D02*
X170496128Y-113905552D01*
X175260000Y-116445674D02*
X173036250Y-116445674D01*
X171179503Y-111035500D02*
X171962299Y-111818296D01*
X171962299Y-111818296D02*
X171962299Y-112517701D01*
%TO.N,/D2*%
X147910057Y-116249943D02*
X147910057Y-135200057D01*
X163009520Y-108770480D02*
X162560000Y-109220000D01*
X162560000Y-109220000D02*
X154940000Y-109220000D01*
X154940000Y-109220000D02*
X147910057Y-116249943D01*
X147910057Y-135200057D02*
X152410000Y-139700000D01*
X169905020Y-108770480D02*
X163009520Y-108770480D01*
X170180000Y-108495500D02*
X169905020Y-108770480D01*
X167640000Y-111760000D02*
X167640000Y-113575500D01*
X168364500Y-111035500D02*
X167640000Y-111760000D01*
X170180000Y-111035500D02*
X168364500Y-111035500D01*
%TO.N,Net-(U4-Pad18)*%
X175560103Y-113999897D02*
X177800000Y-111760000D01*
X170812256Y-112392256D02*
X172419897Y-113999897D01*
X170812256Y-111760000D02*
X170812256Y-112392256D01*
X172419897Y-113999897D02*
X175560103Y-113999897D01*
X165732256Y-116840000D02*
X170812256Y-111760000D01*
X177800000Y-111760000D02*
X177800000Y-114300000D01*
X179165489Y-118060785D02*
X179165489Y-120745489D01*
X179790480Y-117435794D02*
X179165489Y-118060785D01*
X179165489Y-120745489D02*
X180340000Y-121920000D01*
X179515500Y-117160814D02*
X179790480Y-117435794D01*
X179515500Y-114300000D02*
X179515500Y-117160814D01*
X177800000Y-114300000D02*
X179515500Y-114300000D01*
%TO.N,/SCK*%
X164375489Y-122091314D02*
X164375489Y-120379491D01*
X164980868Y-122696693D02*
X164375489Y-122091314D01*
X164375489Y-120379491D02*
X165374980Y-119380000D01*
%TO.N,/D3*%
X154950000Y-120929011D02*
X154950000Y-139700000D01*
X155260814Y-120929011D02*
X154950000Y-120929011D01*
X155714511Y-120475314D02*
X155260814Y-120929011D01*
X155714511Y-117796532D02*
X155714511Y-120475314D01*
X156221523Y-117289520D02*
X155714511Y-117796532D01*
X163164688Y-117289520D02*
X156221523Y-117289520D01*
X163739150Y-117863982D02*
X163164688Y-117289520D01*
X165114255Y-117863982D02*
X163739150Y-117863982D01*
X168089520Y-120839247D02*
X165114255Y-117863982D01*
X168089520Y-122369520D02*
X168089520Y-120839247D01*
X169643565Y-123923565D02*
X168089520Y-122369520D01*
X171509199Y-120104511D02*
X172485909Y-121081221D01*
X170546489Y-119680103D02*
X170970897Y-120104511D01*
X170970897Y-120104511D02*
X171509199Y-120104511D01*
X170546489Y-119079897D02*
X170546489Y-119680103D01*
X170970897Y-118655489D02*
X170546489Y-119079897D01*
X172179989Y-118655489D02*
X170970897Y-118655489D01*
X172485909Y-121081221D02*
X169643565Y-123923565D01*
X170180000Y-116655500D02*
X172179989Y-118655489D01*
%TO.N,Net-(U4-Pad18)*%
X163350886Y-116840000D02*
X163925348Y-117414462D01*
X156035325Y-116840000D02*
X163350886Y-116840000D01*
X155260814Y-117614511D02*
X156035325Y-116840000D01*
X153171873Y-117614511D02*
X155260814Y-117614511D01*
X163925348Y-117414462D02*
X165157794Y-117414462D01*
X165157794Y-117414462D02*
X165732256Y-116840000D01*
X149860000Y-119380000D02*
X152398681Y-116841319D01*
X152398681Y-116841319D02*
X153171873Y-117614511D01*
D14*
%TO.N,/VCC*%
X153174500Y-116840000D02*
X152152250Y-115817750D01*
X153670000Y-114300000D02*
X154940000Y-114300000D01*
X154940000Y-116840000D02*
X153174500Y-116840000D01*
X152152250Y-115817750D02*
X153670000Y-114300000D01*
X153392997Y-120154500D02*
X154940000Y-120154500D01*
X152400000Y-122109500D02*
X152400000Y-121147497D01*
X152400000Y-121147497D02*
X153392997Y-120154500D01*
D13*
%TO.N,/D4*%
X157490000Y-132705718D02*
X157490000Y-139700000D01*
X164836678Y-125359040D02*
X157490000Y-132705718D01*
X171420406Y-119380000D02*
X173121627Y-121081221D01*
X171271000Y-119380000D02*
X171420406Y-119380000D01*
X173121627Y-121081221D02*
X168843808Y-125359040D01*
X168843808Y-125359040D02*
X164836678Y-125359040D01*
%TO.N,/SDA*%
X165363323Y-124010480D02*
X167064906Y-124010480D01*
X167640000Y-123435386D02*
X167640000Y-121025444D01*
X167640000Y-121025444D02*
X165100000Y-121025444D01*
X165100000Y-124273803D02*
X165363323Y-124010480D01*
X165100000Y-124460000D02*
X165100000Y-124273803D01*
X162560000Y-124460000D02*
X165100000Y-124460000D01*
X167064906Y-124010480D02*
X167640000Y-123435386D01*
%TO.N,Net-(U2-Pad7)*%
X160020000Y-132080000D02*
X160020000Y-137160000D01*
X160603010Y-131496990D02*
X160020000Y-132080000D01*
%TO.N,/D5*%
X165549520Y-124646197D02*
X165549520Y-124460000D01*
X164650480Y-124909520D02*
X165286197Y-124909520D01*
X165286197Y-124909520D02*
X165549520Y-124646197D01*
X156315489Y-133244511D02*
X164650480Y-124909520D01*
X157003501Y-140874511D02*
X156315489Y-140186499D01*
X158855489Y-140874511D02*
X157003501Y-140874511D01*
X165549520Y-124460000D02*
X167640000Y-124460000D01*
X160030000Y-139700000D02*
X158855489Y-140874511D01*
X156315489Y-140186499D02*
X156315489Y-133244511D01*
%TO.N,Net-(U2-Pad3)*%
X152400000Y-135139011D02*
X152400000Y-132080000D01*
D14*
%TO.N,GND*%
X171464511Y-140974511D02*
X170190000Y-139700000D01*
X176525489Y-140974511D02*
X171464511Y-140974511D01*
X177800000Y-139700000D02*
X176525489Y-140974511D01*
%TO.N,/VCC*%
X174004511Y-138425489D02*
X172730000Y-139700000D01*
X179065489Y-138425489D02*
X174004511Y-138425489D01*
X180340000Y-139700000D02*
X179065489Y-138425489D01*
D13*
%TO.N,/D8*%
X171204614Y-127000000D02*
X171995500Y-127000000D01*
X170692307Y-127512307D02*
X171204614Y-127000000D01*
X170904511Y-127724511D02*
X170692307Y-127512307D01*
X170904511Y-136445489D02*
X170904511Y-127724511D01*
X167650000Y-139700000D02*
X170904511Y-136445489D01*
%TO.N,/D7*%
X169879897Y-127300103D02*
X170180000Y-127000000D01*
X168364511Y-127300103D02*
X169879897Y-127300103D01*
X167940103Y-127724511D02*
X168364511Y-127300103D01*
X167339897Y-127724511D02*
X167940103Y-127724511D01*
X163019520Y-130987634D02*
X166557634Y-127449520D01*
X165110000Y-139700000D02*
X163019520Y-137609520D01*
X163019520Y-137609520D02*
X163019520Y-130987634D01*
X166557634Y-127449520D02*
X167064906Y-127449520D01*
X167064906Y-127449520D02*
X167339897Y-127724511D01*
%TO.N,/D6*%
X166371436Y-127000000D02*
X167640000Y-127000000D01*
X162570000Y-139700000D02*
X162570000Y-130801436D01*
X162570000Y-130801436D02*
X166371436Y-127000000D01*
%TO.N,/TX*%
X173831171Y-119367452D02*
X173732051Y-119367452D01*
X174407141Y-119943422D02*
X173831171Y-119367452D01*
%TO.N,/RX*%
X175260000Y-137160000D02*
X180340000Y-137160000D01*
X172720000Y-122118566D02*
X172720000Y-134620000D01*
X173957621Y-120880943D02*
X172720000Y-122118566D01*
X180340000Y-137160000D02*
X182880000Y-139700000D01*
X173957621Y-120617621D02*
X173957621Y-120880943D01*
X172720000Y-134620000D02*
X175260000Y-137160000D01*
X172720000Y-119380000D02*
X173957621Y-120617621D01*
%TO.N,/TX*%
X182430480Y-136710480D02*
X185420000Y-139700000D01*
X173169520Y-122304763D02*
X173169520Y-132080000D01*
X174407141Y-121067141D02*
X173169520Y-122304763D01*
X173169520Y-132080000D02*
X177800000Y-136710480D01*
X174407141Y-119943422D02*
X174407141Y-121067141D01*
X177800000Y-136710480D02*
X182430480Y-136710480D01*
%TO.N,Net-(U4-Pad20)*%
X173619040Y-127000000D02*
X184695500Y-127000000D01*
X173619040Y-122490960D02*
X173619040Y-127000000D01*
X175260000Y-120850000D02*
X173619040Y-122490960D01*
X175260000Y-119780000D02*
X175260000Y-120850000D01*
X184695500Y-127000000D02*
X185420000Y-126275500D01*
%TO.N,Net-(U4-Pad18)*%
X165732256Y-117172142D02*
X165824500Y-117264386D01*
X165732256Y-116840000D02*
X165732256Y-117172142D01*
%TO.N,/SDA*%
X171204599Y-109220000D02*
X173232300Y-111247701D01*
X164225451Y-109220000D02*
X171204599Y-109220000D01*
X164225451Y-116689951D02*
X164225451Y-109220000D01*
D14*
%TO.N,GND*%
X182880000Y-127774500D02*
X185961480Y-127774500D01*
X185961480Y-127774500D02*
X187960000Y-125775980D01*
X195580000Y-124460000D02*
X193040000Y-121920000D01*
X195580000Y-125740000D02*
X195580000Y-124460000D01*
X193040000Y-121920000D02*
X190500000Y-121920000D01*
X195580000Y-119380000D02*
X193040000Y-121920000D01*
X182655020Y-127549520D02*
X182880000Y-127774500D01*
X182330480Y-127549520D02*
X182655020Y-127549520D01*
X180340000Y-129540000D02*
X182330480Y-127549520D01*
X180340000Y-135394500D02*
X180340000Y-129540000D01*
X180340000Y-116840000D02*
X180290011Y-116840000D01*
X180340000Y-118580000D02*
X180340000Y-116840000D01*
X179940000Y-118980000D02*
X180340000Y-118580000D01*
D13*
%TO.N,/SCK*%
X185420000Y-115124500D02*
X184695489Y-115849011D01*
D14*
%TO.N,/VCC*%
X195580000Y-129545489D02*
X195580000Y-128280000D01*
X196107921Y-129545489D02*
X195580000Y-129545489D01*
X196854511Y-130292079D02*
X196107921Y-129545489D01*
X185947921Y-140974511D02*
X187222432Y-139700000D01*
X187222432Y-139700000D02*
X193040000Y-139700000D01*
X182352079Y-140974511D02*
X185947921Y-140974511D01*
X181605489Y-140227921D02*
X182352079Y-140974511D01*
X193040000Y-139700000D02*
X196854511Y-135885489D01*
X181605489Y-139700000D02*
X181605489Y-140227921D01*
X196854511Y-135885489D02*
X196854511Y-130292079D01*
X180340000Y-139700000D02*
X181605489Y-139700000D01*
%TD*%
%TA.AperFunction,Conductor*%
%TO.N,GND*%
G36*
X191013855Y-107208002D02*
G01*
X191045823Y-107237461D01*
X193310873Y-110199450D01*
X193336364Y-110265713D01*
X193321985Y-110335238D01*
X193272299Y-110385952D01*
X193210784Y-110401989D01*
X187938779Y-110401989D01*
X187927596Y-110401462D01*
X187920103Y-110399787D01*
X187912177Y-110400036D01*
X187912176Y-110400036D01*
X187852013Y-110401927D01*
X187848055Y-110401989D01*
X187820155Y-110401989D01*
X187816165Y-110402493D01*
X187804331Y-110403425D01*
X187760122Y-110404815D01*
X187752506Y-110407028D01*
X187752504Y-110407028D01*
X187740663Y-110410468D01*
X187721304Y-110414477D01*
X187721217Y-110414488D01*
X187701214Y-110417015D01*
X187693848Y-110419931D01*
X187693842Y-110419933D01*
X187660109Y-110433289D01*
X187648879Y-110437134D01*
X187648838Y-110437146D01*
X187606418Y-110449470D01*
X187599595Y-110453505D01*
X187588977Y-110459784D01*
X187571224Y-110468481D01*
X187563579Y-110471508D01*
X187552394Y-110475937D01*
X187545979Y-110480598D01*
X187516623Y-110501926D01*
X187506706Y-110508440D01*
X187468649Y-110530947D01*
X187454328Y-110545268D01*
X187439295Y-110558108D01*
X187422904Y-110570017D01*
X187417853Y-110576123D01*
X187394713Y-110604094D01*
X187386723Y-110612873D01*
X185544084Y-112455511D01*
X185481772Y-112489537D01*
X185410956Y-112484472D01*
X185354121Y-112441925D01*
X185329310Y-112375405D01*
X185328989Y-112366416D01*
X185328989Y-109291793D01*
X185331221Y-109268184D01*
X185331279Y-109267881D01*
X185331279Y-109267877D01*
X185332764Y-109260094D01*
X185329238Y-109204049D01*
X185328989Y-109196138D01*
X185328989Y-109180144D01*
X185326983Y-109164270D01*
X185326240Y-109156402D01*
X185323212Y-109108263D01*
X185323212Y-109108262D01*
X185322714Y-109100350D01*
X185320168Y-109092513D01*
X185314995Y-109069369D01*
X185314957Y-109069065D01*
X185314956Y-109069060D01*
X185313963Y-109061203D01*
X185311047Y-109053838D01*
X185311046Y-109053834D01*
X185293290Y-109008989D01*
X185290618Y-109001570D01*
X185273253Y-108948125D01*
X185269003Y-108941428D01*
X185268839Y-108941169D01*
X185258074Y-108920042D01*
X185257960Y-108919754D01*
X185257957Y-108919749D01*
X185255041Y-108912383D01*
X185250385Y-108905975D01*
X185250382Y-108905969D01*
X185222031Y-108866948D01*
X185217581Y-108860401D01*
X185187489Y-108812982D01*
X185181482Y-108807341D01*
X185165801Y-108789554D01*
X185165623Y-108789309D01*
X185165621Y-108789307D01*
X185160961Y-108782893D01*
X185137643Y-108763602D01*
X185117693Y-108747097D01*
X185111759Y-108741866D01*
X185076591Y-108708842D01*
X185076588Y-108708840D01*
X185070810Y-108703414D01*
X185063586Y-108699442D01*
X185043983Y-108686119D01*
X185043743Y-108685920D01*
X185043736Y-108685916D01*
X185037633Y-108680867D01*
X184986813Y-108656953D01*
X184979781Y-108653371D01*
X184930549Y-108626305D01*
X184922874Y-108624335D01*
X184922868Y-108624332D01*
X184922570Y-108624256D01*
X184900261Y-108616224D01*
X184899986Y-108616094D01*
X184899978Y-108616091D01*
X184892807Y-108612717D01*
X184837640Y-108602194D01*
X184829931Y-108600471D01*
X184795144Y-108591539D01*
X184783196Y-108588471D01*
X184783195Y-108588471D01*
X184775519Y-108586500D01*
X184767282Y-108586500D01*
X184743673Y-108584268D01*
X184743370Y-108584210D01*
X184743366Y-108584210D01*
X184735583Y-108582725D01*
X184679538Y-108586251D01*
X184671627Y-108586500D01*
X176854153Y-108586500D01*
X176842970Y-108585973D01*
X176835477Y-108584298D01*
X176827551Y-108584547D01*
X176827550Y-108584547D01*
X176767387Y-108586438D01*
X176763429Y-108586500D01*
X176735530Y-108586500D01*
X176731540Y-108587004D01*
X176719706Y-108587936D01*
X176675497Y-108589326D01*
X176667883Y-108591538D01*
X176667878Y-108591539D01*
X176656045Y-108594977D01*
X176636682Y-108598988D01*
X176616589Y-108601526D01*
X176609222Y-108604443D01*
X176609217Y-108604444D01*
X176575478Y-108617802D01*
X176564251Y-108621646D01*
X176521793Y-108633982D01*
X176514967Y-108638019D01*
X176504358Y-108644293D01*
X176486610Y-108652988D01*
X176467769Y-108660448D01*
X176461353Y-108665110D01*
X176461352Y-108665110D01*
X176431999Y-108686436D01*
X176422079Y-108692952D01*
X176390851Y-108711420D01*
X176390848Y-108711422D01*
X176384024Y-108715458D01*
X176369703Y-108729779D01*
X176354670Y-108742619D01*
X176338279Y-108754528D01*
X176329603Y-108765016D01*
X176310088Y-108788605D01*
X176302098Y-108797384D01*
X174240224Y-110859257D01*
X174177912Y-110893283D01*
X174107096Y-110888218D01*
X174050261Y-110845671D01*
X174042016Y-110833171D01*
X173971340Y-110710757D01*
X173897250Y-110628471D01*
X173847975Y-110573746D01*
X173847974Y-110573745D01*
X173843553Y-110568835D01*
X173715706Y-110475948D01*
X173694394Y-110460464D01*
X173694393Y-110460463D01*
X173689052Y-110456583D01*
X173683024Y-110453899D01*
X173683022Y-110453898D01*
X173520619Y-110381592D01*
X173520618Y-110381592D01*
X173514588Y-110378907D01*
X173421187Y-110359054D01*
X173334244Y-110340573D01*
X173334239Y-110340573D01*
X173327787Y-110339201D01*
X173271895Y-110339201D01*
X173203774Y-110319199D01*
X173182800Y-110302296D01*
X171708251Y-108827747D01*
X171700711Y-108819461D01*
X171696599Y-108812982D01*
X171646947Y-108766356D01*
X171644106Y-108763602D01*
X171624369Y-108743865D01*
X171621172Y-108741385D01*
X171612150Y-108733680D01*
X171598721Y-108721069D01*
X171579920Y-108703414D01*
X171572974Y-108699595D01*
X171572971Y-108699593D01*
X171562165Y-108693652D01*
X171545646Y-108682801D01*
X171545182Y-108682441D01*
X171529640Y-108670386D01*
X171522371Y-108667241D01*
X171522367Y-108667238D01*
X171489062Y-108652826D01*
X171478412Y-108647609D01*
X171439659Y-108626305D01*
X171420036Y-108621267D01*
X171401333Y-108614863D01*
X171390019Y-108609967D01*
X171390018Y-108609967D01*
X171382744Y-108606819D01*
X171374921Y-108605580D01*
X171374911Y-108605577D01*
X171339075Y-108599901D01*
X171327455Y-108597495D01*
X171292310Y-108588472D01*
X171292309Y-108588472D01*
X171284629Y-108586500D01*
X171264375Y-108586500D01*
X171244664Y-108584949D01*
X171240365Y-108584268D01*
X171224656Y-108581780D01*
X171216762Y-108582526D01*
X171212138Y-108582381D01*
X171144678Y-108560250D01*
X171099893Y-108505162D01*
X171090783Y-108469613D01*
X171074232Y-108312135D01*
X171074232Y-108312133D01*
X171073542Y-108305572D01*
X171014527Y-108123944D01*
X170919040Y-107958556D01*
X170791253Y-107816634D01*
X170636752Y-107704382D01*
X170630724Y-107701698D01*
X170630722Y-107701697D01*
X170468319Y-107629391D01*
X170468318Y-107629391D01*
X170462288Y-107626706D01*
X170368888Y-107606853D01*
X170281944Y-107588372D01*
X170281939Y-107588372D01*
X170275487Y-107587000D01*
X170084513Y-107587000D01*
X170078061Y-107588372D01*
X170078056Y-107588372D01*
X169991112Y-107606853D01*
X169897712Y-107626706D01*
X169891682Y-107629391D01*
X169891681Y-107629391D01*
X169729278Y-107701697D01*
X169729276Y-107701698D01*
X169723248Y-107704382D01*
X169568747Y-107816634D01*
X169440960Y-107958556D01*
X169374320Y-108073980D01*
X169322938Y-108122973D01*
X169265201Y-108136980D01*
X163088287Y-108136980D01*
X163077104Y-108136453D01*
X163069611Y-108134778D01*
X163061685Y-108135027D01*
X163061684Y-108135027D01*
X163001534Y-108136918D01*
X162997575Y-108136980D01*
X162969664Y-108136980D01*
X162965730Y-108137477D01*
X162965729Y-108137477D01*
X162965664Y-108137485D01*
X162953827Y-108138418D01*
X162922010Y-108139418D01*
X162917549Y-108139558D01*
X162909630Y-108139807D01*
X162891974Y-108144936D01*
X162890178Y-108145458D01*
X162870826Y-108149466D01*
X162863755Y-108150360D01*
X162850723Y-108152006D01*
X162843354Y-108154923D01*
X162843352Y-108154924D01*
X162809617Y-108168280D01*
X162798389Y-108172125D01*
X162755927Y-108184462D01*
X162749105Y-108188496D01*
X162749099Y-108188499D01*
X162738488Y-108194774D01*
X162720738Y-108203470D01*
X162709276Y-108208008D01*
X162709271Y-108208011D01*
X162701903Y-108210928D01*
X162695488Y-108215589D01*
X162666145Y-108236907D01*
X162656227Y-108243423D01*
X162637539Y-108254475D01*
X162618157Y-108265938D01*
X162603833Y-108280262D01*
X162588801Y-108293101D01*
X162572413Y-108305008D01*
X162544232Y-108339073D01*
X162536242Y-108347853D01*
X162334500Y-108549595D01*
X162272188Y-108583621D01*
X162245405Y-108586500D01*
X155018768Y-108586500D01*
X155007585Y-108585973D01*
X155000092Y-108584298D01*
X154992166Y-108584547D01*
X154992165Y-108584547D01*
X154932002Y-108586438D01*
X154928044Y-108586500D01*
X154900144Y-108586500D01*
X154896154Y-108587004D01*
X154884320Y-108587936D01*
X154840111Y-108589326D01*
X154832497Y-108591538D01*
X154832492Y-108591539D01*
X154820659Y-108594977D01*
X154801296Y-108598988D01*
X154781203Y-108601526D01*
X154773836Y-108604443D01*
X154773831Y-108604444D01*
X154740092Y-108617802D01*
X154728865Y-108621646D01*
X154686407Y-108633982D01*
X154679581Y-108638019D01*
X154668972Y-108644293D01*
X154651224Y-108652988D01*
X154632383Y-108660448D01*
X154625967Y-108665110D01*
X154625966Y-108665110D01*
X154596613Y-108686436D01*
X154586693Y-108692952D01*
X154555465Y-108711420D01*
X154555462Y-108711422D01*
X154548638Y-108715458D01*
X154534317Y-108729779D01*
X154519284Y-108742619D01*
X154502893Y-108754528D01*
X154494217Y-108765016D01*
X154474702Y-108788605D01*
X154466712Y-108797384D01*
X147517804Y-115746291D01*
X147509518Y-115753831D01*
X147503039Y-115757943D01*
X147497614Y-115763720D01*
X147456414Y-115807594D01*
X147453659Y-115810436D01*
X147433922Y-115830173D01*
X147431442Y-115833370D01*
X147423739Y-115842390D01*
X147393471Y-115874622D01*
X147389652Y-115881568D01*
X147389650Y-115881571D01*
X147383709Y-115892377D01*
X147372858Y-115908896D01*
X147360443Y-115924902D01*
X147357298Y-115932171D01*
X147357295Y-115932175D01*
X147342883Y-115965480D01*
X147337666Y-115976130D01*
X147316362Y-116014883D01*
X147314391Y-116022558D01*
X147314391Y-116022559D01*
X147311324Y-116034505D01*
X147304920Y-116053209D01*
X147296876Y-116071798D01*
X147295637Y-116079621D01*
X147295634Y-116079631D01*
X147289958Y-116115467D01*
X147287552Y-116127087D01*
X147278529Y-116162232D01*
X147276557Y-116169913D01*
X147276557Y-116190167D01*
X147275006Y-116209877D01*
X147271837Y-116229886D01*
X147275438Y-116267975D01*
X147275998Y-116273904D01*
X147276557Y-116285762D01*
X147276557Y-135121290D01*
X147276030Y-135132473D01*
X147274355Y-135139966D01*
X147274604Y-135147892D01*
X147274604Y-135147893D01*
X147276495Y-135208043D01*
X147276557Y-135212002D01*
X147276557Y-135239913D01*
X147277054Y-135243847D01*
X147277054Y-135243848D01*
X147277062Y-135243913D01*
X147277995Y-135255750D01*
X147279384Y-135299946D01*
X147285035Y-135319396D01*
X147289044Y-135338757D01*
X147291583Y-135358854D01*
X147294502Y-135366225D01*
X147294502Y-135366227D01*
X147307861Y-135399969D01*
X147311706Y-135411199D01*
X147324039Y-135453650D01*
X147328072Y-135460469D01*
X147328074Y-135460474D01*
X147334350Y-135471085D01*
X147343045Y-135488833D01*
X147350505Y-135507674D01*
X147355167Y-135514090D01*
X147355167Y-135514091D01*
X147376493Y-135543444D01*
X147383009Y-135553364D01*
X147405515Y-135591419D01*
X147419836Y-135605740D01*
X147432676Y-135620773D01*
X147444585Y-135637164D01*
X147450691Y-135642215D01*
X147478662Y-135665355D01*
X147487441Y-135673345D01*
X151014595Y-139200499D01*
X151048621Y-139262811D01*
X151051500Y-139289594D01*
X151051500Y-140598134D01*
X151058255Y-140660316D01*
X151109385Y-140796705D01*
X151196739Y-140913261D01*
X151313295Y-141000615D01*
X151449684Y-141051745D01*
X151511866Y-141058500D01*
X153308134Y-141058500D01*
X153370316Y-141051745D01*
X153506705Y-141000615D01*
X153623261Y-140913261D01*
X153710615Y-140796705D01*
X153732799Y-140737529D01*
X153754598Y-140679382D01*
X153797240Y-140622618D01*
X153863802Y-140597918D01*
X153933150Y-140613126D01*
X153967817Y-140641114D01*
X153996250Y-140673938D01*
X154168126Y-140816632D01*
X154361000Y-140929338D01*
X154569692Y-141009030D01*
X154574760Y-141010061D01*
X154574763Y-141010062D01*
X154663094Y-141028033D01*
X154788597Y-141053567D01*
X154793772Y-141053757D01*
X154793774Y-141053757D01*
X155006673Y-141061564D01*
X155006677Y-141061564D01*
X155011837Y-141061753D01*
X155016957Y-141061097D01*
X155016959Y-141061097D01*
X155228288Y-141034025D01*
X155228289Y-141034025D01*
X155233416Y-141033368D01*
X155238366Y-141031883D01*
X155442429Y-140970661D01*
X155442434Y-140970659D01*
X155447384Y-140969174D01*
X155647994Y-140870896D01*
X155827303Y-140742997D01*
X155894376Y-140719723D01*
X155963385Y-140736407D01*
X155989566Y-140756481D01*
X156499854Y-141266769D01*
X156507388Y-141275048D01*
X156511501Y-141281529D01*
X156532596Y-141301338D01*
X156561152Y-141328154D01*
X156563994Y-141330909D01*
X156583731Y-141350646D01*
X156586928Y-141353126D01*
X156595948Y-141360829D01*
X156628180Y-141391097D01*
X156635126Y-141394916D01*
X156635129Y-141394918D01*
X156645935Y-141400859D01*
X156662454Y-141411710D01*
X156678460Y-141424125D01*
X156685729Y-141427270D01*
X156685733Y-141427273D01*
X156719038Y-141441685D01*
X156729688Y-141446902D01*
X156768441Y-141468206D01*
X156776116Y-141470177D01*
X156776117Y-141470177D01*
X156788063Y-141473244D01*
X156806768Y-141479648D01*
X156825356Y-141487692D01*
X156833179Y-141488931D01*
X156833189Y-141488934D01*
X156869025Y-141494610D01*
X156880645Y-141497016D01*
X156912460Y-141505184D01*
X156923471Y-141508011D01*
X156943725Y-141508011D01*
X156963435Y-141509562D01*
X156983444Y-141512731D01*
X156991336Y-141511985D01*
X157010081Y-141510213D01*
X157027463Y-141508570D01*
X157039320Y-141508011D01*
X158776722Y-141508011D01*
X158787905Y-141508538D01*
X158795398Y-141510213D01*
X158803324Y-141509964D01*
X158803325Y-141509964D01*
X158863475Y-141508073D01*
X158867434Y-141508011D01*
X158895345Y-141508011D01*
X158899280Y-141507514D01*
X158899345Y-141507506D01*
X158911182Y-141506573D01*
X158943440Y-141505559D01*
X158947459Y-141505433D01*
X158955378Y-141505184D01*
X158974832Y-141499532D01*
X158994189Y-141495524D01*
X159006419Y-141493979D01*
X159006420Y-141493979D01*
X159014286Y-141492985D01*
X159021657Y-141490066D01*
X159021659Y-141490066D01*
X159055401Y-141476707D01*
X159066631Y-141472862D01*
X159101472Y-141462740D01*
X159101473Y-141462740D01*
X159109082Y-141460529D01*
X159115901Y-141456496D01*
X159115906Y-141456494D01*
X159126517Y-141450218D01*
X159144265Y-141441523D01*
X159163106Y-141434063D01*
X159198876Y-141408075D01*
X159208796Y-141401559D01*
X159240024Y-141383091D01*
X159240027Y-141383089D01*
X159246851Y-141379053D01*
X159261172Y-141364732D01*
X159276206Y-141351891D01*
X159286183Y-141344642D01*
X159292596Y-141339983D01*
X159320787Y-141305906D01*
X159328777Y-141297127D01*
X159574549Y-141051355D01*
X159636861Y-141017329D01*
X159688762Y-141016979D01*
X159868597Y-141053567D01*
X159873772Y-141053757D01*
X159873774Y-141053757D01*
X160086673Y-141061564D01*
X160086677Y-141061564D01*
X160091837Y-141061753D01*
X160096957Y-141061097D01*
X160096959Y-141061097D01*
X160308288Y-141034025D01*
X160308289Y-141034025D01*
X160313416Y-141033368D01*
X160318366Y-141031883D01*
X160522429Y-140970661D01*
X160522434Y-140970659D01*
X160527384Y-140969174D01*
X160727994Y-140870896D01*
X160909860Y-140741173D01*
X161068096Y-140583489D01*
X161198453Y-140402077D01*
X161199776Y-140403028D01*
X161246645Y-140359857D01*
X161316580Y-140347625D01*
X161382026Y-140375144D01*
X161409875Y-140406994D01*
X161469987Y-140505088D01*
X161616250Y-140673938D01*
X161788126Y-140816632D01*
X161981000Y-140929338D01*
X162189692Y-141009030D01*
X162194760Y-141010061D01*
X162194763Y-141010062D01*
X162283094Y-141028033D01*
X162408597Y-141053567D01*
X162413772Y-141053757D01*
X162413774Y-141053757D01*
X162626673Y-141061564D01*
X162626677Y-141061564D01*
X162631837Y-141061753D01*
X162636957Y-141061097D01*
X162636959Y-141061097D01*
X162848288Y-141034025D01*
X162848289Y-141034025D01*
X162853416Y-141033368D01*
X162858366Y-141031883D01*
X163062429Y-140970661D01*
X163062434Y-140970659D01*
X163067384Y-140969174D01*
X163267994Y-140870896D01*
X163449860Y-140741173D01*
X163608096Y-140583489D01*
X163738453Y-140402077D01*
X163739776Y-140403028D01*
X163786645Y-140359857D01*
X163856580Y-140347625D01*
X163922026Y-140375144D01*
X163949875Y-140406994D01*
X164009987Y-140505088D01*
X164156250Y-140673938D01*
X164328126Y-140816632D01*
X164521000Y-140929338D01*
X164729692Y-141009030D01*
X164734760Y-141010061D01*
X164734763Y-141010062D01*
X164823094Y-141028033D01*
X164948597Y-141053567D01*
X164953772Y-141053757D01*
X164953774Y-141053757D01*
X165166673Y-141061564D01*
X165166677Y-141061564D01*
X165171837Y-141061753D01*
X165176957Y-141061097D01*
X165176959Y-141061097D01*
X165388288Y-141034025D01*
X165388289Y-141034025D01*
X165393416Y-141033368D01*
X165398366Y-141031883D01*
X165602429Y-140970661D01*
X165602434Y-140970659D01*
X165607384Y-140969174D01*
X165807994Y-140870896D01*
X165989860Y-140741173D01*
X166148096Y-140583489D01*
X166278453Y-140402077D01*
X166279776Y-140403028D01*
X166326645Y-140359857D01*
X166396580Y-140347625D01*
X166462026Y-140375144D01*
X166489875Y-140406994D01*
X166549987Y-140505088D01*
X166696250Y-140673938D01*
X166868126Y-140816632D01*
X167061000Y-140929338D01*
X167269692Y-141009030D01*
X167274760Y-141010061D01*
X167274763Y-141010062D01*
X167363094Y-141028033D01*
X167488597Y-141053567D01*
X167493772Y-141053757D01*
X167493774Y-141053757D01*
X167706673Y-141061564D01*
X167706677Y-141061564D01*
X167711837Y-141061753D01*
X167716957Y-141061097D01*
X167716959Y-141061097D01*
X167928288Y-141034025D01*
X167928289Y-141034025D01*
X167933416Y-141033368D01*
X167938366Y-141031883D01*
X168142429Y-140970661D01*
X168142434Y-140970659D01*
X168147384Y-140969174D01*
X168347994Y-140870896D01*
X168529860Y-140741173D01*
X168688096Y-140583489D01*
X168818453Y-140402077D01*
X168819640Y-140402930D01*
X168866960Y-140359362D01*
X168936897Y-140347145D01*
X169002338Y-140374678D01*
X169030166Y-140406511D01*
X169087694Y-140500388D01*
X169093777Y-140508699D01*
X169233213Y-140669667D01*
X169240580Y-140676883D01*
X169404434Y-140812916D01*
X169412881Y-140818831D01*
X169596756Y-140926279D01*
X169606042Y-140930729D01*
X169805001Y-141006703D01*
X169814899Y-141009579D01*
X169918250Y-141030606D01*
X169932299Y-141029410D01*
X169936000Y-141019065D01*
X169936000Y-138364987D01*
X169940447Y-138364987D01*
X169940440Y-138327275D01*
X169972248Y-138273656D01*
X171296758Y-136949146D01*
X171305048Y-136941602D01*
X171311529Y-136937489D01*
X171358170Y-136887821D01*
X171360924Y-136884980D01*
X171380646Y-136865258D01*
X171383123Y-136862065D01*
X171390828Y-136853044D01*
X171415670Y-136826589D01*
X171421097Y-136820810D01*
X171424918Y-136813860D01*
X171430857Y-136803057D01*
X171441713Y-136786530D01*
X171449268Y-136776791D01*
X171449269Y-136776789D01*
X171454125Y-136770529D01*
X171471685Y-136729949D01*
X171476902Y-136719301D01*
X171494386Y-136687498D01*
X171494387Y-136687496D01*
X171498206Y-136680549D01*
X171503244Y-136660926D01*
X171509648Y-136642223D01*
X171514544Y-136630909D01*
X171514544Y-136630908D01*
X171517692Y-136623634D01*
X171518931Y-136615811D01*
X171518934Y-136615801D01*
X171524610Y-136579965D01*
X171527016Y-136568345D01*
X171536039Y-136533200D01*
X171536039Y-136533199D01*
X171538011Y-136525519D01*
X171538011Y-136505265D01*
X171539562Y-136485554D01*
X171541491Y-136473375D01*
X171542731Y-136465546D01*
X171538570Y-136421527D01*
X171538011Y-136409670D01*
X171538011Y-127984566D01*
X171558013Y-127916445D01*
X171611669Y-127869952D01*
X171681943Y-127859848D01*
X171702950Y-127864734D01*
X171707181Y-127866109D01*
X171713212Y-127868794D01*
X171719668Y-127870166D01*
X171719667Y-127870166D01*
X171893556Y-127907128D01*
X171893561Y-127907128D01*
X171900013Y-127908500D01*
X171960500Y-127908500D01*
X172028621Y-127928502D01*
X172075114Y-127982158D01*
X172086500Y-128034500D01*
X172086500Y-134541233D01*
X172085973Y-134552416D01*
X172084298Y-134559909D01*
X172084547Y-134567835D01*
X172084547Y-134567836D01*
X172086438Y-134627986D01*
X172086500Y-134631945D01*
X172086500Y-134659856D01*
X172086997Y-134663790D01*
X172086997Y-134663791D01*
X172087005Y-134663856D01*
X172087938Y-134675693D01*
X172089327Y-134719889D01*
X172094978Y-134739339D01*
X172098987Y-134758700D01*
X172100470Y-134770435D01*
X172101526Y-134778797D01*
X172104445Y-134786168D01*
X172104445Y-134786170D01*
X172117804Y-134819912D01*
X172121649Y-134831142D01*
X172133982Y-134873593D01*
X172138015Y-134880412D01*
X172138017Y-134880417D01*
X172144293Y-134891028D01*
X172152988Y-134908776D01*
X172160448Y-134927617D01*
X172165110Y-134934033D01*
X172165110Y-134934034D01*
X172186436Y-134963387D01*
X172192952Y-134973307D01*
X172215458Y-135011362D01*
X172229779Y-135025683D01*
X172242619Y-135040716D01*
X172254528Y-135057107D01*
X172260634Y-135062158D01*
X172288605Y-135085298D01*
X172297384Y-135093288D01*
X174730990Y-137526894D01*
X174765016Y-137589206D01*
X174759951Y-137660021D01*
X174717404Y-137716857D01*
X174650884Y-137741668D01*
X174641895Y-137741989D01*
X174032567Y-137741989D01*
X174023997Y-137741697D01*
X174022954Y-137741626D01*
X173968477Y-137737912D01*
X173961000Y-137739217D01*
X173960997Y-137739217D01*
X173907853Y-137748492D01*
X173901330Y-137749455D01*
X173847819Y-137755931D01*
X173847818Y-137755931D01*
X173840276Y-137756844D01*
X173833166Y-137759530D01*
X173828263Y-137760735D01*
X173817777Y-137763603D01*
X173812985Y-137765050D01*
X173805507Y-137766355D01*
X173798555Y-137769407D01*
X173798554Y-137769407D01*
X173749170Y-137791084D01*
X173743065Y-137793575D01*
X173692629Y-137812634D01*
X173692626Y-137812636D01*
X173685522Y-137815320D01*
X173679265Y-137819620D01*
X173674797Y-137821956D01*
X173665351Y-137827214D01*
X173660985Y-137829796D01*
X173654026Y-137832851D01*
X173605207Y-137870312D01*
X173599888Y-137874175D01*
X173561190Y-137900772D01*
X173549185Y-137909023D01*
X173544134Y-137914692D01*
X173509279Y-137953812D01*
X173504298Y-137959087D01*
X173127326Y-138336059D01*
X173065014Y-138370085D01*
X173016135Y-138371011D01*
X172863373Y-138343800D01*
X172863367Y-138343799D01*
X172858284Y-138342894D01*
X172784452Y-138341992D01*
X172640081Y-138340228D01*
X172640079Y-138340228D01*
X172634911Y-138340165D01*
X172414091Y-138373955D01*
X172201756Y-138443357D01*
X172128757Y-138481358D01*
X172011762Y-138542262D01*
X172003607Y-138546507D01*
X171999474Y-138549610D01*
X171999471Y-138549612D01*
X171829100Y-138677530D01*
X171824965Y-138680635D01*
X171821393Y-138684373D01*
X171713729Y-138797037D01*
X171670629Y-138842138D01*
X171563204Y-138999618D01*
X171562898Y-139000066D01*
X171507987Y-139045069D01*
X171437462Y-139053240D01*
X171373715Y-139021986D01*
X171353018Y-138997502D01*
X171272426Y-138872926D01*
X171266136Y-138864757D01*
X171122806Y-138707240D01*
X171115273Y-138700215D01*
X170948139Y-138568222D01*
X170939552Y-138562517D01*
X170753117Y-138459599D01*
X170743705Y-138455369D01*
X170542959Y-138384280D01*
X170532988Y-138381646D01*
X170461837Y-138368972D01*
X170448540Y-138370432D01*
X170444000Y-138384989D01*
X170444000Y-141018517D01*
X170448064Y-141032359D01*
X170461478Y-141034393D01*
X170468184Y-141033534D01*
X170478262Y-141031392D01*
X170682255Y-140970191D01*
X170691842Y-140966433D01*
X170883095Y-140872739D01*
X170891945Y-140867464D01*
X171065328Y-140743792D01*
X171073200Y-140737139D01*
X171224052Y-140586812D01*
X171230730Y-140578965D01*
X171358022Y-140401819D01*
X171359279Y-140402722D01*
X171406373Y-140359362D01*
X171476311Y-140347145D01*
X171541751Y-140374678D01*
X171569579Y-140406511D01*
X171629987Y-140505088D01*
X171776250Y-140673938D01*
X171948126Y-140816632D01*
X172141000Y-140929338D01*
X172349692Y-141009030D01*
X172354760Y-141010061D01*
X172354763Y-141010062D01*
X172443094Y-141028033D01*
X172568597Y-141053567D01*
X172573772Y-141053757D01*
X172573774Y-141053757D01*
X172786673Y-141061564D01*
X172786677Y-141061564D01*
X172791837Y-141061753D01*
X172796957Y-141061097D01*
X172796959Y-141061097D01*
X173008288Y-141034025D01*
X173008289Y-141034025D01*
X173013416Y-141033368D01*
X173018366Y-141031883D01*
X173222429Y-140970661D01*
X173222434Y-140970659D01*
X173227384Y-140969174D01*
X173427994Y-140870896D01*
X173609860Y-140741173D01*
X173756877Y-140594669D01*
X176442001Y-140594669D01*
X176442371Y-140601490D01*
X176447895Y-140652352D01*
X176451521Y-140667604D01*
X176496676Y-140788054D01*
X176505214Y-140803649D01*
X176581715Y-140905724D01*
X176594276Y-140918285D01*
X176696351Y-140994786D01*
X176711946Y-141003324D01*
X176832394Y-141048478D01*
X176847649Y-141052105D01*
X176898514Y-141057631D01*
X176905328Y-141058000D01*
X177527885Y-141058000D01*
X177543124Y-141053525D01*
X177544329Y-141052135D01*
X177546000Y-141044452D01*
X177546000Y-139972115D01*
X177541525Y-139956876D01*
X177540135Y-139955671D01*
X177532452Y-139954000D01*
X176460116Y-139954000D01*
X176444877Y-139958475D01*
X176443672Y-139959865D01*
X176442001Y-139967548D01*
X176442001Y-140594669D01*
X173756877Y-140594669D01*
X173768096Y-140583489D01*
X173898453Y-140402077D01*
X173906212Y-140386379D01*
X173995136Y-140206453D01*
X173995137Y-140206451D01*
X173997430Y-140201811D01*
X174062370Y-139988069D01*
X174091529Y-139766590D01*
X174092170Y-139740366D01*
X174093074Y-139703365D01*
X174093074Y-139703361D01*
X174093156Y-139700000D01*
X174074852Y-139477361D01*
X174066616Y-139444570D01*
X174061017Y-139422278D01*
X174063822Y-139351337D01*
X174094126Y-139302489D01*
X174250721Y-139145894D01*
X174313033Y-139111868D01*
X174339816Y-139108989D01*
X176316000Y-139108989D01*
X176384121Y-139128991D01*
X176430614Y-139182647D01*
X176442000Y-139234989D01*
X176442000Y-139427885D01*
X176446475Y-139443124D01*
X176447865Y-139444329D01*
X176455548Y-139446000D01*
X177928000Y-139446000D01*
X177996121Y-139466002D01*
X178042614Y-139519658D01*
X178054000Y-139572000D01*
X178054000Y-141039884D01*
X178058475Y-141055123D01*
X178059865Y-141056328D01*
X178067548Y-141057999D01*
X178694669Y-141057999D01*
X178701490Y-141057629D01*
X178752352Y-141052105D01*
X178767604Y-141048479D01*
X178888054Y-141003324D01*
X178903649Y-140994786D01*
X179005724Y-140918285D01*
X179018285Y-140905724D01*
X179094786Y-140803649D01*
X179103324Y-140788054D01*
X179144225Y-140678952D01*
X179186867Y-140622188D01*
X179253428Y-140597488D01*
X179322777Y-140612696D01*
X179357444Y-140640684D01*
X179382865Y-140670031D01*
X179382869Y-140670035D01*
X179386250Y-140673938D01*
X179558126Y-140816632D01*
X179751000Y-140929338D01*
X179959692Y-141009030D01*
X179964760Y-141010061D01*
X179964763Y-141010062D01*
X180053094Y-141028033D01*
X180178597Y-141053567D01*
X180183772Y-141053757D01*
X180183774Y-141053757D01*
X180396673Y-141061564D01*
X180396677Y-141061564D01*
X180401837Y-141061753D01*
X180406957Y-141061097D01*
X180406959Y-141061097D01*
X180618288Y-141034025D01*
X180618289Y-141034025D01*
X180623416Y-141033368D01*
X180628366Y-141031883D01*
X180832429Y-140970661D01*
X180832434Y-140970659D01*
X180837384Y-140969174D01*
X181037994Y-140870896D01*
X181093487Y-140831314D01*
X181160559Y-140808040D01*
X181229568Y-140824723D01*
X181255750Y-140844797D01*
X181848923Y-141437970D01*
X181854777Y-141444235D01*
X181891369Y-141486181D01*
X181941734Y-141521577D01*
X181946999Y-141525489D01*
X181995407Y-141563446D01*
X182002331Y-141566572D01*
X182006640Y-141569182D01*
X182016055Y-141574553D01*
X182020503Y-141576938D01*
X182026718Y-141581306D01*
X182084036Y-141603653D01*
X182090108Y-141606205D01*
X182146184Y-141631525D01*
X182153661Y-141632911D01*
X182158481Y-141634421D01*
X182168897Y-141637389D01*
X182173777Y-141638642D01*
X182180851Y-141641400D01*
X182188382Y-141642392D01*
X182188384Y-141642392D01*
X182241856Y-141649432D01*
X182248369Y-141650464D01*
X182301378Y-141660288D01*
X182301380Y-141660288D01*
X182308847Y-141661672D01*
X182316428Y-141661235D01*
X182316429Y-141661235D01*
X182368722Y-141658220D01*
X182375974Y-141658011D01*
X185919876Y-141658011D01*
X185928445Y-141658303D01*
X185976379Y-141661571D01*
X185976383Y-141661571D01*
X185983955Y-141662087D01*
X185991432Y-141660782D01*
X185991435Y-141660782D01*
X186044568Y-141651509D01*
X186051092Y-141650546D01*
X186104612Y-141644069D01*
X186112156Y-141643156D01*
X186119266Y-141640469D01*
X186124169Y-141639265D01*
X186134655Y-141636397D01*
X186139447Y-141634950D01*
X186146925Y-141633645D01*
X186153878Y-141630593D01*
X186203262Y-141608916D01*
X186209367Y-141606425D01*
X186259803Y-141587366D01*
X186259806Y-141587364D01*
X186266910Y-141584680D01*
X186273167Y-141580380D01*
X186277635Y-141578044D01*
X186287081Y-141572786D01*
X186291447Y-141570204D01*
X186298406Y-141567149D01*
X186347225Y-141529688D01*
X186352544Y-141525825D01*
X186394460Y-141497016D01*
X186403247Y-141490977D01*
X186443154Y-141446187D01*
X186448134Y-141440913D01*
X187468642Y-140420405D01*
X187530954Y-140386379D01*
X187557737Y-140383500D01*
X192560310Y-140383500D01*
X192628431Y-140403502D01*
X192674924Y-140457158D01*
X192685028Y-140527432D01*
X192655534Y-140592012D01*
X192649405Y-140598595D01*
X192024000Y-141224000D01*
X192020547Y-141229180D01*
X192020545Y-141229182D01*
X191045405Y-142691892D01*
X190990976Y-142737477D01*
X190940567Y-142748000D01*
X187960000Y-142748000D01*
X168477751Y-143018587D01*
X151431146Y-143255345D01*
X151362754Y-143236291D01*
X151348007Y-143225544D01*
X150479726Y-142490845D01*
X148916818Y-141168384D01*
X148877737Y-141109114D01*
X148873043Y-141086681D01*
X148869740Y-141058131D01*
X148853792Y-140920301D01*
X148840334Y-140872739D01*
X148786884Y-140683852D01*
X148786883Y-140683850D01*
X148785506Y-140678983D01*
X148783372Y-140674408D01*
X148783370Y-140674401D01*
X148681653Y-140456269D01*
X148681651Y-140456265D01*
X148679516Y-140451687D01*
X148649143Y-140406994D01*
X148541395Y-140248448D01*
X148541392Y-140248444D01*
X148538549Y-140244261D01*
X148493722Y-140196857D01*
X148369713Y-140065721D01*
X148366233Y-140062041D01*
X148362206Y-140058962D01*
X148171019Y-139912788D01*
X148171015Y-139912785D01*
X148166999Y-139909715D01*
X147945974Y-139791203D01*
X147941193Y-139789557D01*
X147941189Y-139789555D01*
X147713633Y-139711201D01*
X147708844Y-139709552D01*
X147605311Y-139691669D01*
X147465620Y-139667540D01*
X147465614Y-139667539D01*
X147461710Y-139666865D01*
X147457749Y-139666685D01*
X147457748Y-139666685D01*
X147433069Y-139665564D01*
X147433050Y-139665564D01*
X147431650Y-139665500D01*
X147256985Y-139665500D01*
X147254477Y-139665702D01*
X147254472Y-139665702D01*
X147202594Y-139669876D01*
X147133088Y-139655402D01*
X147111100Y-139640469D01*
X145545763Y-138315953D01*
X145332611Y-138135594D01*
X145293529Y-138076322D01*
X145288000Y-138039407D01*
X145288000Y-113409268D01*
X145308002Y-113341147D01*
X145331477Y-113314053D01*
X152364481Y-107218783D01*
X152429059Y-107189284D01*
X152447002Y-107188000D01*
X190945734Y-107188000D01*
X191013855Y-107208002D01*
G37*
%TD.AperFunction*%
%TA.AperFunction,Conductor*%
G36*
X186078012Y-118400435D02*
G01*
X186105151Y-118421056D01*
X186193637Y-118509542D01*
X186204604Y-118529626D01*
X186210508Y-118531238D01*
X186233513Y-118549419D01*
X186920264Y-119236170D01*
X186933105Y-119251204D01*
X186945008Y-119267587D01*
X186979073Y-119295768D01*
X186987853Y-119303758D01*
X186990710Y-119306615D01*
X187012804Y-119323754D01*
X187015864Y-119326205D01*
X187068336Y-119369613D01*
X187075280Y-119372881D01*
X187075767Y-119373223D01*
X187078842Y-119375108D01*
X187079373Y-119375389D01*
X187085439Y-119380094D01*
X187100393Y-119386565D01*
X187147932Y-119407137D01*
X187151520Y-119408756D01*
X187204149Y-119433522D01*
X187257269Y-119480623D01*
X187276500Y-119547529D01*
X187276500Y-121273006D01*
X187256498Y-121341127D01*
X187244135Y-121357317D01*
X187225383Y-121378143D01*
X187225380Y-121378147D01*
X187220960Y-121383056D01*
X187217659Y-121388774D01*
X187217657Y-121388777D01*
X187127857Y-121544314D01*
X187076474Y-121593307D01*
X187018738Y-121607314D01*
X186361262Y-121607314D01*
X186293141Y-121587312D01*
X186252143Y-121544314D01*
X186162342Y-121388774D01*
X186162339Y-121388769D01*
X186159040Y-121383056D01*
X186143957Y-121366304D01*
X186035675Y-121246045D01*
X186035674Y-121246044D01*
X186031253Y-121241134D01*
X185912162Y-121154609D01*
X185882094Y-121132763D01*
X185882093Y-121132762D01*
X185876752Y-121128882D01*
X185870724Y-121126198D01*
X185870722Y-121126197D01*
X185708319Y-121053891D01*
X185708318Y-121053891D01*
X185702288Y-121051206D01*
X185608888Y-121031353D01*
X185521944Y-121012872D01*
X185521939Y-121012872D01*
X185515487Y-121011500D01*
X185324513Y-121011500D01*
X185318061Y-121012872D01*
X185318056Y-121012872D01*
X185231112Y-121031353D01*
X185137712Y-121051206D01*
X185131682Y-121053891D01*
X185131681Y-121053891D01*
X184969278Y-121126197D01*
X184969276Y-121126198D01*
X184963248Y-121128882D01*
X184957907Y-121132762D01*
X184957906Y-121132763D01*
X184927838Y-121154609D01*
X184808747Y-121241134D01*
X184804326Y-121246044D01*
X184804325Y-121246045D01*
X184696044Y-121366304D01*
X184680960Y-121383056D01*
X184585473Y-121548444D01*
X184526458Y-121730072D01*
X184525768Y-121736633D01*
X184525768Y-121736635D01*
X184517371Y-121816531D01*
X184506496Y-121920000D01*
X184507186Y-121926565D01*
X184516370Y-122013942D01*
X184526458Y-122109928D01*
X184585473Y-122291556D01*
X184588776Y-122297278D01*
X184588777Y-122297279D01*
X184601557Y-122319414D01*
X184680960Y-122456944D01*
X184685378Y-122461851D01*
X184685379Y-122461852D01*
X184789220Y-122577179D01*
X184808747Y-122598866D01*
X184907843Y-122670864D01*
X184952430Y-122703258D01*
X184963248Y-122711118D01*
X184969276Y-122713802D01*
X184969278Y-122713803D01*
X185114151Y-122778304D01*
X185137712Y-122788794D01*
X185222480Y-122806812D01*
X185318056Y-122827128D01*
X185318061Y-122827128D01*
X185324513Y-122828500D01*
X185469241Y-122828500D01*
X185505521Y-122835420D01*
X185505755Y-122834509D01*
X185525376Y-122839547D01*
X185544081Y-122845951D01*
X185562669Y-122853995D01*
X185570492Y-122855234D01*
X185570502Y-122855237D01*
X185606338Y-122860913D01*
X185617958Y-122863319D01*
X185653103Y-122872342D01*
X185660784Y-122874314D01*
X185681038Y-122874314D01*
X185700748Y-122875865D01*
X185720757Y-122879034D01*
X185728649Y-122878288D01*
X185764775Y-122874873D01*
X185776633Y-122874314D01*
X186870895Y-122874314D01*
X186939016Y-122894316D01*
X186959990Y-122911219D01*
X187135529Y-123086758D01*
X187143073Y-123095048D01*
X187147186Y-123101529D01*
X187152963Y-123106954D01*
X187196853Y-123148169D01*
X187199695Y-123150924D01*
X187219416Y-123170645D01*
X187222611Y-123173123D01*
X187231633Y-123180829D01*
X187263865Y-123211097D01*
X187270814Y-123214917D01*
X187281618Y-123220857D01*
X187298142Y-123231710D01*
X187314145Y-123244124D01*
X187354729Y-123261687D01*
X187365359Y-123266894D01*
X187404126Y-123288206D01*
X187411803Y-123290177D01*
X187411808Y-123290179D01*
X187423744Y-123293243D01*
X187442452Y-123299648D01*
X187461041Y-123307692D01*
X187468866Y-123308931D01*
X187468868Y-123308932D01*
X187504705Y-123314608D01*
X187516326Y-123317015D01*
X187551475Y-123326039D01*
X187559156Y-123328011D01*
X187579417Y-123328011D01*
X187599126Y-123329562D01*
X187619129Y-123332730D01*
X187633703Y-123331352D01*
X187703402Y-123344854D01*
X187734656Y-123367698D01*
X192369595Y-128002638D01*
X192403621Y-128064950D01*
X192406500Y-128091733D01*
X192406500Y-128837476D01*
X192386498Y-128905597D01*
X192374142Y-128921779D01*
X192300960Y-129003056D01*
X192205473Y-129168444D01*
X192146458Y-129350072D01*
X192145768Y-129356633D01*
X192145768Y-129356635D01*
X192133929Y-129469275D01*
X192126496Y-129540000D01*
X192127186Y-129546565D01*
X192138369Y-129652961D01*
X192146458Y-129729928D01*
X192205473Y-129911556D01*
X192300960Y-130076944D01*
X192305378Y-130081851D01*
X192305379Y-130081852D01*
X192367978Y-130151375D01*
X192428747Y-130218866D01*
X192583248Y-130331118D01*
X192589276Y-130333802D01*
X192589278Y-130333803D01*
X192751681Y-130406109D01*
X192757712Y-130408794D01*
X192851113Y-130428647D01*
X192938056Y-130447128D01*
X192938061Y-130447128D01*
X192944513Y-130448500D01*
X193135487Y-130448500D01*
X193141939Y-130447128D01*
X193141944Y-130447128D01*
X193228887Y-130428647D01*
X193322288Y-130408794D01*
X193328319Y-130406109D01*
X193490722Y-130333803D01*
X193490724Y-130333802D01*
X193496752Y-130331118D01*
X193651253Y-130218866D01*
X193712022Y-130151375D01*
X193774621Y-130081852D01*
X193774622Y-130081851D01*
X193779040Y-130076944D01*
X193874527Y-129911556D01*
X193933542Y-129729928D01*
X193941632Y-129652961D01*
X193952814Y-129546565D01*
X193953504Y-129540000D01*
X193946071Y-129469275D01*
X193934232Y-129356635D01*
X193934232Y-129356633D01*
X193933542Y-129350072D01*
X193874527Y-129168444D01*
X193828654Y-129088990D01*
X193804957Y-129047945D01*
X193788219Y-128978950D01*
X193811439Y-128911858D01*
X193867247Y-128867971D01*
X193937922Y-128861222D01*
X193965928Y-128870109D01*
X193968971Y-128871483D01*
X193983973Y-128880040D01*
X193988423Y-128882426D01*
X193994639Y-128886795D01*
X194051952Y-128909140D01*
X194058034Y-128911697D01*
X194058391Y-128911858D01*
X194114104Y-128937014D01*
X194121576Y-128938399D01*
X194126427Y-128939919D01*
X194136765Y-128942864D01*
X194141696Y-128944130D01*
X194148772Y-128946889D01*
X194156301Y-128947880D01*
X194156304Y-128947881D01*
X194209766Y-128954919D01*
X194216281Y-128955951D01*
X194260839Y-128964209D01*
X194276767Y-128967161D01*
X194284347Y-128966724D01*
X194284348Y-128966724D01*
X194300772Y-128965777D01*
X194327967Y-128964209D01*
X194397127Y-128980257D01*
X194442652Y-129024165D01*
X194477285Y-129080680D01*
X194477290Y-129080687D01*
X194479987Y-129085088D01*
X194626250Y-129253938D01*
X194798126Y-129396632D01*
X194834072Y-129417637D01*
X194882794Y-129469275D01*
X194896500Y-129526424D01*
X194896500Y-129537048D01*
X194896498Y-129537707D01*
X194896318Y-129572138D01*
X194875960Y-129640153D01*
X194845973Y-129672239D01*
X194683211Y-129794444D01*
X194674965Y-129800635D01*
X194520629Y-129962138D01*
X194394743Y-130146680D01*
X194392564Y-130151375D01*
X194307884Y-130333803D01*
X194300688Y-130349305D01*
X194240989Y-130564570D01*
X194217251Y-130786695D01*
X194230110Y-131009715D01*
X194231247Y-131014761D01*
X194231248Y-131014767D01*
X194254899Y-131119711D01*
X194279222Y-131227639D01*
X194311472Y-131307062D01*
X194351665Y-131406045D01*
X194363266Y-131434616D01*
X194365965Y-131439020D01*
X194457260Y-131588000D01*
X194479987Y-131625088D01*
X194626250Y-131793938D01*
X194798126Y-131936632D01*
X194823380Y-131951389D01*
X194871445Y-131979476D01*
X194920169Y-132031114D01*
X194933240Y-132100897D01*
X194906509Y-132166669D01*
X194866055Y-132200027D01*
X194853607Y-132206507D01*
X194849474Y-132209610D01*
X194849471Y-132209612D01*
X194741348Y-132290793D01*
X194674965Y-132340635D01*
X194520629Y-132502138D01*
X194394743Y-132686680D01*
X194361504Y-132758288D01*
X194311235Y-132866584D01*
X194300688Y-132889305D01*
X194240989Y-133104570D01*
X194217251Y-133326695D01*
X194217548Y-133331848D01*
X194217548Y-133331851D01*
X194220035Y-133374979D01*
X194230110Y-133549715D01*
X194231247Y-133554761D01*
X194231248Y-133554767D01*
X194255304Y-133661508D01*
X194279222Y-133767639D01*
X194363266Y-133974616D01*
X194479987Y-134165088D01*
X194626250Y-134333938D01*
X194798126Y-134476632D01*
X194991000Y-134589338D01*
X195199692Y-134669030D01*
X195204760Y-134670061D01*
X195204763Y-134670062D01*
X195289806Y-134687364D01*
X195418597Y-134713567D01*
X195423772Y-134713757D01*
X195423774Y-134713757D01*
X195636673Y-134721564D01*
X195636677Y-134721564D01*
X195641837Y-134721753D01*
X195646957Y-134721097D01*
X195646959Y-134721097D01*
X195858288Y-134694025D01*
X195858289Y-134694025D01*
X195863416Y-134693368D01*
X195868373Y-134691881D01*
X195868377Y-134691880D01*
X196008803Y-134649750D01*
X196079798Y-134649332D01*
X196139749Y-134687364D01*
X196169621Y-134751771D01*
X196171011Y-134770435D01*
X196171011Y-135550184D01*
X196151009Y-135618305D01*
X196134106Y-135639279D01*
X192793790Y-138979595D01*
X192731478Y-139013621D01*
X192704695Y-139016500D01*
X187250488Y-139016500D01*
X187241918Y-139016208D01*
X187240875Y-139016137D01*
X187186398Y-139012423D01*
X187178921Y-139013728D01*
X187178918Y-139013728D01*
X187125774Y-139023003D01*
X187119251Y-139023966D01*
X187065740Y-139030442D01*
X187065739Y-139030442D01*
X187058197Y-139031355D01*
X187051087Y-139034041D01*
X187046184Y-139035246D01*
X187035698Y-139038114D01*
X187030906Y-139039561D01*
X187023428Y-139040866D01*
X187016476Y-139043918D01*
X187016475Y-139043918D01*
X186967091Y-139065595D01*
X186960986Y-139068086D01*
X186910550Y-139087145D01*
X186910547Y-139087147D01*
X186903443Y-139089831D01*
X186897186Y-139094131D01*
X186892718Y-139096467D01*
X186883272Y-139101725D01*
X186878905Y-139104308D01*
X186871947Y-139107362D01*
X186828788Y-139140479D01*
X186762571Y-139166079D01*
X186693022Y-139151815D01*
X186642225Y-139102214D01*
X186636544Y-139090774D01*
X186621354Y-139055840D01*
X186500014Y-138868277D01*
X186349670Y-138703051D01*
X186345619Y-138699852D01*
X186345615Y-138699848D01*
X186178414Y-138567800D01*
X186178410Y-138567798D01*
X186174359Y-138564598D01*
X186169831Y-138562098D01*
X186053988Y-138498150D01*
X185978789Y-138456638D01*
X185973920Y-138454914D01*
X185973916Y-138454912D01*
X185773087Y-138383795D01*
X185773083Y-138383794D01*
X185768212Y-138382069D01*
X185763119Y-138381162D01*
X185763116Y-138381161D01*
X185553373Y-138343800D01*
X185553367Y-138343799D01*
X185548284Y-138342894D01*
X185474452Y-138341992D01*
X185330081Y-138340228D01*
X185330079Y-138340228D01*
X185324911Y-138340165D01*
X185104091Y-138373955D01*
X185091532Y-138378060D01*
X185020568Y-138380210D01*
X184963294Y-138347389D01*
X182934132Y-136318227D01*
X182926592Y-136309941D01*
X182922480Y-136303462D01*
X182872828Y-136256836D01*
X182869987Y-136254082D01*
X182850250Y-136234345D01*
X182847053Y-136231865D01*
X182838031Y-136224160D01*
X182805801Y-136193894D01*
X182798855Y-136190075D01*
X182798852Y-136190073D01*
X182788046Y-136184132D01*
X182771527Y-136173281D01*
X182771063Y-136172921D01*
X182755521Y-136160866D01*
X182748252Y-136157721D01*
X182748248Y-136157718D01*
X182714943Y-136143306D01*
X182704293Y-136138089D01*
X182665540Y-136116785D01*
X182645917Y-136111747D01*
X182627214Y-136105343D01*
X182615900Y-136100447D01*
X182615899Y-136100447D01*
X182608625Y-136097299D01*
X182600802Y-136096060D01*
X182600792Y-136096057D01*
X182564956Y-136090381D01*
X182553336Y-136087975D01*
X182518191Y-136078952D01*
X182518190Y-136078952D01*
X182510510Y-136076980D01*
X182490256Y-136076980D01*
X182470545Y-136075429D01*
X182458366Y-136073500D01*
X182450537Y-136072260D01*
X182442645Y-136073006D01*
X182406519Y-136076421D01*
X182394661Y-136076980D01*
X178114594Y-136076980D01*
X178046473Y-136056978D01*
X178025499Y-136040075D01*
X173839925Y-131854500D01*
X173805899Y-131792188D01*
X173803020Y-131765405D01*
X173803020Y-127759500D01*
X173823022Y-127691379D01*
X173876678Y-127644886D01*
X173929020Y-127633500D01*
X184616733Y-127633500D01*
X184627916Y-127634027D01*
X184635409Y-127635702D01*
X184643335Y-127635453D01*
X184643336Y-127635453D01*
X184703486Y-127633562D01*
X184707445Y-127633500D01*
X184735356Y-127633500D01*
X184739291Y-127633003D01*
X184739356Y-127632995D01*
X184751193Y-127632062D01*
X184783451Y-127631048D01*
X184787470Y-127630922D01*
X184795389Y-127630673D01*
X184814843Y-127625021D01*
X184834200Y-127621013D01*
X184846430Y-127619468D01*
X184846431Y-127619468D01*
X184854297Y-127618474D01*
X184861668Y-127615555D01*
X184861670Y-127615555D01*
X184895412Y-127602196D01*
X184906642Y-127598351D01*
X184941483Y-127588229D01*
X184941484Y-127588229D01*
X184949093Y-127586018D01*
X184955912Y-127581985D01*
X184955917Y-127581983D01*
X184966528Y-127575707D01*
X184984276Y-127567012D01*
X185003117Y-127559552D01*
X185038887Y-127533564D01*
X185048807Y-127527048D01*
X185080035Y-127508580D01*
X185080038Y-127508578D01*
X185086862Y-127504542D01*
X185101183Y-127490221D01*
X185116217Y-127477380D01*
X185126193Y-127470132D01*
X185132607Y-127465472D01*
X185160793Y-127431401D01*
X185168782Y-127422622D01*
X185370499Y-127220905D01*
X185432811Y-127186879D01*
X185459594Y-127184000D01*
X185515487Y-127184000D01*
X185521939Y-127182628D01*
X185521944Y-127182628D01*
X185608887Y-127164147D01*
X185702288Y-127144294D01*
X185708319Y-127141609D01*
X185870722Y-127069303D01*
X185870724Y-127069302D01*
X185876752Y-127066618D01*
X186031253Y-126954366D01*
X186039034Y-126945724D01*
X186154621Y-126817352D01*
X186154622Y-126817351D01*
X186159040Y-126812444D01*
X186254527Y-126647056D01*
X186313542Y-126465428D01*
X186316168Y-126440448D01*
X186332814Y-126282065D01*
X186333504Y-126275500D01*
X186318892Y-126136472D01*
X186314232Y-126092135D01*
X186314232Y-126092133D01*
X186313542Y-126085572D01*
X186254527Y-125903944D01*
X186159040Y-125738556D01*
X186150557Y-125729134D01*
X186035675Y-125601545D01*
X186035674Y-125601544D01*
X186031253Y-125596634D01*
X185876752Y-125484382D01*
X185870724Y-125481698D01*
X185870722Y-125481697D01*
X185708319Y-125409391D01*
X185708318Y-125409391D01*
X185702288Y-125406706D01*
X185608887Y-125386853D01*
X185521944Y-125368372D01*
X185521939Y-125368372D01*
X185515487Y-125367000D01*
X185324513Y-125367000D01*
X185318061Y-125368372D01*
X185318056Y-125368372D01*
X185231113Y-125386853D01*
X185137712Y-125406706D01*
X185131682Y-125409391D01*
X185131681Y-125409391D01*
X184969278Y-125481697D01*
X184969276Y-125481698D01*
X184963248Y-125484382D01*
X184808747Y-125596634D01*
X184804326Y-125601544D01*
X184804325Y-125601545D01*
X184689444Y-125729134D01*
X184680960Y-125738556D01*
X184585473Y-125903944D01*
X184526458Y-126085572D01*
X184525768Y-126092133D01*
X184525768Y-126092135D01*
X184509093Y-126250792D01*
X184482080Y-126316449D01*
X184472863Y-126326733D01*
X184469984Y-126329611D01*
X184407666Y-126363625D01*
X184380904Y-126366500D01*
X183989094Y-126366500D01*
X183920973Y-126346498D01*
X183874480Y-126292842D01*
X183864376Y-126222568D01*
X183893870Y-126157988D01*
X183899999Y-126151405D01*
X183996758Y-126054646D01*
X184005048Y-126047102D01*
X184011529Y-126042989D01*
X184058170Y-125993321D01*
X184060924Y-125990480D01*
X184080645Y-125970759D01*
X184083123Y-125967564D01*
X184090829Y-125958542D01*
X184103491Y-125945058D01*
X184121097Y-125926310D01*
X184130857Y-125908557D01*
X184141710Y-125892034D01*
X184149264Y-125882295D01*
X184154124Y-125876030D01*
X184171687Y-125835446D01*
X184176894Y-125824816D01*
X184198206Y-125786049D01*
X184200177Y-125778372D01*
X184200179Y-125778367D01*
X184203243Y-125766431D01*
X184209649Y-125747719D01*
X184213615Y-125738556D01*
X184217692Y-125729134D01*
X184218932Y-125721306D01*
X184218934Y-125721299D01*
X184224610Y-125685465D01*
X184227016Y-125673845D01*
X184236039Y-125638700D01*
X184236039Y-125638699D01*
X184238011Y-125631019D01*
X184238011Y-125610765D01*
X184239562Y-125591054D01*
X184241491Y-125578875D01*
X184242731Y-125571046D01*
X184238570Y-125527027D01*
X184238011Y-125515170D01*
X184238011Y-121698664D01*
X184238538Y-121687481D01*
X184240213Y-121679988D01*
X184239649Y-121662027D01*
X184238073Y-121611911D01*
X184238011Y-121607952D01*
X184238011Y-121580041D01*
X184237506Y-121576041D01*
X184236573Y-121564198D01*
X184236363Y-121557499D01*
X184235184Y-121520007D01*
X184229533Y-121500555D01*
X184225525Y-121481203D01*
X184223978Y-121468960D01*
X184222985Y-121461100D01*
X184215868Y-121443123D01*
X184206711Y-121419994D01*
X184202866Y-121408767D01*
X184202176Y-121406391D01*
X184190529Y-121366304D01*
X184186495Y-121359482D01*
X184186492Y-121359476D01*
X184180217Y-121348865D01*
X184171521Y-121331115D01*
X184166983Y-121319653D01*
X184166980Y-121319648D01*
X184164063Y-121312280D01*
X184138084Y-121276522D01*
X184131568Y-121266604D01*
X184119409Y-121246045D01*
X184109053Y-121228534D01*
X184094729Y-121214210D01*
X184081887Y-121199175D01*
X184075982Y-121191047D01*
X184069983Y-121182790D01*
X184035917Y-121154608D01*
X184027138Y-121146619D01*
X183550405Y-120669886D01*
X183516379Y-120607574D01*
X183513500Y-120580791D01*
X183513500Y-119961073D01*
X183533502Y-119892952D01*
X183550405Y-119871977D01*
X184096490Y-119325893D01*
X184158802Y-119291868D01*
X184185585Y-119288989D01*
X184353399Y-119288989D01*
X184364582Y-119289516D01*
X184372075Y-119291191D01*
X184380002Y-119290942D01*
X184387894Y-119291688D01*
X184387766Y-119293040D01*
X184448440Y-119308806D01*
X184496594Y-119360976D01*
X184508989Y-119403719D01*
X184524846Y-119554586D01*
X184526458Y-119569928D01*
X184585473Y-119751556D01*
X184588776Y-119757278D01*
X184588777Y-119757279D01*
X184609069Y-119792425D01*
X184680960Y-119916944D01*
X184685378Y-119921851D01*
X184685379Y-119921852D01*
X184799134Y-120048190D01*
X184808747Y-120058866D01*
X184963248Y-120171118D01*
X184969276Y-120173802D01*
X184969278Y-120173803D01*
X185129224Y-120245015D01*
X185137712Y-120248794D01*
X185222480Y-120266812D01*
X185318056Y-120287128D01*
X185318061Y-120287128D01*
X185324513Y-120288500D01*
X185515487Y-120288500D01*
X185521939Y-120287128D01*
X185521944Y-120287128D01*
X185617520Y-120266812D01*
X185702288Y-120248794D01*
X185710776Y-120245015D01*
X185870722Y-120173803D01*
X185870724Y-120173802D01*
X185876752Y-120171118D01*
X186031253Y-120058866D01*
X186040866Y-120048190D01*
X186154621Y-119921852D01*
X186154622Y-119921851D01*
X186159040Y-119916944D01*
X186230931Y-119792425D01*
X186251223Y-119757279D01*
X186251224Y-119757278D01*
X186254527Y-119751556D01*
X186313542Y-119569928D01*
X186315155Y-119554586D01*
X186332814Y-119386565D01*
X186333504Y-119380000D01*
X186323997Y-119289548D01*
X186314232Y-119196635D01*
X186314232Y-119196633D01*
X186313542Y-119190072D01*
X186254527Y-119008444D01*
X186247283Y-118995896D01*
X186199937Y-118913891D01*
X186159040Y-118843056D01*
X186050780Y-118722821D01*
X186044267Y-118709249D01*
X186044157Y-118709225D01*
X186030481Y-118700573D01*
X186008638Y-118684703D01*
X185925342Y-118624185D01*
X185881989Y-118567964D01*
X185875914Y-118497228D01*
X185909045Y-118434436D01*
X185925341Y-118420316D01*
X185941993Y-118408217D01*
X186008860Y-118384357D01*
X186078012Y-118400435D01*
G37*
%TD.AperFunction*%
%TA.AperFunction,Conductor*%
G36*
X152442713Y-117797357D02*
G01*
X152487776Y-117826318D01*
X152668216Y-118006758D01*
X152675760Y-118015048D01*
X152679873Y-118021529D01*
X152685650Y-118026954D01*
X152729540Y-118068169D01*
X152732382Y-118070924D01*
X152752104Y-118090646D01*
X152755228Y-118093069D01*
X152755232Y-118093073D01*
X152755297Y-118093123D01*
X152764318Y-118100828D01*
X152796552Y-118131097D01*
X152803500Y-118134916D01*
X152803502Y-118134918D01*
X152814305Y-118140857D01*
X152830832Y-118151713D01*
X152840571Y-118159268D01*
X152840573Y-118159269D01*
X152846833Y-118164125D01*
X152887413Y-118181685D01*
X152898061Y-118186902D01*
X152922778Y-118200490D01*
X152936813Y-118208206D01*
X152944489Y-118210177D01*
X152944492Y-118210178D01*
X152956435Y-118213244D01*
X152975139Y-118219648D01*
X152985386Y-118224082D01*
X152993728Y-118227692D01*
X153001551Y-118228931D01*
X153001561Y-118228934D01*
X153037397Y-118234610D01*
X153049017Y-118237016D01*
X153084162Y-118246039D01*
X153091843Y-118248011D01*
X153112097Y-118248011D01*
X153131807Y-118249562D01*
X153151816Y-118252731D01*
X153159708Y-118251985D01*
X153195834Y-118248570D01*
X153207692Y-118248011D01*
X154955011Y-118248011D01*
X155023132Y-118268013D01*
X155069625Y-118321669D01*
X155081011Y-118374011D01*
X155081011Y-119120000D01*
X155061009Y-119188121D01*
X155007353Y-119234614D01*
X154955011Y-119246000D01*
X154844513Y-119246000D01*
X154838061Y-119247372D01*
X154838056Y-119247372D01*
X154753347Y-119265378D01*
X154657712Y-119285706D01*
X154651682Y-119288391D01*
X154651681Y-119288391D01*
X154489278Y-119360697D01*
X154489276Y-119360698D01*
X154483248Y-119363382D01*
X154477907Y-119367262D01*
X154477906Y-119367263D01*
X154368246Y-119446936D01*
X154301378Y-119470795D01*
X154294185Y-119471000D01*
X153421053Y-119471000D01*
X153412483Y-119470708D01*
X153411440Y-119470637D01*
X153356963Y-119466923D01*
X153349486Y-119468228D01*
X153349483Y-119468228D01*
X153296339Y-119477503D01*
X153289816Y-119478466D01*
X153236305Y-119484942D01*
X153236304Y-119484942D01*
X153228762Y-119485855D01*
X153221652Y-119488541D01*
X153216749Y-119489746D01*
X153206263Y-119492614D01*
X153201471Y-119494061D01*
X153193993Y-119495366D01*
X153187041Y-119498418D01*
X153187040Y-119498418D01*
X153137656Y-119520095D01*
X153131551Y-119522586D01*
X153081115Y-119541645D01*
X153081112Y-119541647D01*
X153074008Y-119544331D01*
X153067751Y-119548631D01*
X153063283Y-119550967D01*
X153053837Y-119556225D01*
X153049471Y-119558807D01*
X153042512Y-119561862D01*
X152993693Y-119599323D01*
X152988374Y-119603186D01*
X152978226Y-119610161D01*
X152937671Y-119638034D01*
X152932620Y-119643703D01*
X152897765Y-119682823D01*
X152892784Y-119688098D01*
X151936541Y-120644341D01*
X151930276Y-120650195D01*
X151888330Y-120686787D01*
X151852934Y-120737152D01*
X151849022Y-120742417D01*
X151811065Y-120790825D01*
X151807939Y-120797749D01*
X151805329Y-120802058D01*
X151799958Y-120811473D01*
X151797573Y-120815921D01*
X151793205Y-120822136D01*
X151771469Y-120877886D01*
X151770858Y-120879454D01*
X151768306Y-120885526D01*
X151742986Y-120941602D01*
X151741600Y-120949079D01*
X151740090Y-120953899D01*
X151737118Y-120964332D01*
X151735870Y-120969193D01*
X151733111Y-120976269D01*
X151727813Y-121016517D01*
X151725082Y-121037259D01*
X151724050Y-121043775D01*
X151712839Y-121104264D01*
X151713276Y-121111844D01*
X151713276Y-121111845D01*
X151716291Y-121164139D01*
X151716500Y-121171391D01*
X151716500Y-121462506D01*
X151696498Y-121530627D01*
X151684135Y-121546817D01*
X151665383Y-121567643D01*
X151665380Y-121567647D01*
X151660960Y-121572556D01*
X151657657Y-121578277D01*
X151573643Y-121723794D01*
X151565473Y-121737944D01*
X151506458Y-121919572D01*
X151505768Y-121926133D01*
X151505768Y-121926135D01*
X151494723Y-122031223D01*
X151486496Y-122109500D01*
X151487186Y-122116065D01*
X151505631Y-122291556D01*
X151506458Y-122299428D01*
X151565473Y-122481056D01*
X151568776Y-122486778D01*
X151568777Y-122486779D01*
X151578726Y-122504011D01*
X151660960Y-122646444D01*
X151665378Y-122651351D01*
X151665379Y-122651352D01*
X151736080Y-122729873D01*
X151788747Y-122788366D01*
X151868006Y-122845951D01*
X151932624Y-122892899D01*
X151943248Y-122900618D01*
X151949276Y-122903302D01*
X151949278Y-122903303D01*
X152111681Y-122975609D01*
X152117712Y-122978294D01*
X152211112Y-122998147D01*
X152298056Y-123016628D01*
X152298061Y-123016628D01*
X152304513Y-123018000D01*
X152495487Y-123018000D01*
X152501939Y-123016628D01*
X152501944Y-123016628D01*
X152588888Y-122998147D01*
X152682288Y-122978294D01*
X152688319Y-122975609D01*
X152850722Y-122903303D01*
X152850724Y-122903302D01*
X152856752Y-122900618D01*
X152867377Y-122892899D01*
X152931994Y-122845951D01*
X153011253Y-122788366D01*
X153063920Y-122729873D01*
X153134621Y-122651352D01*
X153134622Y-122651351D01*
X153139040Y-122646444D01*
X153221274Y-122504011D01*
X153231223Y-122486779D01*
X153231224Y-122486778D01*
X153234527Y-122481056D01*
X153293542Y-122299428D01*
X153294370Y-122291556D01*
X153312814Y-122116065D01*
X153313504Y-122109500D01*
X153305277Y-122031223D01*
X153294232Y-121926135D01*
X153294232Y-121926133D01*
X153293542Y-121919572D01*
X153234527Y-121737944D01*
X153226358Y-121723794D01*
X153142343Y-121578277D01*
X153139040Y-121572556D01*
X153125481Y-121557498D01*
X153094763Y-121493493D01*
X153103525Y-121423039D01*
X153130021Y-121384091D01*
X153639207Y-120874905D01*
X153701519Y-120840879D01*
X153728302Y-120838000D01*
X154190500Y-120838000D01*
X154258621Y-120858002D01*
X154305114Y-120911658D01*
X154316500Y-120964000D01*
X154316500Y-138421692D01*
X154296498Y-138489813D01*
X154248683Y-138533453D01*
X154223607Y-138546507D01*
X154219474Y-138549610D01*
X154219471Y-138549612D01*
X154049100Y-138677530D01*
X154044965Y-138680635D01*
X153988537Y-138739684D01*
X153964283Y-138765064D01*
X153902759Y-138800494D01*
X153831846Y-138797037D01*
X153774060Y-138755791D01*
X153755207Y-138722243D01*
X153713767Y-138611703D01*
X153710615Y-138603295D01*
X153623261Y-138486739D01*
X153506705Y-138399385D01*
X153370316Y-138348255D01*
X153308134Y-138341500D01*
X151999595Y-138341500D01*
X151931474Y-138321498D01*
X151910500Y-138304595D01*
X148744916Y-135139011D01*
X151486496Y-135139011D01*
X151487186Y-135145576D01*
X151497522Y-135243913D01*
X151506458Y-135328939D01*
X151565473Y-135510567D01*
X151568776Y-135516289D01*
X151568777Y-135516290D01*
X151587229Y-135548249D01*
X151660960Y-135675955D01*
X151788747Y-135817877D01*
X151943248Y-135930129D01*
X151949276Y-135932813D01*
X151949278Y-135932814D01*
X152084322Y-135992939D01*
X152117712Y-136007805D01*
X152211113Y-136027658D01*
X152298056Y-136046139D01*
X152298061Y-136046139D01*
X152304513Y-136047511D01*
X152495487Y-136047511D01*
X152501939Y-136046139D01*
X152501944Y-136046139D01*
X152588887Y-136027658D01*
X152682288Y-136007805D01*
X152715678Y-135992939D01*
X152850722Y-135932814D01*
X152850724Y-135932813D01*
X152856752Y-135930129D01*
X153011253Y-135817877D01*
X153139040Y-135675955D01*
X153212771Y-135548249D01*
X153231223Y-135516290D01*
X153231224Y-135516289D01*
X153234527Y-135510567D01*
X153293542Y-135328939D01*
X153302479Y-135243913D01*
X153312814Y-135145576D01*
X153313504Y-135139011D01*
X153301593Y-135025683D01*
X153294232Y-134955646D01*
X153294232Y-134955644D01*
X153293542Y-134949083D01*
X153234527Y-134767455D01*
X153139040Y-134602067D01*
X153065863Y-134520796D01*
X153035147Y-134456790D01*
X153033500Y-134436487D01*
X153033500Y-132782524D01*
X153053502Y-132714403D01*
X153065858Y-132698221D01*
X153139040Y-132616944D01*
X153234527Y-132451556D01*
X153293542Y-132269928D01*
X153299882Y-132209612D01*
X153312814Y-132086565D01*
X153313504Y-132080000D01*
X153307221Y-132020224D01*
X153294232Y-131896635D01*
X153294232Y-131896633D01*
X153293542Y-131890072D01*
X153234527Y-131708444D01*
X153139040Y-131543056D01*
X153011253Y-131401134D01*
X152856752Y-131288882D01*
X152850724Y-131286198D01*
X152850722Y-131286197D01*
X152688319Y-131213891D01*
X152688318Y-131213891D01*
X152682288Y-131211206D01*
X152588887Y-131191353D01*
X152501944Y-131172872D01*
X152501939Y-131172872D01*
X152495487Y-131171500D01*
X152304513Y-131171500D01*
X152298061Y-131172872D01*
X152298056Y-131172872D01*
X152211113Y-131191353D01*
X152117712Y-131211206D01*
X152111682Y-131213891D01*
X152111681Y-131213891D01*
X151949278Y-131286197D01*
X151949276Y-131286198D01*
X151943248Y-131288882D01*
X151788747Y-131401134D01*
X151660960Y-131543056D01*
X151565473Y-131708444D01*
X151506458Y-131890072D01*
X151505768Y-131896633D01*
X151505768Y-131896635D01*
X151492779Y-132020224D01*
X151486496Y-132080000D01*
X151487186Y-132086565D01*
X151500119Y-132209612D01*
X151506458Y-132269928D01*
X151565473Y-132451556D01*
X151660960Y-132616944D01*
X151734137Y-132698215D01*
X151764853Y-132762221D01*
X151766500Y-132782524D01*
X151766500Y-134436487D01*
X151746498Y-134504608D01*
X151734142Y-134520790D01*
X151660960Y-134602067D01*
X151565473Y-134767455D01*
X151506458Y-134949083D01*
X151505768Y-134955644D01*
X151505768Y-134955646D01*
X151498407Y-135025683D01*
X151486496Y-135139011D01*
X148744916Y-135139011D01*
X148580462Y-134974557D01*
X148546436Y-134912245D01*
X148543557Y-134885462D01*
X148543557Y-122812370D01*
X148563559Y-122744249D01*
X148617215Y-122697756D01*
X148687489Y-122687652D01*
X148752069Y-122717146D01*
X148764794Y-122729873D01*
X148903213Y-122889667D01*
X148910580Y-122896883D01*
X149074434Y-123032916D01*
X149082881Y-123038831D01*
X149266756Y-123146279D01*
X149276042Y-123150729D01*
X149475001Y-123226703D01*
X149484899Y-123229579D01*
X149588250Y-123250606D01*
X149602299Y-123249410D01*
X149606000Y-123239065D01*
X149606000Y-123238517D01*
X150114000Y-123238517D01*
X150118064Y-123252359D01*
X150131478Y-123254393D01*
X150138184Y-123253534D01*
X150148262Y-123251392D01*
X150352255Y-123190191D01*
X150361842Y-123186433D01*
X150553095Y-123092739D01*
X150561945Y-123087464D01*
X150735328Y-122963792D01*
X150743200Y-122957139D01*
X150894052Y-122806812D01*
X150900730Y-122798965D01*
X151025003Y-122626020D01*
X151030313Y-122617183D01*
X151124670Y-122426267D01*
X151128469Y-122416672D01*
X151190377Y-122212910D01*
X151192555Y-122202837D01*
X151193986Y-122191962D01*
X151191775Y-122177778D01*
X151178617Y-122174000D01*
X150132115Y-122174000D01*
X150116876Y-122178475D01*
X150115671Y-122179865D01*
X150114000Y-122187548D01*
X150114000Y-123238517D01*
X149606000Y-123238517D01*
X149606000Y-121792000D01*
X149626002Y-121723879D01*
X149679658Y-121677386D01*
X149732000Y-121666000D01*
X151178344Y-121666000D01*
X151191875Y-121662027D01*
X151193180Y-121652947D01*
X151151214Y-121485875D01*
X151147894Y-121476124D01*
X151062972Y-121280814D01*
X151058105Y-121271739D01*
X150942426Y-121092926D01*
X150936136Y-121084757D01*
X150792293Y-120926677D01*
X150761241Y-120862831D01*
X150769635Y-120792333D01*
X150814812Y-120737564D01*
X150841256Y-120723895D01*
X150948297Y-120683767D01*
X150956705Y-120680615D01*
X151073261Y-120593261D01*
X151160615Y-120476705D01*
X151211745Y-120340316D01*
X151218500Y-120278134D01*
X151218500Y-118969594D01*
X151238502Y-118901473D01*
X151255405Y-118880499D01*
X152309586Y-117826318D01*
X152371898Y-117792292D01*
X152442713Y-117797357D01*
G37*
%TD.AperFunction*%
%TA.AperFunction,Conductor*%
G36*
X191599532Y-114262227D02*
G01*
X191656368Y-114304774D01*
X191681179Y-114371294D01*
X191681500Y-114380283D01*
X191681500Y-115198134D01*
X191688255Y-115260316D01*
X191739385Y-115396705D01*
X191826739Y-115513261D01*
X191943295Y-115600615D01*
X191951704Y-115603767D01*
X191951705Y-115603768D01*
X192060451Y-115644535D01*
X192117216Y-115687176D01*
X192141916Y-115753738D01*
X192126709Y-115823087D01*
X192107316Y-115849568D01*
X192014276Y-115946929D01*
X191980629Y-115982138D01*
X191977715Y-115986410D01*
X191977714Y-115986411D01*
X191917617Y-116074510D01*
X191854743Y-116166680D01*
X191820826Y-116239749D01*
X191772278Y-116344337D01*
X191760688Y-116369305D01*
X191700989Y-116584570D01*
X191677251Y-116806695D01*
X191677548Y-116811848D01*
X191677548Y-116811851D01*
X191686884Y-116973766D01*
X191690110Y-117029715D01*
X191691247Y-117034761D01*
X191691248Y-117034767D01*
X191707899Y-117108650D01*
X191739222Y-117247639D01*
X191779346Y-117346453D01*
X191821109Y-117449303D01*
X191823266Y-117454616D01*
X191853296Y-117503621D01*
X191935773Y-117638211D01*
X191939987Y-117645088D01*
X192086250Y-117813938D01*
X192258126Y-117956632D01*
X192290838Y-117975747D01*
X192331445Y-117999476D01*
X192380169Y-118051114D01*
X192393240Y-118120897D01*
X192366509Y-118186669D01*
X192326055Y-118220027D01*
X192313607Y-118226507D01*
X192309474Y-118229610D01*
X192309471Y-118229612D01*
X192154141Y-118346237D01*
X192134965Y-118360635D01*
X192131393Y-118364373D01*
X192004434Y-118497228D01*
X191980629Y-118522138D01*
X191977715Y-118526410D01*
X191977714Y-118526411D01*
X191935771Y-118587897D01*
X191854743Y-118706680D01*
X191832381Y-118754856D01*
X191772823Y-118883163D01*
X191760688Y-118909305D01*
X191700989Y-119124570D01*
X191677251Y-119346695D01*
X191677548Y-119351848D01*
X191677548Y-119351851D01*
X191688646Y-119544331D01*
X191690110Y-119569715D01*
X191691247Y-119574761D01*
X191691248Y-119574767D01*
X191706784Y-119643703D01*
X191739222Y-119787639D01*
X191783612Y-119896960D01*
X191815791Y-119976206D01*
X191823266Y-119994616D01*
X191845322Y-120030608D01*
X191933072Y-120173803D01*
X191939987Y-120185088D01*
X192086250Y-120353938D01*
X192258126Y-120496632D01*
X192451000Y-120609338D01*
X192455825Y-120611180D01*
X192455826Y-120611181D01*
X192491800Y-120624918D01*
X192659692Y-120689030D01*
X192664760Y-120690061D01*
X192664763Y-120690062D01*
X192741676Y-120705710D01*
X192878597Y-120733567D01*
X192883772Y-120733757D01*
X192883774Y-120733757D01*
X193096673Y-120741564D01*
X193096677Y-120741564D01*
X193101837Y-120741753D01*
X193106957Y-120741097D01*
X193106959Y-120741097D01*
X193318288Y-120714025D01*
X193318289Y-120714025D01*
X193323416Y-120713368D01*
X193328366Y-120711883D01*
X193532429Y-120650661D01*
X193532434Y-120650659D01*
X193537384Y-120649174D01*
X193737994Y-120550896D01*
X193919860Y-120421173D01*
X193931709Y-120409366D01*
X194049706Y-120291780D01*
X194078096Y-120263489D01*
X194087157Y-120250880D01*
X194208453Y-120082077D01*
X194209640Y-120082930D01*
X194256960Y-120039362D01*
X194326897Y-120027145D01*
X194392338Y-120054678D01*
X194420166Y-120086511D01*
X194477694Y-120180388D01*
X194483777Y-120188699D01*
X194623213Y-120349667D01*
X194630580Y-120356883D01*
X194794434Y-120492916D01*
X194802881Y-120498831D01*
X194986756Y-120606279D01*
X194996042Y-120610729D01*
X195195001Y-120686703D01*
X195204899Y-120689579D01*
X195308250Y-120710606D01*
X195322299Y-120709410D01*
X195326000Y-120699065D01*
X195326000Y-119252000D01*
X195346002Y-119183879D01*
X195399658Y-119137386D01*
X195452000Y-119126000D01*
X195708000Y-119126000D01*
X195776121Y-119146002D01*
X195822614Y-119199658D01*
X195834000Y-119252000D01*
X195834000Y-120698517D01*
X195838064Y-120712359D01*
X195851478Y-120714393D01*
X195858184Y-120713534D01*
X195868262Y-120711392D01*
X196072255Y-120650191D01*
X196081842Y-120646433D01*
X196273095Y-120552739D01*
X196281945Y-120547464D01*
X196455328Y-120423792D01*
X196463200Y-120417139D01*
X196614052Y-120266812D01*
X196620730Y-120258965D01*
X196745003Y-120086020D01*
X196750313Y-120077183D01*
X196792441Y-119991944D01*
X196840555Y-119939737D01*
X196909256Y-119921830D01*
X196976732Y-119943908D01*
X196994493Y-119958676D01*
X197324575Y-120288758D01*
X197358601Y-120351070D01*
X197361480Y-120377853D01*
X197361480Y-129528243D01*
X197341478Y-129596364D01*
X197287822Y-129642857D01*
X197217548Y-129652961D01*
X197152968Y-129623467D01*
X197146385Y-129617338D01*
X196724913Y-129195866D01*
X196690887Y-129133554D01*
X196695952Y-129062739D01*
X196711686Y-129033245D01*
X196745430Y-128986285D01*
X196745434Y-128986279D01*
X196748453Y-128982077D01*
X196757635Y-128963500D01*
X196845136Y-128786453D01*
X196845137Y-128786451D01*
X196847430Y-128781811D01*
X196912370Y-128568069D01*
X196941529Y-128346590D01*
X196941617Y-128342985D01*
X196943074Y-128283365D01*
X196943074Y-128283361D01*
X196943156Y-128280000D01*
X196924852Y-128057361D01*
X196870431Y-127840702D01*
X196781354Y-127635840D01*
X196699026Y-127508580D01*
X196662822Y-127452617D01*
X196662820Y-127452614D01*
X196660014Y-127448277D01*
X196656540Y-127444459D01*
X196656533Y-127444450D01*
X196512435Y-127286088D01*
X196481383Y-127222242D01*
X196489779Y-127151744D01*
X196534956Y-127096976D01*
X196561400Y-127083307D01*
X196668052Y-127043325D01*
X196683649Y-127034786D01*
X196785724Y-126958285D01*
X196798285Y-126945724D01*
X196874786Y-126843649D01*
X196883324Y-126828054D01*
X196928478Y-126707606D01*
X196932105Y-126692351D01*
X196937631Y-126641486D01*
X196938000Y-126634672D01*
X196938000Y-126012115D01*
X196933525Y-125996876D01*
X196932135Y-125995671D01*
X196924452Y-125994000D01*
X194240116Y-125994000D01*
X194224877Y-125998475D01*
X194223672Y-125999865D01*
X194222001Y-126007548D01*
X194222001Y-126634669D01*
X194222371Y-126641490D01*
X194227895Y-126692352D01*
X194231521Y-126707604D01*
X194276676Y-126828054D01*
X194285214Y-126843649D01*
X194361715Y-126945724D01*
X194374276Y-126958285D01*
X194476351Y-127034786D01*
X194491946Y-127043324D01*
X194600827Y-127084142D01*
X194657591Y-127126784D01*
X194682291Y-127193345D01*
X194667083Y-127262694D01*
X194647691Y-127289175D01*
X194564782Y-127375934D01*
X194503257Y-127411364D01*
X194432345Y-127407907D01*
X194384593Y-127377978D01*
X192474500Y-125467885D01*
X194222000Y-125467885D01*
X194226475Y-125483124D01*
X194227865Y-125484329D01*
X194235548Y-125486000D01*
X195307885Y-125486000D01*
X195323124Y-125481525D01*
X195324329Y-125480135D01*
X195326000Y-125472452D01*
X195326000Y-125467885D01*
X195834000Y-125467885D01*
X195838475Y-125483124D01*
X195839865Y-125484329D01*
X195847548Y-125486000D01*
X196919884Y-125486000D01*
X196935123Y-125481525D01*
X196936328Y-125480135D01*
X196937999Y-125472452D01*
X196937999Y-124845331D01*
X196937629Y-124838510D01*
X196932105Y-124787648D01*
X196928479Y-124772396D01*
X196883324Y-124651946D01*
X196874786Y-124636351D01*
X196798285Y-124534276D01*
X196785724Y-124521715D01*
X196683649Y-124445214D01*
X196668054Y-124436676D01*
X196547606Y-124391522D01*
X196532351Y-124387895D01*
X196481486Y-124382369D01*
X196474672Y-124382000D01*
X195852115Y-124382000D01*
X195836876Y-124386475D01*
X195835671Y-124387865D01*
X195834000Y-124395548D01*
X195834000Y-125467885D01*
X195326000Y-125467885D01*
X195326000Y-124400116D01*
X195321525Y-124384877D01*
X195320135Y-124383672D01*
X195312452Y-124382001D01*
X194685331Y-124382001D01*
X194678510Y-124382371D01*
X194627648Y-124387895D01*
X194612396Y-124391521D01*
X194491946Y-124436676D01*
X194476351Y-124445214D01*
X194374276Y-124521715D01*
X194361715Y-124534276D01*
X194285214Y-124636351D01*
X194276676Y-124651946D01*
X194231522Y-124772394D01*
X194227895Y-124787649D01*
X194222369Y-124838514D01*
X194222000Y-124845328D01*
X194222000Y-125467885D01*
X192474500Y-125467885D01*
X188898817Y-121892202D01*
X188864791Y-121829890D01*
X188862602Y-121816277D01*
X188854232Y-121736635D01*
X188854232Y-121736633D01*
X188853542Y-121730072D01*
X188794527Y-121548444D01*
X188699040Y-121383056D01*
X188694620Y-121378147D01*
X188694617Y-121378143D01*
X188675865Y-121357317D01*
X188645147Y-121293310D01*
X188643500Y-121273006D01*
X188643500Y-117166283D01*
X188663502Y-117098162D01*
X188680405Y-117077188D01*
X191466405Y-114291188D01*
X191528717Y-114257162D01*
X191599532Y-114262227D01*
G37*
%TD.AperFunction*%
%TA.AperFunction,Conductor*%
G36*
X180934449Y-111362174D02*
G01*
X180979511Y-111391135D01*
X181484698Y-111896322D01*
X181518724Y-111958634D01*
X181520907Y-111995000D01*
X181519787Y-112000012D01*
X181520036Y-112007936D01*
X181520036Y-112007937D01*
X181521927Y-112068089D01*
X181521989Y-112072048D01*
X181521989Y-112099959D01*
X181522486Y-112103893D01*
X181522486Y-112103894D01*
X181522494Y-112103959D01*
X181523427Y-112115796D01*
X181524816Y-112159992D01*
X181530467Y-112179442D01*
X181534476Y-112198803D01*
X181537015Y-112218900D01*
X181539934Y-112226271D01*
X181539934Y-112226273D01*
X181553293Y-112260015D01*
X181557138Y-112271245D01*
X181569471Y-112313696D01*
X181573504Y-112320515D01*
X181573506Y-112320520D01*
X181579782Y-112331131D01*
X181588477Y-112348879D01*
X181595937Y-112367720D01*
X181600599Y-112374136D01*
X181600599Y-112374137D01*
X181621925Y-112403490D01*
X181628441Y-112413410D01*
X181650947Y-112451465D01*
X181665268Y-112465786D01*
X181678108Y-112480819D01*
X181690017Y-112497210D01*
X181696123Y-112502261D01*
X181724094Y-112525401D01*
X181732873Y-112533391D01*
X182076240Y-112876758D01*
X182083784Y-112885048D01*
X182087897Y-112891529D01*
X182093674Y-112896954D01*
X182137564Y-112938169D01*
X182140406Y-112940924D01*
X182160128Y-112960646D01*
X182163252Y-112963069D01*
X182163256Y-112963073D01*
X182163321Y-112963123D01*
X182172342Y-112970828D01*
X182204576Y-113001097D01*
X182211524Y-113004916D01*
X182211526Y-113004918D01*
X182222329Y-113010857D01*
X182238856Y-113021713D01*
X182248595Y-113029268D01*
X182248597Y-113029269D01*
X182254857Y-113034125D01*
X182295437Y-113051685D01*
X182306085Y-113056902D01*
X182335191Y-113072903D01*
X182344837Y-113078206D01*
X182352513Y-113080177D01*
X182352516Y-113080178D01*
X182364459Y-113083244D01*
X182383164Y-113089648D01*
X182401752Y-113097692D01*
X182409575Y-113098931D01*
X182409585Y-113098934D01*
X182445421Y-113104610D01*
X182457041Y-113107016D01*
X182488856Y-113115184D01*
X182499867Y-113118011D01*
X182520121Y-113118011D01*
X182539831Y-113119562D01*
X182559840Y-113122731D01*
X182567732Y-113121985D01*
X182586477Y-113120213D01*
X182603859Y-113118570D01*
X182615716Y-113118011D01*
X183101336Y-113118011D01*
X183112519Y-113118538D01*
X183120012Y-113120213D01*
X183127938Y-113119964D01*
X183127939Y-113119964D01*
X183188089Y-113118073D01*
X183192048Y-113118011D01*
X183219959Y-113118011D01*
X183223894Y-113117514D01*
X183223959Y-113117506D01*
X183235796Y-113116573D01*
X183268054Y-113115559D01*
X183272073Y-113115433D01*
X183279992Y-113115184D01*
X183299446Y-113109532D01*
X183318803Y-113105524D01*
X183331033Y-113103979D01*
X183331034Y-113103979D01*
X183338900Y-113102985D01*
X183346271Y-113100066D01*
X183346273Y-113100066D01*
X183380015Y-113086707D01*
X183391245Y-113082862D01*
X183426086Y-113072740D01*
X183426087Y-113072740D01*
X183433696Y-113070529D01*
X183440515Y-113066496D01*
X183440520Y-113066494D01*
X183451131Y-113060218D01*
X183468879Y-113051523D01*
X183487720Y-113044063D01*
X183502049Y-113033653D01*
X183523490Y-113018075D01*
X183533410Y-113011559D01*
X183564638Y-112993091D01*
X183564641Y-112993089D01*
X183571465Y-112989053D01*
X183585786Y-112974732D01*
X183600820Y-112961891D01*
X183602534Y-112960646D01*
X183617210Y-112949983D01*
X183645401Y-112915906D01*
X183653391Y-112907127D01*
X183846894Y-112713624D01*
X183909206Y-112679598D01*
X183980021Y-112684663D01*
X184036857Y-112727210D01*
X184061668Y-112793730D01*
X184061989Y-112802719D01*
X184061989Y-115789235D01*
X184060438Y-115808945D01*
X184057269Y-115828954D01*
X184058015Y-115836846D01*
X184061430Y-115872972D01*
X184061989Y-115884830D01*
X184061989Y-117894687D01*
X184041987Y-117962808D01*
X183988331Y-118009301D01*
X183931054Y-118018961D01*
X183931080Y-118019787D01*
X183925029Y-118019977D01*
X183925027Y-118019977D01*
X183876587Y-118021500D01*
X183863003Y-118021927D01*
X183859044Y-118021989D01*
X183831133Y-118021989D01*
X183827199Y-118022486D01*
X183827198Y-118022486D01*
X183827133Y-118022494D01*
X183815296Y-118023427D01*
X183783038Y-118024441D01*
X183779019Y-118024567D01*
X183771100Y-118024816D01*
X183751646Y-118030468D01*
X183732289Y-118034476D01*
X183720059Y-118036021D01*
X183720058Y-118036021D01*
X183712192Y-118037015D01*
X183704821Y-118039934D01*
X183704819Y-118039934D01*
X183671077Y-118053293D01*
X183659847Y-118057138D01*
X183625006Y-118067260D01*
X183625005Y-118067260D01*
X183617396Y-118069471D01*
X183610577Y-118073504D01*
X183610572Y-118073506D01*
X183599961Y-118079782D01*
X183582213Y-118088477D01*
X183563372Y-118095937D01*
X183556956Y-118100599D01*
X183556955Y-118100599D01*
X183527602Y-118121925D01*
X183517682Y-118128441D01*
X183486454Y-118146909D01*
X183486451Y-118146911D01*
X183479627Y-118150947D01*
X183465306Y-118165268D01*
X183450273Y-118178108D01*
X183433882Y-118190017D01*
X183428832Y-118196121D01*
X183428827Y-118196126D01*
X183405696Y-118224087D01*
X183397706Y-118232868D01*
X182487742Y-119142831D01*
X182479463Y-119150365D01*
X182472982Y-119154478D01*
X182426357Y-119204129D01*
X182423602Y-119206971D01*
X182403865Y-119226708D01*
X182401385Y-119229905D01*
X182393682Y-119238925D01*
X182363414Y-119271157D01*
X182359595Y-119278103D01*
X182359593Y-119278106D01*
X182353652Y-119288912D01*
X182342801Y-119305431D01*
X182330386Y-119321437D01*
X182327241Y-119328706D01*
X182327238Y-119328710D01*
X182312826Y-119362015D01*
X182307609Y-119372665D01*
X182286305Y-119411418D01*
X182284334Y-119419093D01*
X182284334Y-119419094D01*
X182281267Y-119431040D01*
X182274863Y-119449744D01*
X182266819Y-119468333D01*
X182265580Y-119476156D01*
X182265577Y-119476166D01*
X182259901Y-119512002D01*
X182257495Y-119523622D01*
X182249125Y-119556225D01*
X182246500Y-119566448D01*
X182246500Y-119586702D01*
X182244949Y-119606412D01*
X182241780Y-119626421D01*
X182242526Y-119634313D01*
X182245941Y-119670439D01*
X182246500Y-119682297D01*
X182246500Y-120816619D01*
X182245973Y-120827802D01*
X182244298Y-120835295D01*
X182244547Y-120843221D01*
X182244547Y-120843222D01*
X182246438Y-120903372D01*
X182246500Y-120907331D01*
X182246500Y-120935242D01*
X182246997Y-120939176D01*
X182246997Y-120939177D01*
X182247005Y-120939242D01*
X182247938Y-120951079D01*
X182249327Y-120995275D01*
X182254978Y-121014725D01*
X182258987Y-121034086D01*
X182259802Y-121040533D01*
X182261526Y-121054183D01*
X182264445Y-121061554D01*
X182264445Y-121061556D01*
X182277804Y-121095298D01*
X182281648Y-121106526D01*
X182288502Y-121130116D01*
X182288301Y-121201112D01*
X182261145Y-121249577D01*
X182140960Y-121383056D01*
X182045473Y-121548444D01*
X181986458Y-121730072D01*
X181985768Y-121736633D01*
X181985768Y-121736635D01*
X181984970Y-121744229D01*
X181969903Y-121887589D01*
X181969093Y-121895292D01*
X181942080Y-121960949D01*
X181932878Y-121971217D01*
X181153511Y-122750584D01*
X181130147Y-122763342D01*
X181124322Y-122778304D01*
X181113637Y-122790458D01*
X179947747Y-123956348D01*
X179939461Y-123963888D01*
X179932982Y-123968000D01*
X179927557Y-123973777D01*
X179886357Y-124017651D01*
X179883602Y-124020493D01*
X179863865Y-124040230D01*
X179861385Y-124043427D01*
X179853682Y-124052447D01*
X179823414Y-124084679D01*
X179819595Y-124091625D01*
X179819593Y-124091628D01*
X179813652Y-124102434D01*
X179802801Y-124118953D01*
X179790386Y-124134959D01*
X179787241Y-124142228D01*
X179787238Y-124142232D01*
X179772826Y-124175537D01*
X179767609Y-124186187D01*
X179746305Y-124224940D01*
X179744334Y-124232615D01*
X179744334Y-124232616D01*
X179741267Y-124244562D01*
X179734863Y-124263266D01*
X179726819Y-124281855D01*
X179725580Y-124289678D01*
X179725577Y-124289688D01*
X179719901Y-124325524D01*
X179717495Y-124337144D01*
X179706500Y-124379970D01*
X179706500Y-124400224D01*
X179704949Y-124419934D01*
X179701780Y-124439943D01*
X179703056Y-124453435D01*
X179704757Y-124471432D01*
X179691255Y-124541133D01*
X179672956Y-124567597D01*
X179600960Y-124647556D01*
X179505473Y-124812944D01*
X179446458Y-124994572D01*
X179426496Y-125184500D01*
X179427186Y-125191065D01*
X179445375Y-125364121D01*
X179446458Y-125374428D01*
X179505473Y-125556056D01*
X179508776Y-125561778D01*
X179508777Y-125561779D01*
X179525679Y-125591054D01*
X179600960Y-125721444D01*
X179605378Y-125726351D01*
X179605379Y-125726352D01*
X179703622Y-125835462D01*
X179728747Y-125863366D01*
X179883248Y-125975618D01*
X179889276Y-125978302D01*
X179889278Y-125978303D01*
X180021591Y-126037212D01*
X180057712Y-126053294D01*
X180151112Y-126073147D01*
X180238056Y-126091628D01*
X180238061Y-126091628D01*
X180244513Y-126093000D01*
X180435487Y-126093000D01*
X180441939Y-126091628D01*
X180441944Y-126091628D01*
X180528888Y-126073147D01*
X180622288Y-126053294D01*
X180658409Y-126037212D01*
X180790722Y-125978303D01*
X180790724Y-125978302D01*
X180796752Y-125975618D01*
X180951253Y-125863366D01*
X180976378Y-125835462D01*
X181074621Y-125726352D01*
X181074622Y-125726351D01*
X181079040Y-125721444D01*
X181154321Y-125591054D01*
X181171223Y-125561779D01*
X181171224Y-125561778D01*
X181174527Y-125556056D01*
X181233542Y-125374428D01*
X181234626Y-125364121D01*
X181252814Y-125191065D01*
X181253504Y-125184500D01*
X181233542Y-124994572D01*
X181174527Y-124812944D01*
X181116146Y-124711826D01*
X181099409Y-124642833D01*
X181122629Y-124575741D01*
X181136171Y-124559733D01*
X182755916Y-122939988D01*
X182818228Y-122905962D01*
X182889043Y-122911027D01*
X182945879Y-122953574D01*
X182970690Y-123020094D01*
X182971011Y-123029083D01*
X182971011Y-125236394D01*
X182951009Y-125304515D01*
X182934106Y-125325489D01*
X182929500Y-125330095D01*
X182867188Y-125364121D01*
X182840405Y-125367000D01*
X182784513Y-125367000D01*
X182778061Y-125368372D01*
X182778056Y-125368372D01*
X182691113Y-125386853D01*
X182597712Y-125406706D01*
X182591682Y-125409391D01*
X182591681Y-125409391D01*
X182429278Y-125481697D01*
X182429276Y-125481698D01*
X182423248Y-125484382D01*
X182268747Y-125596634D01*
X182264326Y-125601544D01*
X182264325Y-125601545D01*
X182149444Y-125729134D01*
X182140960Y-125738556D01*
X182045473Y-125903944D01*
X181986458Y-126085572D01*
X181985768Y-126092133D01*
X181985768Y-126092135D01*
X181968790Y-126253671D01*
X181941777Y-126319327D01*
X181883555Y-126359957D01*
X181843480Y-126366500D01*
X174378540Y-126366500D01*
X174310419Y-126346498D01*
X174263926Y-126292842D01*
X174252540Y-126240500D01*
X174252540Y-122805554D01*
X174272542Y-122737433D01*
X174289445Y-122716459D01*
X174966755Y-122039150D01*
X175652253Y-121353652D01*
X175660539Y-121346112D01*
X175667018Y-121342000D01*
X175713644Y-121292348D01*
X175716398Y-121289507D01*
X175736135Y-121269770D01*
X175738615Y-121266573D01*
X175746320Y-121257551D01*
X175776586Y-121225321D01*
X175780405Y-121218375D01*
X175780407Y-121218372D01*
X175786348Y-121207566D01*
X175797199Y-121191047D01*
X175799836Y-121187647D01*
X175809614Y-121175041D01*
X175812759Y-121167772D01*
X175812762Y-121167768D01*
X175827174Y-121134463D01*
X175832391Y-121123813D01*
X175853695Y-121085060D01*
X175858733Y-121065437D01*
X175865137Y-121046734D01*
X175870033Y-121035420D01*
X175870033Y-121035419D01*
X175873181Y-121028145D01*
X175874420Y-121020322D01*
X175874423Y-121020312D01*
X175880099Y-120984476D01*
X175882505Y-120972856D01*
X175891528Y-120937711D01*
X175891528Y-120937710D01*
X175893500Y-120930030D01*
X175893500Y-120909776D01*
X175895051Y-120890065D01*
X175895769Y-120885535D01*
X175898220Y-120870057D01*
X175894059Y-120826038D01*
X175893500Y-120814181D01*
X175893500Y-120482524D01*
X175913502Y-120414403D01*
X175925858Y-120398221D01*
X175999040Y-120316944D01*
X176069981Y-120194071D01*
X176091223Y-120157279D01*
X176091224Y-120157278D01*
X176094527Y-120151556D01*
X176153542Y-119969928D01*
X176154910Y-119956917D01*
X176172814Y-119786565D01*
X176173504Y-119780000D01*
X176168859Y-119735802D01*
X176154232Y-119596635D01*
X176154232Y-119596633D01*
X176153542Y-119590072D01*
X176094527Y-119408444D01*
X176075281Y-119375108D01*
X176046866Y-119325893D01*
X175999040Y-119243056D01*
X175991425Y-119234598D01*
X175875675Y-119106045D01*
X175875674Y-119106044D01*
X175871253Y-119101134D01*
X175735800Y-119002721D01*
X175722094Y-118992763D01*
X175722093Y-118992762D01*
X175716752Y-118988882D01*
X175710724Y-118986198D01*
X175710722Y-118986197D01*
X175548319Y-118913891D01*
X175548318Y-118913891D01*
X175542288Y-118911206D01*
X175448888Y-118891353D01*
X175361944Y-118872872D01*
X175361939Y-118872872D01*
X175355487Y-118871500D01*
X175164513Y-118871500D01*
X175158061Y-118872872D01*
X175158056Y-118872872D01*
X175071112Y-118891353D01*
X174977712Y-118911206D01*
X174971682Y-118913891D01*
X174971681Y-118913891D01*
X174809278Y-118986197D01*
X174809276Y-118986198D01*
X174803248Y-118988882D01*
X174797907Y-118992763D01*
X174797901Y-118992766D01*
X174746874Y-119029839D01*
X174680007Y-119053698D01*
X174610855Y-119037617D01*
X174563695Y-118990903D01*
X174560978Y-118986197D01*
X174471091Y-118830508D01*
X174449110Y-118806095D01*
X174347726Y-118693497D01*
X174347725Y-118693496D01*
X174343304Y-118688586D01*
X174214694Y-118595145D01*
X174194145Y-118580215D01*
X174194144Y-118580214D01*
X174188803Y-118576334D01*
X174182775Y-118573650D01*
X174182773Y-118573649D01*
X174020370Y-118501343D01*
X174020369Y-118501343D01*
X174014339Y-118498658D01*
X173856632Y-118465136D01*
X173830300Y-118459539D01*
X173788041Y-118436723D01*
X173730264Y-118458587D01*
X173720677Y-118458952D01*
X173636564Y-118458952D01*
X173630112Y-118460324D01*
X173630107Y-118460324D01*
X173550888Y-118477163D01*
X173449763Y-118498658D01*
X173443733Y-118501343D01*
X173443732Y-118501343D01*
X173281331Y-118573648D01*
X173281328Y-118573650D01*
X173275299Y-118576334D01*
X173274486Y-118576924D01*
X173207513Y-118593177D01*
X173162252Y-118582426D01*
X173036439Y-118526411D01*
X173008319Y-118513891D01*
X173008318Y-118513891D01*
X173002288Y-118511206D01*
X172884824Y-118486238D01*
X172856587Y-118480236D01*
X172794113Y-118446507D01*
X172767760Y-118407926D01*
X172766008Y-118401896D01*
X172762102Y-118395291D01*
X172761892Y-118394735D01*
X172760402Y-118391435D01*
X172760124Y-118390909D01*
X172757753Y-118383614D01*
X172721232Y-118326066D01*
X172719195Y-118322740D01*
X172717800Y-118320380D01*
X172684531Y-118264127D01*
X172679107Y-118258703D01*
X172678768Y-118258221D01*
X172676497Y-118255386D01*
X172676102Y-118254952D01*
X172671989Y-118248471D01*
X172646056Y-118224118D01*
X172622322Y-118201831D01*
X172619480Y-118199076D01*
X171127122Y-116706717D01*
X171093096Y-116644405D01*
X171090907Y-116630792D01*
X171074232Y-116472135D01*
X171074232Y-116472133D01*
X171073542Y-116465572D01*
X171014527Y-116283944D01*
X171008731Y-116273904D01*
X170970106Y-116207004D01*
X170919040Y-116118556D01*
X170875235Y-116069905D01*
X170795675Y-115981545D01*
X170795674Y-115981544D01*
X170791253Y-115976634D01*
X170687235Y-115901060D01*
X170642094Y-115868263D01*
X170642093Y-115868262D01*
X170636752Y-115864382D01*
X170630724Y-115861698D01*
X170630722Y-115861697D01*
X170468319Y-115789391D01*
X170468318Y-115789391D01*
X170462288Y-115786706D01*
X170350408Y-115762925D01*
X170281944Y-115748372D01*
X170281939Y-115748372D01*
X170275487Y-115747000D01*
X170084513Y-115747000D01*
X170078061Y-115748372D01*
X170078056Y-115748372D01*
X170009592Y-115762925D01*
X169897712Y-115786706D01*
X169891682Y-115789391D01*
X169891681Y-115789391D01*
X169729278Y-115861697D01*
X169729276Y-115861698D01*
X169723248Y-115864382D01*
X169717907Y-115868262D01*
X169717906Y-115868263D01*
X169672765Y-115901060D01*
X169568747Y-115976634D01*
X169564326Y-115981544D01*
X169564325Y-115981545D01*
X169484766Y-116069905D01*
X169440960Y-116118556D01*
X169389894Y-116207004D01*
X169351270Y-116273904D01*
X169345473Y-116283944D01*
X169286458Y-116465572D01*
X169285768Y-116472133D01*
X169285768Y-116472135D01*
X169269962Y-116622522D01*
X169266496Y-116655500D01*
X169267186Y-116662065D01*
X169285670Y-116837927D01*
X169286458Y-116845428D01*
X169345473Y-117027056D01*
X169348776Y-117032778D01*
X169348777Y-117032779D01*
X169372841Y-117074458D01*
X169440960Y-117192444D01*
X169445378Y-117197351D01*
X169445379Y-117197352D01*
X169563014Y-117327999D01*
X169568747Y-117334366D01*
X169723248Y-117446618D01*
X169729276Y-117449302D01*
X169729278Y-117449303D01*
X169851279Y-117503621D01*
X169897712Y-117524294D01*
X169981374Y-117542077D01*
X170078056Y-117562628D01*
X170078061Y-117562628D01*
X170084513Y-117564000D01*
X170140406Y-117564000D01*
X170208527Y-117584002D01*
X170229501Y-117600905D01*
X170591822Y-117963226D01*
X170625848Y-118025538D01*
X170620783Y-118096353D01*
X170581485Y-118149794D01*
X170579535Y-118150947D01*
X170573930Y-118156551D01*
X170565212Y-118165269D01*
X170550178Y-118178110D01*
X170542014Y-118184042D01*
X170533790Y-118190017D01*
X170528738Y-118196124D01*
X170505609Y-118224082D01*
X170497619Y-118232863D01*
X170154230Y-118576251D01*
X170145952Y-118583784D01*
X170139471Y-118587897D01*
X170134044Y-118593676D01*
X170134042Y-118593678D01*
X170092862Y-118637532D01*
X170090106Y-118640376D01*
X170070354Y-118660127D01*
X170067874Y-118663324D01*
X170060171Y-118672344D01*
X170029903Y-118704576D01*
X170026084Y-118711522D01*
X170026082Y-118711525D01*
X170020141Y-118722331D01*
X170009290Y-118738850D01*
X169996875Y-118754856D01*
X169993730Y-118762125D01*
X169993727Y-118762129D01*
X169979315Y-118795434D01*
X169974098Y-118806084D01*
X169952794Y-118844837D01*
X169950823Y-118852512D01*
X169950823Y-118852513D01*
X169947756Y-118864459D01*
X169941352Y-118883163D01*
X169933308Y-118901752D01*
X169932069Y-118909575D01*
X169932066Y-118909585D01*
X169926390Y-118945421D01*
X169923984Y-118957041D01*
X169912989Y-118999867D01*
X169912989Y-119020121D01*
X169911438Y-119039831D01*
X169908269Y-119059840D01*
X169909015Y-119067732D01*
X169912430Y-119103858D01*
X169912989Y-119115716D01*
X169912989Y-119601336D01*
X169912462Y-119612519D01*
X169910787Y-119620012D01*
X169911036Y-119627938D01*
X169911036Y-119627939D01*
X169912927Y-119688089D01*
X169912989Y-119692048D01*
X169912989Y-119719959D01*
X169913486Y-119723893D01*
X169913486Y-119723894D01*
X169913494Y-119723959D01*
X169914427Y-119735796D01*
X169915816Y-119779992D01*
X169921467Y-119799442D01*
X169925476Y-119818803D01*
X169928015Y-119838900D01*
X169930934Y-119846271D01*
X169930934Y-119846273D01*
X169944293Y-119880015D01*
X169948138Y-119891245D01*
X169960471Y-119933696D01*
X169964504Y-119940515D01*
X169964506Y-119940520D01*
X169970782Y-119951131D01*
X169979477Y-119968879D01*
X169986937Y-119987720D01*
X169991599Y-119994136D01*
X169991599Y-119994137D01*
X170012925Y-120023490D01*
X170019441Y-120033410D01*
X170036186Y-120061723D01*
X170041947Y-120071465D01*
X170056268Y-120085786D01*
X170069108Y-120100819D01*
X170081017Y-120117210D01*
X170087123Y-120122261D01*
X170115094Y-120145401D01*
X170123873Y-120153391D01*
X170467240Y-120496758D01*
X170474784Y-120505048D01*
X170478897Y-120511529D01*
X170484674Y-120516954D01*
X170528564Y-120558169D01*
X170531406Y-120560924D01*
X170551128Y-120580646D01*
X170554252Y-120583069D01*
X170554256Y-120583073D01*
X170554321Y-120583123D01*
X170563342Y-120590828D01*
X170595576Y-120621097D01*
X170602524Y-120624916D01*
X170602526Y-120624918D01*
X170613329Y-120630857D01*
X170629856Y-120641713D01*
X170639595Y-120649268D01*
X170639597Y-120649269D01*
X170645857Y-120654125D01*
X170686437Y-120671685D01*
X170697085Y-120676902D01*
X170726959Y-120693325D01*
X170735837Y-120698206D01*
X170743513Y-120700177D01*
X170743516Y-120700178D01*
X170755459Y-120703244D01*
X170774163Y-120709648D01*
X170782760Y-120713368D01*
X170792752Y-120717692D01*
X170800575Y-120718931D01*
X170800585Y-120718934D01*
X170836421Y-120724610D01*
X170848041Y-120727016D01*
X170874298Y-120733757D01*
X170890867Y-120738011D01*
X170911121Y-120738011D01*
X170930831Y-120739562D01*
X170950840Y-120742731D01*
X170958732Y-120741985D01*
X170994858Y-120738570D01*
X171006716Y-120738011D01*
X171194605Y-120738011D01*
X171262726Y-120758013D01*
X171283700Y-120774916D01*
X171500910Y-120992126D01*
X171534936Y-121054438D01*
X171529871Y-121125253D01*
X171500910Y-121170316D01*
X169732660Y-122938565D01*
X169670348Y-122972591D01*
X169599532Y-122967526D01*
X169554470Y-122938565D01*
X168759925Y-122144020D01*
X168725899Y-122081708D01*
X168723020Y-122054925D01*
X168723020Y-120918014D01*
X168723547Y-120906831D01*
X168725222Y-120899338D01*
X168724895Y-120888917D01*
X168723082Y-120831261D01*
X168723020Y-120827302D01*
X168723020Y-120799391D01*
X168722515Y-120795391D01*
X168721582Y-120783548D01*
X168721074Y-120767367D01*
X168720193Y-120739357D01*
X168714542Y-120719905D01*
X168710534Y-120700553D01*
X168708987Y-120688310D01*
X168707994Y-120680450D01*
X168704521Y-120671678D01*
X168691720Y-120639344D01*
X168687875Y-120628117D01*
X168682419Y-120609338D01*
X168675538Y-120585654D01*
X168670919Y-120577843D01*
X168665227Y-120568219D01*
X168656532Y-120550471D01*
X168649072Y-120531630D01*
X168640615Y-120519989D01*
X168623084Y-120495860D01*
X168616568Y-120485940D01*
X168598100Y-120454712D01*
X168598098Y-120454709D01*
X168594062Y-120447885D01*
X168579741Y-120433564D01*
X168566900Y-120418530D01*
X168565889Y-120417139D01*
X168554992Y-120402140D01*
X168520915Y-120373949D01*
X168512136Y-120365959D01*
X166339483Y-118193305D01*
X166305457Y-118130993D01*
X166310522Y-118060177D01*
X166354517Y-118002274D01*
X166408261Y-117963226D01*
X166435753Y-117943252D01*
X166442417Y-117935851D01*
X166559121Y-117806238D01*
X166559122Y-117806237D01*
X166563540Y-117801330D01*
X166645626Y-117659153D01*
X166655723Y-117641665D01*
X166655724Y-117641664D01*
X166659027Y-117635942D01*
X166718042Y-117454314D01*
X166723338Y-117403931D01*
X166737314Y-117270951D01*
X166738004Y-117264386D01*
X166726336Y-117153367D01*
X166718732Y-117081021D01*
X166718732Y-117081019D01*
X166718042Y-117074458D01*
X166662361Y-116903091D01*
X166660333Y-116832125D01*
X166693099Y-116775061D01*
X169647296Y-113820865D01*
X169709608Y-113786839D01*
X169780424Y-113791904D01*
X169837259Y-113834451D01*
X169862329Y-113906000D01*
X169862566Y-113913537D01*
X169862628Y-113917497D01*
X169862628Y-113945408D01*
X169863125Y-113949342D01*
X169863125Y-113949343D01*
X169863133Y-113949408D01*
X169864066Y-113961245D01*
X169865455Y-114005441D01*
X169870100Y-114021428D01*
X169871106Y-114024891D01*
X169875115Y-114044252D01*
X169877654Y-114064349D01*
X169880573Y-114071720D01*
X169880573Y-114071722D01*
X169893932Y-114105464D01*
X169897777Y-114116694D01*
X169907270Y-114149369D01*
X169910110Y-114159145D01*
X169914143Y-114165964D01*
X169914145Y-114165969D01*
X169920421Y-114176580D01*
X169929116Y-114194328D01*
X169936576Y-114213169D01*
X169941238Y-114219585D01*
X169941238Y-114219586D01*
X169962564Y-114248939D01*
X169969080Y-114258859D01*
X169983978Y-114284049D01*
X169991586Y-114296914D01*
X170005907Y-114311235D01*
X170018747Y-114326268D01*
X170030656Y-114342659D01*
X170037335Y-114348184D01*
X170064733Y-114370850D01*
X170073512Y-114378840D01*
X172532598Y-116837927D01*
X172540138Y-116846213D01*
X172544250Y-116852692D01*
X172550027Y-116858117D01*
X172593901Y-116899317D01*
X172596743Y-116902072D01*
X172616480Y-116921809D01*
X172619677Y-116924289D01*
X172628697Y-116931992D01*
X172660929Y-116962260D01*
X172667875Y-116966079D01*
X172667878Y-116966081D01*
X172678684Y-116972022D01*
X172695203Y-116982873D01*
X172711209Y-116995288D01*
X172718478Y-116998433D01*
X172718482Y-116998436D01*
X172751787Y-117012848D01*
X172762437Y-117018065D01*
X172801190Y-117039369D01*
X172808865Y-117041340D01*
X172808866Y-117041340D01*
X172815596Y-117043068D01*
X172820789Y-117044401D01*
X172820812Y-117044407D01*
X172839517Y-117050811D01*
X172858105Y-117058855D01*
X172857872Y-117059394D01*
X172912992Y-117094598D01*
X172942667Y-117159095D01*
X172943311Y-117190549D01*
X172931619Y-117301792D01*
X172932309Y-117308357D01*
X172949903Y-117475750D01*
X172951581Y-117491720D01*
X173010596Y-117673348D01*
X173013899Y-117679070D01*
X173013900Y-117679071D01*
X173017591Y-117685464D01*
X173106083Y-117838736D01*
X173110501Y-117843643D01*
X173110502Y-117843644D01*
X173200613Y-117943722D01*
X173233870Y-117980658D01*
X173315456Y-118039934D01*
X173377169Y-118084771D01*
X173388371Y-118092910D01*
X173394399Y-118095594D01*
X173394401Y-118095595D01*
X173554194Y-118166739D01*
X173562835Y-118170586D01*
X173720542Y-118204108D01*
X173746874Y-118209705D01*
X173789133Y-118232521D01*
X173846910Y-118210657D01*
X173856497Y-118210292D01*
X173940610Y-118210292D01*
X173947062Y-118208920D01*
X173947067Y-118208920D01*
X174035996Y-118190017D01*
X174127411Y-118170586D01*
X174136052Y-118166739D01*
X174295845Y-118095595D01*
X174295847Y-118095594D01*
X174301875Y-118092910D01*
X174313078Y-118084771D01*
X174450957Y-117984595D01*
X174456376Y-117980658D01*
X174460791Y-117975755D01*
X174465703Y-117971332D01*
X174466828Y-117972581D01*
X174520137Y-117939741D01*
X174553323Y-117935292D01*
X175761800Y-117935292D01*
X175772983Y-117935819D01*
X175780476Y-117937494D01*
X175788402Y-117937245D01*
X175788403Y-117937245D01*
X175848553Y-117935354D01*
X175852512Y-117935292D01*
X175880423Y-117935292D01*
X175884358Y-117934795D01*
X175884423Y-117934787D01*
X175896260Y-117933854D01*
X175928518Y-117932840D01*
X175932537Y-117932714D01*
X175940456Y-117932465D01*
X175959910Y-117926813D01*
X175979267Y-117922805D01*
X175991497Y-117921260D01*
X175991498Y-117921260D01*
X175999364Y-117920266D01*
X176006735Y-117917347D01*
X176006737Y-117917347D01*
X176040479Y-117903988D01*
X176051709Y-117900143D01*
X176086550Y-117890021D01*
X176086551Y-117890021D01*
X176094160Y-117887810D01*
X176100979Y-117883777D01*
X176100984Y-117883775D01*
X176111595Y-117877499D01*
X176129343Y-117868804D01*
X176148184Y-117861344D01*
X176156984Y-117854951D01*
X176183954Y-117835356D01*
X176193874Y-117828840D01*
X176225102Y-117810372D01*
X176225105Y-117810370D01*
X176231929Y-117806334D01*
X176246250Y-117792013D01*
X176261284Y-117779172D01*
X176265207Y-117776322D01*
X176277674Y-117767264D01*
X176305865Y-117733187D01*
X176313855Y-117724408D01*
X178068358Y-115969905D01*
X178130670Y-115935879D01*
X178157453Y-115933000D01*
X178213346Y-115933000D01*
X178219798Y-115931628D01*
X178219803Y-115931628D01*
X178313422Y-115911728D01*
X178400147Y-115893294D01*
X178419158Y-115884830D01*
X178568581Y-115818303D01*
X178568583Y-115818302D01*
X178574611Y-115815618D01*
X178581744Y-115810436D01*
X178632281Y-115773718D01*
X178681940Y-115737639D01*
X178748806Y-115713781D01*
X178817958Y-115729861D01*
X178867438Y-115780774D01*
X178882000Y-115839575D01*
X178882000Y-117082047D01*
X178881473Y-117093230D01*
X178879798Y-117100723D01*
X178880047Y-117108649D01*
X178880047Y-117108650D01*
X178881938Y-117168800D01*
X178882000Y-117172759D01*
X178882000Y-117200670D01*
X178882497Y-117204604D01*
X178882497Y-117204605D01*
X178882505Y-117204670D01*
X178883438Y-117216507D01*
X178884827Y-117260703D01*
X178890478Y-117280153D01*
X178894487Y-117299514D01*
X178897026Y-117319611D01*
X178899944Y-117326981D01*
X178901916Y-117334662D01*
X178899828Y-117335198D01*
X178905297Y-117394822D01*
X178870759Y-117459610D01*
X178773236Y-117557133D01*
X178764950Y-117564673D01*
X178758471Y-117568785D01*
X178753046Y-117574562D01*
X178711846Y-117618436D01*
X178709091Y-117621278D01*
X178689354Y-117641015D01*
X178686874Y-117644212D01*
X178679171Y-117653232D01*
X178648903Y-117685464D01*
X178645084Y-117692410D01*
X178645082Y-117692413D01*
X178639141Y-117703219D01*
X178628290Y-117719738D01*
X178615875Y-117735744D01*
X178612730Y-117743013D01*
X178612727Y-117743017D01*
X178598315Y-117776322D01*
X178593098Y-117786972D01*
X178571794Y-117825725D01*
X178569823Y-117833400D01*
X178569823Y-117833401D01*
X178566756Y-117845347D01*
X178560352Y-117864051D01*
X178552308Y-117882640D01*
X178551069Y-117890463D01*
X178551066Y-117890473D01*
X178545390Y-117926309D01*
X178542984Y-117937929D01*
X178536343Y-117963796D01*
X178531989Y-117980755D01*
X178531989Y-118001009D01*
X178530438Y-118020719D01*
X178527269Y-118040728D01*
X178528015Y-118048620D01*
X178531430Y-118084746D01*
X178531989Y-118096604D01*
X178531989Y-120666722D01*
X178531462Y-120677905D01*
X178529787Y-120685398D01*
X178530036Y-120693324D01*
X178530036Y-120693325D01*
X178531927Y-120753475D01*
X178531989Y-120757434D01*
X178531989Y-120785345D01*
X178532486Y-120789279D01*
X178532486Y-120789280D01*
X178532494Y-120789345D01*
X178533427Y-120801182D01*
X178534816Y-120845378D01*
X178540467Y-120864828D01*
X178544476Y-120884189D01*
X178545450Y-120891895D01*
X178547015Y-120904286D01*
X178549931Y-120911652D01*
X178549933Y-120911658D01*
X178563293Y-120945401D01*
X178567138Y-120956631D01*
X178579471Y-120999082D01*
X178583504Y-121005901D01*
X178583506Y-121005906D01*
X178589782Y-121016517D01*
X178598477Y-121034265D01*
X178605937Y-121053106D01*
X178610599Y-121059522D01*
X178610599Y-121059523D01*
X178631925Y-121088876D01*
X178638441Y-121098796D01*
X178654088Y-121125253D01*
X178660947Y-121136851D01*
X178675268Y-121151172D01*
X178688108Y-121166205D01*
X178700017Y-121182596D01*
X178734094Y-121210787D01*
X178742873Y-121218777D01*
X179392878Y-121868782D01*
X179426904Y-121931094D01*
X179429092Y-121944703D01*
X179446458Y-122109928D01*
X179505473Y-122291556D01*
X179508776Y-122297278D01*
X179508777Y-122297279D01*
X179521557Y-122319414D01*
X179600960Y-122456944D01*
X179605378Y-122461851D01*
X179605379Y-122461852D01*
X179709220Y-122577179D01*
X179728747Y-122598866D01*
X179827843Y-122670864D01*
X179872430Y-122703258D01*
X179883248Y-122711118D01*
X179889276Y-122713802D01*
X179889278Y-122713803D01*
X180034151Y-122778304D01*
X180057712Y-122788794D01*
X180142480Y-122806812D01*
X180238056Y-122827128D01*
X180238061Y-122827128D01*
X180244513Y-122828500D01*
X180435487Y-122828500D01*
X180441939Y-122827128D01*
X180441944Y-122827128D01*
X180537520Y-122806812D01*
X180622288Y-122788794D01*
X180645849Y-122778304D01*
X180790722Y-122713803D01*
X180790724Y-122713802D01*
X180796752Y-122711118D01*
X180807571Y-122703258D01*
X180950481Y-122599427D01*
X180956551Y-122597261D01*
X180970780Y-122577179D01*
X181074621Y-122461852D01*
X181074622Y-122461851D01*
X181079040Y-122456944D01*
X181158443Y-122319414D01*
X181171223Y-122297279D01*
X181171224Y-122297278D01*
X181174527Y-122291556D01*
X181233542Y-122109928D01*
X181243631Y-122013942D01*
X181252814Y-121926565D01*
X181253504Y-121920000D01*
X181242629Y-121816531D01*
X181234232Y-121736635D01*
X181234232Y-121736633D01*
X181233542Y-121730072D01*
X181174527Y-121548444D01*
X181079040Y-121383056D01*
X181063957Y-121366304D01*
X180955675Y-121246045D01*
X180955674Y-121246044D01*
X180951253Y-121241134D01*
X180832162Y-121154609D01*
X180802094Y-121132763D01*
X180802093Y-121132762D01*
X180796752Y-121128882D01*
X180790724Y-121126198D01*
X180790722Y-121126197D01*
X180628319Y-121053891D01*
X180628318Y-121053891D01*
X180622288Y-121051206D01*
X180528888Y-121031353D01*
X180441944Y-121012872D01*
X180441939Y-121012872D01*
X180435487Y-121011500D01*
X180379595Y-121011500D01*
X180311474Y-120991498D01*
X180290500Y-120974595D01*
X179835894Y-120519989D01*
X179801868Y-120457677D01*
X179798989Y-120430894D01*
X179798989Y-118375380D01*
X179818991Y-118307259D01*
X179835894Y-118286284D01*
X179998822Y-118123357D01*
X180187672Y-117934507D01*
X180205945Y-117919391D01*
X180206194Y-117919222D01*
X180206196Y-117919220D01*
X180212750Y-117914766D01*
X180217989Y-117908824D01*
X180217992Y-117908821D01*
X180249883Y-117872647D01*
X180255302Y-117866877D01*
X180266615Y-117855564D01*
X180269040Y-117852438D01*
X180269045Y-117852432D01*
X180276421Y-117842922D01*
X180281470Y-117836819D01*
X180313357Y-117800651D01*
X180313360Y-117800646D01*
X180318600Y-117794703D01*
X180322336Y-117787371D01*
X180335049Y-117767339D01*
X180335236Y-117767098D01*
X180335237Y-117767097D01*
X180340094Y-117760835D01*
X180343240Y-117753565D01*
X180343243Y-117753560D01*
X180362402Y-117709285D01*
X180365764Y-117702138D01*
X180391265Y-117652090D01*
X180393063Y-117644048D01*
X180400388Y-117621504D01*
X180400514Y-117621213D01*
X180400515Y-117621209D01*
X180403661Y-117613939D01*
X180405725Y-117600905D01*
X180412448Y-117558460D01*
X180413931Y-117550685D01*
X180426181Y-117495885D01*
X180425922Y-117487653D01*
X180427412Y-117463985D01*
X180428700Y-117455851D01*
X180427954Y-117447956D01*
X180423414Y-117399930D01*
X180422917Y-117392030D01*
X180421402Y-117343829D01*
X180421153Y-117335904D01*
X180418855Y-117327995D01*
X180414412Y-117304701D01*
X180414383Y-117304392D01*
X180414383Y-117304391D01*
X180413637Y-117296502D01*
X180394614Y-117243662D01*
X180392168Y-117236136D01*
X180386467Y-117216513D01*
X180376498Y-117182200D01*
X180372307Y-117175113D01*
X180362208Y-117153652D01*
X180362105Y-117153367D01*
X180359419Y-117145905D01*
X180327851Y-117099455D01*
X180323609Y-117092770D01*
X180299059Y-117051257D01*
X180299058Y-117051256D01*
X180295022Y-117044431D01*
X180289200Y-117038609D01*
X180274084Y-117020339D01*
X180273905Y-117020076D01*
X180269452Y-117013523D01*
X180263511Y-117008285D01*
X180263509Y-117008283D01*
X180227314Y-116976373D01*
X180221545Y-116970954D01*
X180185905Y-116935314D01*
X180151879Y-116873002D01*
X180149000Y-116846219D01*
X180149000Y-114371793D01*
X180151232Y-114348184D01*
X180151290Y-114347881D01*
X180151290Y-114347877D01*
X180152775Y-114340094D01*
X180149249Y-114284049D01*
X180149000Y-114276138D01*
X180149000Y-114260144D01*
X180146994Y-114244270D01*
X180146251Y-114236402D01*
X180143223Y-114188263D01*
X180143223Y-114188262D01*
X180142725Y-114180350D01*
X180140179Y-114172513D01*
X180135006Y-114149369D01*
X180134968Y-114149065D01*
X180134967Y-114149060D01*
X180133974Y-114141203D01*
X180131058Y-114133838D01*
X180131057Y-114133834D01*
X180113301Y-114088989D01*
X180110629Y-114081570D01*
X180093264Y-114028125D01*
X180089014Y-114021428D01*
X180088850Y-114021169D01*
X180078085Y-114000042D01*
X180077971Y-113999754D01*
X180077968Y-113999749D01*
X180075052Y-113992383D01*
X180070396Y-113985975D01*
X180070393Y-113985969D01*
X180042042Y-113946948D01*
X180037592Y-113940401D01*
X180007500Y-113892982D01*
X180001493Y-113887341D01*
X179985812Y-113869554D01*
X179985634Y-113869309D01*
X179985632Y-113869307D01*
X179980972Y-113862893D01*
X179954232Y-113840771D01*
X179937704Y-113827097D01*
X179931770Y-113821866D01*
X179896602Y-113788842D01*
X179896599Y-113788840D01*
X179890821Y-113783414D01*
X179883597Y-113779442D01*
X179863994Y-113766119D01*
X179863754Y-113765920D01*
X179863747Y-113765916D01*
X179857644Y-113760867D01*
X179806824Y-113736953D01*
X179799792Y-113733371D01*
X179750560Y-113706305D01*
X179742885Y-113704335D01*
X179742879Y-113704332D01*
X179742581Y-113704256D01*
X179720272Y-113696224D01*
X179719997Y-113696094D01*
X179719989Y-113696091D01*
X179712818Y-113692717D01*
X179657651Y-113682194D01*
X179649942Y-113680471D01*
X179615806Y-113671706D01*
X179603207Y-113668471D01*
X179603206Y-113668471D01*
X179595530Y-113666500D01*
X179587293Y-113666500D01*
X179563684Y-113664268D01*
X179563381Y-113664210D01*
X179563377Y-113664210D01*
X179555594Y-113662725D01*
X179499549Y-113666251D01*
X179491638Y-113666500D01*
X179223533Y-113666500D01*
X179155412Y-113646498D01*
X179108919Y-113592842D01*
X179098815Y-113522568D01*
X179128309Y-113457988D01*
X179133987Y-113452200D01*
X179135753Y-113450917D01*
X179188017Y-113392872D01*
X179259121Y-113313903D01*
X179259122Y-113313902D01*
X179263540Y-113308995D01*
X179359027Y-113143607D01*
X179418042Y-112961979D01*
X179422885Y-112915906D01*
X179427396Y-112872976D01*
X179435407Y-112796757D01*
X179462420Y-112731101D01*
X179471622Y-112720833D01*
X180801321Y-111391135D01*
X180863633Y-111357109D01*
X180934449Y-111362174D01*
G37*
%TD.AperFunction*%
%TD*%
M02*
