%TF.GenerationSoftware,KiCad,Pcbnew,(6.0.0)*%
%TF.CreationDate,2022-01-07T00:24:45+08:00*%
%TF.ProjectId,pj4_MCU,706a345f-4d43-4552-9e6b-696361645f70,1*%
%TF.SameCoordinates,Original*%
%TF.FileFunction,Soldermask,Top*%
%TF.FilePolarity,Negative*%
%FSLAX46Y46*%
G04 Gerber Fmt 4.6, Leading zero omitted, Abs format (unit mm)*
G04 Created by KiCad (PCBNEW (6.0.0)) date 2022-01-07 00:24:45*
%MOMM*%
%LPD*%
G01*
G04 APERTURE LIST*
G04 Aperture macros list*
%AMRoundRect*
0 Rectangle with rounded corners*
0 $1 Rounding radius*
0 $2 $3 $4 $5 $6 $7 $8 $9 X,Y pos of 4 corners*
0 Add a 4 corners polygon primitive as box body*
4,1,4,$2,$3,$4,$5,$6,$7,$8,$9,$2,$3,0*
0 Add four circle primitives for the rounded corners*
1,1,$1+$1,$2,$3*
1,1,$1+$1,$4,$5*
1,1,$1+$1,$6,$7*
1,1,$1+$1,$8,$9*
0 Add four rect primitives between the rounded corners*
20,1,$1+$1,$2,$3,$4,$5,0*
20,1,$1+$1,$4,$5,$6,$7,0*
20,1,$1+$1,$6,$7,$8,$9,0*
20,1,$1+$1,$8,$9,$2,$3,0*%
G04 Aperture macros list end*
%ADD10R,3.500000X2.400000*%
%ADD11R,2.400000X3.500000*%
%ADD12R,0.550000X1.500000*%
%ADD13R,1.500000X0.550000*%
%ADD14RoundRect,0.150000X-0.825000X-0.150000X0.825000X-0.150000X0.825000X0.150000X-0.825000X0.150000X0*%
%ADD15RoundRect,0.041300X-0.943700X-0.253700X0.943700X-0.253700X0.943700X0.253700X-0.943700X0.253700X0*%
%ADD16RoundRect,0.250000X-0.262500X-0.450000X0.262500X-0.450000X0.262500X0.450000X-0.262500X0.450000X0*%
%ADD17RoundRect,0.250000X0.262500X0.450000X-0.262500X0.450000X-0.262500X-0.450000X0.262500X-0.450000X0*%
%ADD18R,1.700000X1.700000*%
%ADD19O,1.700000X1.700000*%
%ADD20C,2.100000*%
%ADD21RoundRect,0.243750X-0.243750X-0.456250X0.243750X-0.456250X0.243750X0.456250X-0.243750X0.456250X0*%
%ADD22RoundRect,0.250000X-0.250000X-0.475000X0.250000X-0.475000X0.250000X0.475000X-0.250000X0.475000X0*%
G04 APERTURE END LIST*
D10*
%TO.C,Y2*%
X175320000Y-132080000D03*
X170120000Y-132080000D03*
%TD*%
D11*
%TO.C,Y1*%
X149860000Y-132140000D03*
X149860000Y-126940000D03*
%TD*%
D12*
%TO.C,U4*%
X169920000Y-115080000D03*
X170720000Y-115080000D03*
X171520000Y-115080000D03*
X172320000Y-115080000D03*
X173120000Y-115080000D03*
X173920000Y-115080000D03*
X174720000Y-115080000D03*
X175520000Y-115080000D03*
D13*
X177020000Y-116580000D03*
X177020000Y-117380000D03*
X177020000Y-118180000D03*
X177020000Y-118980000D03*
X177020000Y-119780000D03*
X177020000Y-120580000D03*
X177020000Y-121380000D03*
X177020000Y-122180000D03*
D12*
X175520000Y-123680000D03*
X174720000Y-123680000D03*
X173920000Y-123680000D03*
X173120000Y-123680000D03*
X172320000Y-123680000D03*
X171520000Y-123680000D03*
X170720000Y-123680000D03*
X169920000Y-123680000D03*
D13*
X168420000Y-122180000D03*
X168420000Y-121380000D03*
X168420000Y-120580000D03*
X168420000Y-119780000D03*
X168420000Y-118980000D03*
X168420000Y-118180000D03*
X168420000Y-117380000D03*
X168420000Y-116580000D03*
%TD*%
D14*
%TO.C,U3*%
X162495000Y-120015000D03*
X162495000Y-121285000D03*
X162495000Y-122555000D03*
X162495000Y-123825000D03*
X157545000Y-123825000D03*
X157545000Y-122555000D03*
X157545000Y-121285000D03*
X157545000Y-120015000D03*
%TD*%
D15*
%TO.C,U2*%
X157545000Y-127635000D03*
X157545000Y-128905000D03*
X157545000Y-130175000D03*
X157545000Y-131445000D03*
X162495000Y-131445000D03*
X162495000Y-130175000D03*
X162495000Y-128905000D03*
X162495000Y-127635000D03*
%TD*%
D14*
%TO.C,U1*%
X162495000Y-113030000D03*
X162495000Y-114300000D03*
X162495000Y-115570000D03*
X162495000Y-116840000D03*
X157545000Y-116840000D03*
X157545000Y-115570000D03*
X157545000Y-114300000D03*
X157545000Y-113030000D03*
%TD*%
D16*
%TO.C,R7*%
X181967500Y-114300000D03*
X183792500Y-114300000D03*
%TD*%
%TO.C,R6*%
X187047500Y-119380000D03*
X188872500Y-119380000D03*
%TD*%
%TO.C,R5*%
X187047500Y-114300000D03*
X188872500Y-114300000D03*
%TD*%
%TO.C,R4*%
X181967500Y-119380000D03*
X183792500Y-119380000D03*
%TD*%
D17*
%TO.C,R3*%
X183792500Y-124460000D03*
X181967500Y-124460000D03*
%TD*%
D16*
%TO.C,R2*%
X163472500Y-134620000D03*
X161647500Y-134620000D03*
%TD*%
%TO.C,R1*%
X156567500Y-134620000D03*
X158392500Y-134620000D03*
%TD*%
D18*
%TO.C,J4*%
X177800000Y-139700000D03*
D19*
X180340000Y-139700000D03*
X182880000Y-139700000D03*
X185420000Y-139700000D03*
%TD*%
D18*
%TO.C,J3*%
X195580000Y-125740000D03*
D19*
X195580000Y-128280000D03*
X195580000Y-130820000D03*
X195580000Y-133360000D03*
%TD*%
D18*
%TO.C,J2*%
X193040000Y-114300000D03*
D19*
X195580000Y-114300000D03*
X193040000Y-116840000D03*
X195580000Y-116840000D03*
X193040000Y-119380000D03*
X195580000Y-119380000D03*
%TD*%
D18*
%TO.C,J1*%
X152410000Y-139700000D03*
D19*
X154950000Y-139700000D03*
X157490000Y-139700000D03*
X160030000Y-139700000D03*
X162570000Y-139700000D03*
X165110000Y-139700000D03*
X167650000Y-139700000D03*
X170190000Y-139700000D03*
X172730000Y-139700000D03*
%TD*%
D20*
%TO.C,H4*%
X147320000Y-141224000D03*
%TD*%
%TO.C,H3*%
X196596000Y-141224000D03*
%TD*%
%TO.C,H2*%
X196596000Y-108204000D03*
%TD*%
%TO.C,H1*%
X147320000Y-108204000D03*
%TD*%
D21*
%TO.C,D2*%
X183817500Y-109220000D03*
X181942500Y-109220000D03*
%TD*%
D22*
%TO.C,C8*%
X178750000Y-109220000D03*
X176850000Y-109220000D03*
%TD*%
%TO.C,C7*%
X188910000Y-124460000D03*
X187010000Y-124460000D03*
%TD*%
%TO.C,C6*%
X171770000Y-109220000D03*
X173670000Y-109220000D03*
%TD*%
%TO.C,C5*%
X181930000Y-129540000D03*
X183830000Y-129540000D03*
%TD*%
%TO.C,C1*%
X168590000Y-109220000D03*
X166690000Y-109220000D03*
%TD*%
D18*
%TO.C,BT1*%
X149860000Y-119380000D03*
D19*
X149860000Y-121920000D03*
%TD*%
M02*
